SplineFontDB: 3.0
FontName: Cantarell-Regular
FullName: Cantarell Regular
FamilyName: Cantarell
Weight: Regular
Copyright: Copyright (c) 2009-2011, Understanding Limited (dave@understandinglimited.com),\nCopyright (c) 2010-2012, Jakub Steiner (jimmac@gmail.com).\n\nThis Font Software is licensed under the SIL Open Font License, Version 1.1.\nThis license is copied below, and is also available with a FAQ at:\nhttp://scripts.sil.org/OFL
UComments: "Cantarell was originally designed by Dave Crossland and is developed by the GNOME community+AA0ACgAA-dave@understandinglimited.com+AA0ACgAA-http://live.gnome.org/CantarellFonts" 

StartChar: a
Encoding: 97 97 0
Width: 491
VWidth: 1023
Flags: HMW
HStem: 0 73 217 73<197 355> 408 73
VStem: 345 82<91 224 284 384>
AnchorPoint: "cedilla" 246 0 basechar 0
AnchorPoint: "below" 246 0 basechar 0
AnchorPoint: "above" 246 482 basechar 0
LayerCount: 4
Back
SplineSet
367.678 273.926 m 1
 367.189 213.867 l 1
 327.789 212.969 288.299 213.725 249.025 210.449 c 0
 232.652 209.084 216.262 206.742 200.631 201.684 c 0
 184.998 196.625 170.031 188.649 158.693 176.758 c 0
 145.972 163.415 138.285 144.807 140.139 126.465 c 0
 141.225 115.73 145.476 105.434 151.658 96.5908 c 0
 157.841 87.749 165.909 80.3213 174.807 74.2188 c 0
 196.106 59.6094 222.263 52.5742 248.083 53.2227 c 0
 273.903 53.8711 299.372 62.0215 321.291 75.6836 c 0
 358.992 99.1836 385.908 139.037 394.533 182.617 c 1
 425.295 169.434 l 1
 418.467 123.127 395.85 79.2656 361.975 46.9639 c 0
 328.099 14.6621 283.021 -5.96289 236.33 -9.27734 c 0
 198.299 -11.9775 159.305 -3.08789 126.955 17.0898 c 0
 108.452 28.6309 92.123 43.8545 80.2129 62.123 c 0
 68.3047 80.3926 60.916 101.744 60.0605 123.535 c 0
 58.6367 159.803 75.8281 195.696 103.029 219.727 c 0
 126.895 240.811 157.425 253.094 188.459 260.229 c 0
 219.494 267.364 251.402 269.859 283.205 271.484 c 0
 311.34 272.922 339.508 273.6 367.678 273.926 c 1
  Spiro
    367.678 273.926 v
    367.189 213.867 v
    249.025 210.449 o
    158.693 176.758 c
    140.139 126.465 c
    174.807 74.2188 c
    321.291 75.6836 o
    394.533 182.617 v
    425.295 169.434 v
    236.33 -9.27734 o
    126.955 17.0898 c
    60.0605 123.535 c
    103.029 219.727 c
    283.205 271.484 o
    0 0 z
  EndSpiro
90.8223 461.914 m 1
 109.002 468.749 127.604 474.463 146.486 479.004 c 0
 179.166 486.863 212.712 491.338 246.322 491.46 c 0
 279.934 491.582 313.959 487.451 345.217 475.098 c 0
 374.278 463.611 400.645 443.71 416.018 416.504 c 0
 424.145 402.121 429.148 386.092 431.639 369.76 c 0
 434.129 353.428 434.16 336.833 434.084 320.312 c 2
 432.619 0 l 1
 377.443 0 l 1
 353.518 56.1523 l 1
 353.518 299.316 l 2
 353.518 318.965 354.369 338.975 349.123 357.91 c 0
 346.327 368.003 341.683 377.601 335.307 385.909 c 0
 328.931 394.217 320.91 401.213 312.014 406.738 c 0
 289.891 420.48 263.189 425.183 237.146 425.415 c 0
 211.105 425.646 185.186 421.723 159.67 416.504 c 0
 141.604 412.809 123.693 408.369 105.959 403.32 c 1
 90.8223 461.914 l 1
  Spiro
    90.8223 461.914 v
    146.486 479.004 o
    345.217 475.098 o
    416.018 416.504 o
    434.084 320.312 [
    432.619 0 v
    377.443 0 v
    353.518 56.1523 v
    353.518 299.316 ]
    349.123 357.91 o
    312.014 406.738 o
    159.67 416.504 o
    105.959 403.32 v
    0 0 z
  EndSpiro
EndSplineSet
Fore
SplineSet
226 420 m 0
 185 420 114 408 73 394 c 1
 73 459 l 1
 125 479 179 489 235 489 c 128
 291 489 333 480 360 462 c 128
 411 428 427 392 427 313 c 2
 427 0 l 1
 366 0 l 1
 348 45 l 1
 303 8 254 -12 200 -12 c 0
 116 -12 45 42 45 120 c 128
 45 200 100 246 163 263 c 1
 211 275 271 282 345 284 c 1
 345 288 l 2
 345 323 342 347 336 363 c 0
 322 401 286 420 226 420 c 0
126 130 m 0
 126 96 151 72 179 59 c 128
 188 55 200 53 212 53 c 0
 222 53 233 54 244 56 c 0
 283 63 316 81 345 109 c 1
 345 224 l 1
 279 222 237 219 217 215 c 0
 180 207 153 191 137 165 c 128
 130 153 126 142 126 130 c 0
EndSplineSet
Layer: 2
SplineSet
355.469 111.377 m 5
 345.166 100.033 333.445 89.9648 320.662 81.5127 c 4
 307.539 72.8369 293.274 65.8643 278.297 61.0566 c 4
 262.492 55.9844 245.891 53.3301 229.293 53.5137 c 4
 214.197 53.6816 199.041 56.0977 184.958 61.5391 c 4
 171.838 66.6074 159.645 74.6836 151.248 85.9668 c 4
 142.515 97.7012 138.234 112.415 137.939 127.039 c 4
 137.723 137.758 139.538 148.54 143.512 158.497 c 4
 147.035 167.326 152.301 175.451 158.897 182.296 c 4
 165.531 189.178 173.441 194.752 181.871 199.259 c 4
 199.99 208.945 220.196 214.165 240.477 217.457 c 4
 261.5 220.868 282.82 222.035 304.104 222.818 c 4
 327.076 223.664 350.062 224.11 373.047 224.609 c 5
 373.047 284.647 l 5
 343.852 284.583 314.65 283.748 285.523 281.764 c 4
 260.025 280.027 234.549 277.385 209.463 272.495 c 4
 185.335 267.793 161.49 261.039 139.236 250.596 c 4
 123.539 243.229 108.65 233.927 95.9609 222.109 c 4
 83.4844 210.492 73.2793 196.393 66.5117 180.745 c 4
 58.9844 163.34 55.6465 144.262 55.7051 125.299 c 4
 55.7871 98.4707 62.6738 71.29 77.8184 49.1445 c 4
 91.8428 28.6357 112.67 13.3164 135.568 3.67773 c 4
 160.682 -6.89258 188.125 -11.4854 215.371 -11.3096 c 4
 234.035 -11.1885 252.709 -8.67188 270.637 -3.47754 c 4
 287.578 1.43066 303.805 8.7207 318.895 17.8506 c 4
 333.522 26.6992 347.115 37.248 359.375 49.1641 c 5
 355.469 111.377 l 5
375.908 0 m 5
 436.816 0 l 5
 436.816 320.641 l 6
 436.816 437.236 373.298 489.009 244.955 489.009 c 4
 193.184 489.009 136.191 479.002 82.6777 459.424 c 5
 82.6777 393.295 l 5
 146.632 413.743 197.099 419.398 235.818 419.398 c 4
 316.305 419.398 355.025 388.074 355.025 306.283 c 6
 355.025 51.3398 l 5
 375.908 0 l 5
EndSplineSet
Layer: 3
SplineSet
373.291 284.424 m 1
 373.047 224.609 l 1
 341.135 224.013 309.2 223.666 277.344 221.68 c 0
 260.002 220.598 242.646 218.909 225.678 215.17 c 0
 208.709 211.43 192.049 205.53 177.49 196.045 c 0
 166.137 188.647 156.131 179.021 149.045 167.473 c 0
 141.958 155.922 137.908 142.457 137.939 128.906 c 0
 137.973 114.537 142.643 100.248 150.928 88.5078 c 0
 159.214 76.7676 170.963 67.6299 184.082 61.7676 c 0
 206.045 51.9531 231.25 51.1738 254.883 55.6641 c 0
 281.143 60.6543 306.094 71.7793 328.125 86.9141 c 0
 340.137 95.166 351.283 104.676 361.328 115.234 c 1
 363.281 49.8047 l 1
 344.652 32.8906 323.297 18.9844 300.293 8.78906 c 0
 267.145 -5.90137 230.518 -13.0967 194.336 -10.7422 c 0
 161.436 -8.60156 128.563 2.09375 103.027 22.9492 c 0
 72.6445 47.7637 54.4844 86.748 54.6875 125.977 c 0
 54.8604 159.416 68.2529 192.576 91.3086 216.797 c 0
 114.757 241.43 146.853 256.277 179.688 265.137 c 0
 242.449 282.07 308.287 283.871 373.291 284.424 c 1
  Spiro
    373.291 284.424 v
    373.047 224.609 v
    341.163 224.027 o
    309.19 223.188 o
    277.344 221.68 o
    260.029 220.344 o
    242.743 218.276 o
    225.677 215.169 o
    208.895 210.663 o
    192.667 204.381 o
    177.49 196.045 o
    166.655 187.925 o
    157.037 178.359 o
    149.044 167.472 o
    143.014 155.364 o
    139.227 142.347 o
    137.939 128.906 o
    139.478 114.669 o
    143.892 100.993 o
    150.928 88.5073 o
    160.28 77.6694 o
    171.509 68.6885 o
    184.082 61.7676 o
    206.924 54.8296 o
    230.928 53.0703 o
    254.883 55.6641 o
    280.622 62.6113 o
    305.204 73.2065 o
    328.125 86.9141 o
    339.828 95.5684 o
    350.936 105.043 o
    361.328 115.234 v
    363.281 49.8047 v
    343.804 33.9338 o
    322.686 20.1825 o
    300.293 8.78906 o
    266.165 -3.31766 o
    230.485 -9.99346 o
    194.336 -10.7422 o
    161.748 -5.69839 o
    130.708 5.43525 o
    103.027 22.9492 o
    76.9678 51.9385 o
    60.3667 87.3828 o
    54.6875 125.977 o
    59.1265 158.97 o
    71.6221 189.946 o
    91.3086 216.797 o
    117.318 238.291 o
    147.423 254.154 o
    179.688 265.137 o
    243.266 277.532 o
    308.219 282.944 o
    0 0 z
  EndSpiro
83.0078 458.984 m 1
 97.0781 464.289 111.43 468.848 125.977 472.656 c 0
 166.09 483.157 207.561 488.369 249.023 488.77 c 0
 270.926 488.979 292.926 487.684 314.379 483.267 c 0
 335.832 478.85 356.768 471.121 375 458.984 c 0
 398.006 443.67 416.074 421.065 425.788 395.191 c 0
 435.502 369.316 436.523 341.114 436.523 313.477 c 2
 436.523 0 l 1
 375.977 0 l 1
 355.469 50.7812 l 1
 354.98 287.598 l 2
 354.955 299.782 355.062 311.98 354.235 324.137 c 0
 353.408 336.293 351.488 348.471 347.168 359.863 c 0
 340.842 376.544 329.034 391.057 314.019 400.689 c 0
 299.003 410.322 281.373 415.26 263.672 417.48 c 0
 219.076 423.074 173.742 416.07 129.883 406.25 c 0
 114.08 402.712 98.4336 398.479 83.0078 393.555 c 1
 83.0078 458.984 l 1
  Spiro
    83.0078 458.984 v
    97.1548 464.036 o
    111.513 468.603 o
    125.977 472.656 o
    166.451 481.405 o
    207.649 486.751 o
    249.023 488.77 o
    270.913 488.418 o
    292.789 486.701 o
    314.379 483.267 o
    335.558 477.712 o
    355.967 469.683 o
    375 458.984 o
    396.214 441.408 o
    413.431 419.803 o
    425.788 395.191 o
    432.884 368.675 o
    435.9 341.167 o
    436.523 313.477 [
    436.523 0 v
    375.977 0 v
    355.469 50.7812 v
    354.98 287.598 ]
    354.96 299.772 o
    354.791 311.981 o
    354.235 324.137 o
    352.998 336.258 o
    350.734 348.251 o
    347.168 359.863 o
    339.109 375.706 o
    327.868 389.543 o
    314.019 400.689 o
    298.242 408.823 o
    281.238 414.285 o
    263.672 417.48 o
    218.957 419.239 o
    174.107 414.762 o
    129.883 406.25 o
    114.15 402.484 o
    98.4897 398.244 o
    83.0078 393.555 v
    0 0 z
  EndSpiro
EndSplineSet
EndChar

StartChar: d
Encoding: 100 100 1
Width: 548
VWidth: 1023
Flags: HMW
HStem: 0 73 408 73 651 20
VStem: 50 85<138 347> 414 83<79 415 471 671>
AnchorPoint: "aboveright" 548 669.265 basechar 0
AnchorPoint: "cedilla" 290 0 basechar 0
AnchorPoint: "below" 290 0 basechar 0
AnchorPoint: "above" 290 670 basechar 0
LayerCount: 4
Back
SplineSet
401.2265625 737.79296875 m 5
 481.3046875 737.79296875 l 5
 481.3046875 0 l 5
 425.640625 0 l 5
 401.2265625 56.15234375 l 5
 401.2265625 737.79296875 l 5
  Spiro
    401.227 737.793 v
    481.305 737.793 v
    481.305 0 v
    425.641 0 v
    401.227 56.1523 v
    0 0 z
  EndSpiro
311.87109375 490.72265625 m 4
 339.368164062 487.834960938 366.385742188 480.747070312 391.94921875 470.21484375 c 4
 406.634765625 464.1640625 420.849609375 456.970703125 434.4296875 448.73046875 c 5
 408.061523438 402.83203125 l 5
 392.65625 410.051757812 376.6328125 415.961914062 360.2109375 420.41015625 c 4
 329.111328125 428.833984375 296.2734375 432.14453125 264.5078125 426.7578125 c 4
 243.642578125 423.21875 223.35546875 415.787109375 205.623046875 404.235351562 c 4
 187.890625 392.68359375 172.889648438 377.014648438 161.96875 358.88671875 c 4
 141.716796875 325.26953125 135.606445312 284.8515625 135.6015625 245.60546875 c 4
 135.596679688 207.990234375 141.029296875 169.515625 158.55078125 136.23046875 c 4
 172.21484375 110.2734375 193.642578125 88.3984375 219.5859375 74.70703125 c 4
 248.08984375 59.6640625 281.21875 54.44140625 313.3359375 57.12890625 c 4
 362.22265625 61.21875 409.162109375 82.517578125 446.1484375 114.74609375 c 5
 464.703125 69.3359375 l 5
 415.938476562 23.8525390625 351.592773438 -5.4873046875 285.015625 -9.27734375 c 4
 249.724609375 -11.2861328125 213.8046875 -5.857421875 181.434570312 8.3427734375 c 4
 149.064453125 22.5439453125 120.681640625 45.724609375 100.4453125 74.70703125 c 4
 68.298828125 120.74609375 57.185546875 178.711914062 57.4765625 234.86328125 c 4
 57.64453125 267.123046875 61.455078125 299.471679688 70.328125 330.487304688 c 4
 79.2001953125 361.502929688 93.55078125 391.162109375 114.1171875 416.015625 c 4
 135.88671875 442.32421875 164.46875 462.842773438 196.1484375 475.5859375 c 4
 232.599609375 490.249023438 272.795898438 494.82421875 311.87109375 490.72265625 c 4
  Spiro
    311.871 490.723 o
    391.949 470.215 o
    434.43 448.73 v
    408.062 402.832 v
    360.211 420.41 o
    264.508 426.758 o
    161.969 358.887 o
    135.602 245.605 o
    158.551 136.23 o
    219.586 74.707 o
    313.336 57.1289 o
    446.148 114.746 v
    464.703 69.3359 v
    285.016 -9.27734 o
    100.445 74.707 o
    57.4766 234.863 o
    114.117 416.016 o
    196.148 475.586 o
    0 0 z
  EndSpiro
EndSplineSet
Fore
SplineSet
291 59 m 0
 340 59 366 70 400 89 c 1
 400 407 l 1
 365 422 330 428 292 428 c 0
 185 428 135 350 135 243 c 0
 135 135 185 59 291 59 c 0
273 -9 m 0
 125 -9 50 92 50 236 c 0
 50 319 73 384 119 430 c 0
 163 473 218 494 284 494 c 0
 323 494 362 487 400 471 c 1
 400 670 l 1
 483 670 l 1
 483 0 l 1
 424 0 l 1
 410 34 l 1
 367 6 321 -9 273 -9 c 0
EndSplineSet
Layer: 3
SplineSet
400.0546875 54.638671875 m 1
 423.78515625 0.5859375 l 1
 482.671875 0.5859375 l 1
 482.671875 670.751953125 l 1
 400.0546875 670.751953125 l 1
 400.0546875 54.638671875 l 1
406.20703125 468.1640625 m 1
 366.216796875 485.7421875 328.86328125 494.53125 284.0390625 494.53125 c 0
 155.71875 494.53125 49.810546875 406.201171875 49.810546875 236.572265625 c 0
 49.810546875 92.87109375 130.23046875 -9.08203125 269.09765625 -9.08203125 c 0
 329.302734375 -9.08203125 376.763671875 10.25390625 416.314453125 38.37890625 c 1
 416.314453125 38.37890625 406.646484375 92.431640625 406.20703125 92.87109375 c 1
 372.369140625 73.53515625 342.046875 58.59375 291.0703125 58.59375 c 0
 187.798828125 58.59375 134.625 131.982421875 134.625 243.1640625 c 0
 134.625 355.6640625 191.75390625 429.931640625 291.94921875 429.931640625 c 0
 342.046875 429.931640625 370.611328125 420.703125 406.20703125 404.443359375 c 1
 406.20703125 468.1640625 l 1
EndSplineSet
EndChar

StartChar: e
Encoding: 101 101 2
Width: 527
VWidth: 1023
Flags: HMW
HStem: 0 73 217 73 408 73
VStem: 55 75<139 218 281 352> 391 75<281 374>
AnchorPoint: "cedilla" 268 0 basechar 0
AnchorPoint: "below" 268 0 basechar 0
AnchorPoint: "above" 268 482 basechar 0
LayerCount: 4
Back
SplineSet
284.57421875 421.875 m 4
 257.783203125 423.77734375 230.12890625 418.16015625 207.42578125 403.80859375 c 4
 188.400390625 391.783203125 173.475585938 373.920898438 162.9921875 354.00390625 c 4
 148.502929688 326.4765625 141.485351562 295.264648438 141.01953125 264.16015625 c 5
 392.97265625 264.16015625 l 5
 393.53515625 284.587890625 392.348632812 305.111328125 388.578125 325.1953125 c 4
 384.662109375 346.0546875 377.42578125 366.728515625 364.1640625 383.30078125 c 4
 354.680664062 395.150390625 342.298828125 404.596679688 328.524414062 410.970703125 c 4
 314.750976562 417.34375 299.712890625 420.799804688 284.57421875 421.875 c 4
  Spiro
    284.574 421.875 o
    207.426 403.809 o
    162.992 354.004 o
    141.02 264.16 v
    392.973 264.16 v
    388.578 325.195 o
    364.164 383.301 o
    0 0 z
  EndSpiro
287.9921875 491.69921875 m 4
 311.915039062 492.065429688 336.01171875 488.857421875 358.57421875 480.900390625 c 4
 381.138671875 472.943359375 402.01953125 459.999023438 418.58984375 442.740234375 c 4
 444.42578125 415.830078125 458.568359375 379.48046875 464.94921875 342.7265625 c 4
 470.198242188 312.49609375 470.609375 281.659179688 470.609375 250.9765625 c 6
 470.609375 203.61328125 l 5
 139.06640625 203.61328125 l 5
 141.374023438 171.953125 153.876953125 141.154296875 174.111328125 116.696289062 c 4
 192.350585938 94.6513671875 216.659179688 77.86328125 243.364257812 67.5927734375 c 4
 267.318359375 58.380859375 293.08984375 54.349609375 318.75390625 54.19921875 c 4
 331.284179688 54.125 343.811523438 54.9345703125 356.259765625 56.365234375 c 4
 368.77734375 57.8037109375 381.220703125 59.865234375 393.552734375 62.453125 c 4
 405.85546875 65.03515625 418.045898438 68.150390625 430.08203125 71.77734375 c 5
 444.2421875 17.08984375 l 5
 427.677734375 11.388671875 410.82421875 6.5244140625 393.765625 2.5439453125 c 4
 376.708007812 -1.4365234375 359.440429688 -4.52734375 342.048828125 -6.607421875 c 4
 324.76171875 -8.6748046875 307.35546875 -9.7578125 289.9453125 -9.765625 c 4
 248.619140625 -9.7841796875 206.516601562 -3.767578125 169.533203125 14.671875 c 4
 135.3671875 31.705078125 106.91015625 59.689453125 88.7890625 93.291015625 c 4
 67.8251953125 132.1640625 59.955078125 177.02734375 59.4765625 221.19140625 c 4
 58.8623046875 277.830078125 69.56640625 335.740234375 98.359375 384.518554688 c 4
 119.482421875 420.302734375 150.94921875 449.998046875 188.267578125 468.275390625 c 4
 219.177734375 483.416015625 253.577148438 491.171875 287.9921875 491.69921875 c 4
  Spiro
    287.992 491.699 o
    418.589 442.74 o
    464.95 342.726 o
    470.609 250.977 [
    470.609 203.613 v
    139.066 203.613 v
    174.112 116.696 o
    243.364 67.5928 o
    318.754 54.1992 o
    356.26 56.3652 o
    393.552 62.4536 o
    430.082 71.7773 v
    444.242 17.0898 v
    393.765 2.54377 o
    342.049 -6.60708 o
    289.945 -9.76562 o
    169.533 14.6714 o
    88.7891 93.2905 o
    59.4766 221.191 o
    98.359 384.519 o
    188.268 468.276 o
    0 0 z
  EndSpiro
EndSplineSet
Fore
SplineSet
274 490 m 0
 401 490 472 409 472 270 c 2
 472 226 l 1
 467 218 l 1
 139 218 l 1
 142 172 158 134 186 104 c 128
 214 74 259 60 320 60 c 0
 362 60 406 67 453 82 c 1
 453 17 l 1
 404 0 352 -9 298 -9 c 0
 141 -9 55 77 55 233 c 0
 55 305 74 365 111 415 c 1
 150 465 204 490 274 490 c 0
390 281 m 1
 390 360 356 425 281 425 c 128
 191 425 150 358 141 281 c 1
 390 281 l 1
EndSplineSet
Layer: 3
SplineSet
469.373046875 217.603515625 m 1
 473.6796875 226.217773438 l 1
 473.6796875 270.146484375 l 2
 473.6796875 396.330078125 415.109375 490.21484375 276.004882812 490.21484375 c 0
 133.025390625 490.21484375 56.796875 375.228515625 56.796875 233.108398438 c 0
 56.796875 81.9453125 137.331054688 -9.35546875 300.123046875 -9.35546875 c 0
 355.247070312 -9.35546875 405.634765625 -0.7421875 455.162109375 16.484375 c 1
 455.162109375 81.9453125 l 1
 415.970703125 69.4560546875 371.612304688 59.55078125 321.655273438 59.55078125 c 0
 195.470703125 59.55078125 140.345703125 130.610351562 140.345703125 237.416015625 c 0
 140.345703125 339.482421875 185.134765625 424.75390625 274.712890625 424.75390625 c 0
 356.970703125 424.75390625 391.853515625 364.891601562 391.853515625 280.912109375 c 1
 133.025390625 280.912109375 l 1
 133.025390625 217.603515625 l 1
 469.373046875 217.603515625 l 1
EndSplineSet
EndChar

StartChar: h
Encoding: 104 104 3
Width: 525
VWidth: 1023
Flags: HMW
HStem: 0 73 408 73
VStem: 65 83<0 400 452 670> 395 82<0 395>
AnchorPoint: "cedilla" 267 0 basechar 0
AnchorPoint: "below" 267 0 basechar 0
AnchorPoint: "above" 267 670 basechar 0
LayerCount: 4
Back
SplineSet
116.328125 407.71484375 m 5
 168.1953125 444.5 226.329101562 473.907226562 288.69140625 486.328125 c 4
 326.135742188 493.784179688 365.896484375 494.00390625 401.565429688 480.387695312 c 4
 437.234375 466.76953125 466.885742188 438.359375 482.05078125 403.3203125 c 4
 491.853515625 380.671875 496.049804688 355.958007812 497.700195312 331.334960938 c 4
 499.345703125 306.711914062 498.837890625 282.001953125 498.65234375 257.32421875 c 6
 496.69921875 0 l 5
 416.62109375 0 l 5
 416.1328125 290.52734375 l 6
 416.109375 304.670898438 415.98828125 318.880859375 413.688476562 332.8359375 c 4
 411.38671875 346.791015625 406.864257812 360.46484375 399.53125 372.55859375 c 4
 387.553710938 392.311523438 368 407.103515625 346.021484375 414.220703125 c 4
 324.044921875 421.337890625 300.245117188 421.29296875 277.4609375 417.48046875 c 4
 226.07421875 408.881835938 178.32421875 384.9453125 134.39453125 356.93359375 c 5
 116.328125 407.71484375 l 5
  Spiro
    116.328 407.715 v
    288.691 486.328 o
    482.051 403.32 o
    498.652 257.324 [
    496.699 0 v
    416.621 0 v
    416.133 290.527 ]
    399.531 372.559 o
    277.461 417.48 o
    134.395 356.934 v
    0 0 z
  EndSpiro
97.7734375 737.79296875 m 5
 177.8515625 737.79296875 l 5
 177.8515625 0 l 5
 97.7734375 0 l 5
 97.7734375 737.79296875 l 5
  Spiro
    97.7734 737.793 v
    177.852 737.793 v
    177.852 0 v
    97.7734 0 v
    0 0 z
  EndSpiro
EndSplineSet
Fore
SplineSet
384 310 m 2
 384 390 357 427 278 427 c 128
 240 427 197 415 148 391 c 1
 148 0 l 1
 65 0 l 1
 65 670 l 1
 148 670 l 1
 148 452 l 1
 206 481 259 496 309 496 c 128
 410 496 465 431 465 329 c 2
 465 0 l 1
 384 0 l 1
 384 310 l 2
EndSplineSet
Layer: 3
SplineSet
95.44921875 670.522460938 m 1
 95.44921875 0.423828125 l 1
 178.05859375 0.423828125 l 1
 178.05859375 670.522460938 l 1
 95.44921875 670.522460938 l 1
172.346679688 388.421875 m 1
 220.681640625 412.58984375 272.970703125 426.651367188 310.3203125 426.651367188 c 0
 384.140625 426.651367188 413.58203125 391.938476562 413.58203125 309.328125 c 2
 413.58203125 0.423828125 l 1
 495.311523438 0.423828125 l 1
 495.311523438 329.102539062 l 2
 495.311523438 431.484375 443.021484375 496.079101562 333.609375 496.079101562 c 0
 283.078125 496.079101562 228.151367188 478.940429688 166.1953125 445.984375 c 1
 172.346679688 388.421875 l 1
EndSplineSet
EndChar

StartChar: i
Encoding: 105 105 4
Width: 212
VWidth: 1023
Flags: HW
HStem: 0 21G<65 147> 463 20G<65 147> 586 83<65 147>
VStem: 65 82<0 483 586 669>
AnchorPoint: "cedilla" 106 0 basechar 0
AnchorPoint: "above" 106 670 basechar 0
AnchorPoint: "below" 106 0 basechar 0
LayerCount: 4
Back
SplineSet
85.56640625 693.84765625 m 5xf0
 180.29296875 693.84765625 l 5
 180.29296875 601.561523438 l 5
 85.56640625 601.561523438 l 5
 85.56640625 693.84765625 l 5xf0
  Spiro
    85.5664 693.848 v
    180.293 693.848 v
    180.293 601.562 v
    85.5664 601.562 v
    0 0 z
  EndSpiro
92.890625 482.421875 m 5xe8
 172.96875 482.421875 l 5
 172.96875 0 l 5
 92.890625 0 l 5
 92.890625 482.421875 l 5xe8
  Spiro
    92.8906 482.422 v
    172.969 482.422 v
    172.969 0 v
    92.8906 0 v
    0 0 z
  EndSpiro
EndSplineSet
Fore
SplineSet
65 482 m 1
 147 482 l 1
 147 0 l 1
 65 0 l 1
 65 482 l 1
65 670 m 1
 147 670 l 1
 147 587 l 1
 65 587 l 1
 65 670 l 1
EndSplineSet
Layer: 3
SplineSet
89.8056640625 669.594726562 m 1
 172.400390625 669.594726562 l 1
 172.400390625 586.561523438 l 1
 89.8056640625 586.561523438 l 1
 89.8056640625 669.594726562 l 1
89.8056640625 482.879882812 m 1
 172.400390625 482.879882812 l 1
 172.400390625 -0.3876953125 l 1
 89.8056640625 -0.3876953125 l 1
 89.8056640625 482.879882812 l 1
EndSplineSet
EndChar

StartChar: n
Encoding: 110 110 5
Width: 520
VWidth: 1023
Flags: MW
HStem: 0 21G<65 147 384 465> 408 73<197.811 353.727>
VStem: 65 82<0 397.048> 384 81<0 392.318>
AnchorPoint: "cedilla" 267 0 basechar 0
AnchorPoint: "below" 267 0 basechar 0
AnchorPoint: "above" 267 482 basechar 0
LayerCount: 4
Back
SplineSet
111.4453125 407.71484375 m 5
 163.311523438 444.5 221.446289062 473.907226562 283.80859375 486.328125 c 4
 321.252929688 493.784179688 361.013671875 494.00390625 396.682617188 480.387695312 c 4
 432.3515625 466.76953125 462.002929688 438.359375 477.16796875 403.3203125 c 4
 486.97265625 380.671875 491.166992188 355.958007812 492.817382812 331.334960938 c 4
 494.462890625 306.711914062 493.955078125 282.001953125 493.76953125 257.32421875 c 6
 491.81640625 0 l 5
 411.73828125 0 l 5
 411.25 290.52734375 l 6
 411.2265625 304.670898438 411.10546875 318.880859375 408.8046875 332.8359375 c 4
 406.50390625 346.791015625 401.981445312 360.46484375 394.6484375 372.55859375 c 4
 382.670898438 392.311523438 363.1171875 407.103515625 341.138671875 414.220703125 c 4
 319.162109375 421.337890625 295.362304688 421.29296875 272.578125 417.48046875 c 4
 221.19140625 408.881835938 173.44140625 384.9453125 129.51171875 356.93359375 c 5
 111.4453125 407.71484375 l 5
  Spiro
    111.445 407.715 v
    283.809 486.328 o
    477.168 403.32 o
    493.77 257.324 [
    491.816 0 v
    411.738 0 v
    411.25 290.527 ]
    394.648 372.559 o
    272.578 417.48 o
    129.512 356.934 v
    0 0 z
  EndSpiro
92.890625 482.421875 m 5
 149.04296875 482.421875 l 5
 172.96875 426.26953125 l 5
 172.96875 0 l 5
 92.890625 0 l 5
 92.890625 482.421875 l 5
  Spiro
    92.8906 482.422 v
    149.043 482.422 v
    172.969 426.27 v
    172.969 0 v
    92.8906 0 v
    0 0 z
  EndSpiro
EndSplineSet
Fore
SplineSet
280 423 m 0
 242 423 196 411 147 388 c 1
 147 0 l 1
 65 0 l 1
 65 482 l 1
 122 482 l 1
 138 444 l 1
 199 476 258 492 309 492 c 0
 360 492 398 477 425 448 c 0
 452 419 465 379 465 327 c 2
 465 0 l 1
 384 0 l 1
 384 307 l 2
 384 348 376 378 360 396 c 0
 344 414 318 423 280 423 c 0
EndSplineSet
Layer: 3
SplineSet
170.724609375 385.341796875 m 1
 218.728515625 409.34375 270.661132812 423.30859375 307.755859375 423.30859375 c 0
 381.0703125 423.30859375 410.309570312 388.83203125 410.309570312 306.790039062 c 2
 410.309570312 0 l 1
 491.48046875 0 l 1
 491.48046875 326.427734375 l 2
 491.48046875 428.109375 439.547851562 492.260742188 330.884765625 492.260742188 c 0
 280.698242188 492.260742188 226.1484375 475.240234375 164.615234375 442.509765625 c 1
 170.724609375 385.341796875 l 1
151.087890625 480.041015625 m 1
 94.35546875 480.041015625 l 1
 94.35546875 0 l 1
 176.3984375 0 l 1
 176.3984375 423.744140625 l 1
 151.087890625 480.041015625 l 1
EndSplineSet
EndChar

StartChar: o
Encoding: 111 111 6
Width: 574
VWidth: 1023
Flags: HW
HStem: -10 65<213.564 361.779> 426 64<212.067 360.238>
VStem: 55 83<137.066 343.078> 436 83<137.24 343.792>
AnchorPoint: "cedilla" 294 0 basechar 0
AnchorPoint: "below" 294 0 basechar 0
AnchorPoint: "above" 294 482 basechar 0
LayerCount: 4
Back
SplineSet
300.50390625 423.33984375 m 4
 226.7734375 423.33984375 150.6015625 364.2578125 150.6015625 249.51171875 c 4
 150.6015625 144.53125 213.58984375 58.59375 308.31640625 58.59375 c 4
 392.30078125 58.59375 458.70703125 128.41796875 458.70703125 234.86328125 c 4
 458.70703125 358.88671875 377.1640625 423.33984375 300.50390625 423.33984375 c 4
307.33984375 491.69921875 m 4
 435.7578125 491.69921875 536.83203125 406.25 536.83203125 250.9765625 c 4
 536.83203125 89.35546875 437.22265625 -9.765625 299.52734375 -9.765625 c 4
 168.66796875 -9.765625 72.4765625 81.54296875 72.4765625 235.83984375 c 4
 72.4765625 393.06640625 168.1796875 491.69921875 307.33984375 491.69921875 c 4
EndSplineSet
Fore
SplineSet
287 426 m 0
 190 426 138 342 138 240 c 0
 138 138 189 55 287 55 c 0
 386 55 436 137 436 240 c 0
 436 343 385 426 287 426 c 0
285 -10 m 0
 137 -10 55 90 55 240 c 0
 55 391 140 490 288 490 c 0
 437 490 519 392 519 241 c 0
 519 91 433 -10 285 -10 c 0
EndSplineSet
Layer: 3
SplineSet
70.517578125 240.408203125 m 0
 70.517578125 84.22265625 155.943359375 -9.8330078125 302.20703125 -9.8330078125 c 0
 445.87890625 -9.8330078125 535.19140625 86.380859375 535.19140625 240.408203125 c 0
 535.19140625 396.162109375 449.762695312 490.219726562 303.931640625 490.219726562 c 0
 159.828125 490.219726562 70.517578125 394.005859375 70.517578125 240.408203125 c 0
153.787109375 240.408203125 m 0
 153.787109375 352.154296875 212.46484375 425.93359375 303.068359375 425.93359375 c 0
 394.10546875 425.93359375 451.919921875 352.154296875 451.919921875 240.408203125 c 0
 451.919921875 128.231445312 394.10546875 54.453125 303.068359375 54.453125 c 0
 212.46484375 54.453125 153.787109375 128.231445312 153.787109375 240.408203125 c 0
EndSplineSet
EndChar

StartChar: s
Encoding: 115 115 7
Width: 456
VWidth: 1023
Flags: MW
HStem: 0 73<78.3388 296.562> 408 73<261.506 380>
VStem: 45.7998 85 325.8 85
LayerCount: 4
Back
SplineSet
288.086 491.699 m 4
 350.586 491.699 375.977 482.422 410.645 472.168 c 5
 390.137 411.133 l 5
 358.398 419.922 323.73 429.199 274.902 429.199 c 4
 173.34 429.199 158.203 375.977 158.203 354.492 c 4
 158.203 268.066 437.5 288.574 437.5 138.184 c 4
 437.5 77.6367 398.926 -9.76562 227.539 -9.76562 c 4
 191.406 -9.76562 133.789 -1.95312 63.4766 26.8555 c 5
 85.9375 87.4023 l 5
 150.391 63.4766 188.965 53.2227 230.957 53.2227 c 4
 289.062 53.2227 350.098 65.918 350.098 128.906 c 4
 350.098 221.191 75.1953 184.57 75.1953 346.191 c 4
 75.1953 400.391 119.629 491.699 288.086 491.699 c 4
EndSplineSet
Fore
SplineSet
215 58 m 0
 268 58 321 77 321 125 c 0
 321 144 312 158 293 171 c 0
 277 182 252.272460938 193.607421875 228 203 c 2
 152.799804688 232.099609375 l 1
 113.799804688 250.099609375 48.853515625 274.583007812 48.853515625 350.362304688 c 0
 48.853515625 416.627929688 92.265625 449.907226562 140 469 c 0
 172.211914062 481.018554688 207.201171875 487.61328125 245.2890625 487.029296875 c 0
 305.799804688 486.099609375 335.799804688 472.93359375 380 452 c 1
 380 385 l 1
 357.5 395.211914062 314.5 423 252 423 c 0
 208.5 423 174 416 148 392 c 0
 137 382 132 371 132 361 c 0
 132 332 144 324 161 313 c 0
 168 308 182.9140625 299.750976562 205 292 c 2
 278.799804688 265.099609375 l 2
 344.78125 241.048828125 361 225 379 205 c 0
 400.28515625 181.532226562 406.741210938 159.021484375 406.741210938 127.595703125 c 0
 406.741210938 101.442382812 398.805664062 75.3486328125 382 54 c 0
 349 12 296 -10 222 -10 c 0
 148 -10 89 -1 45 18 c 1
 45 91 l 1
 99 70 156 58 215 58 c 0
EndSplineSet
Layer: 3
SplineSet
270.707 491.177 m 0
 320.393 491.177 367.463 482.459 407.123 471.128 c 1
 407.123 404.445 l 1
 370.514 414.471 312.548 424.059 268.094 424.059 c 0
 212.742 424.059 158.699 404.881 158.699 359.555 c 0
 158.699 318.586 212.742 302.896 274.631 280.233 c 0
 353.516 251.469 433.709 222.268 433.709 130.308 c 0
 433.709 39.2188 353.516 -9.59473 241.943 -9.59473 c 0
 187.464 -9.59473 119.91 -1.75 72.4043 18.2979 c 1
 72.4043 90.6465 l 1
 126.447 69.291 185.721 58.3955 242.379 58.3955 c 0
 305.139 58.3955 347.414 82.3652 347.414 124.643 c 0
 347.414 174.326 284.219 194.375 215.793 219.653 c 0
 137.779 248.418 75.8906 272.824 75.8906 353.453 c 0
 75.8906 460.668 187.464 491.177 270.707 491.177 c 0
EndSplineSet
EndChar

StartChar: bar
Encoding: 124 124 8
Width: 431
VWidth: 1023
Flags: HW
VStem: 176 80<-150 782>
LayerCount: 4
Fore
SplineSet
256 782 m 5
 256 -150 l 1
176 782 m 1
 256 782 l 1
 256 -150 l 1
 176 -150 l 1
 176 782 l 1
EndSplineSet
Layer: 3
SplineSet
175.781 781.738 m 5
 255.859 781.738 l 5
 255.859 -150.391 l 5
 175.781 -150.391 l 5
 175.781 781.738 l 5
255.859 781.738 m 5
 255.859 -150.391 l 5
EndSplineSet
EndChar

StartChar: b
Encoding: 98 98 9
Width: 548
VWidth: 1023
Flags: HMW
HStem: 0 73<176.849 341.916> 408 73<151.423 339.129> 651 20
VStem: 65 85<77.1611 89 407 415.828> 413 85<137.983 349.728>
AnchorPoint: "cedilla" 262 0 basechar 0
AnchorPoint: "below" 262 0 basechar 0
AnchorPoint: "above" 262 670 basechar 0
LayerCount: 4
Back
SplineSet
92.7734 737.793 m 1
 172.852 737.793 l 1
 172.852 56.1523 l 1
 148.438 0 l 1
 92.7734 0 l 1
 92.7734 737.793 l 1
  Spiro
    172.852 737.793 v
    172.852 56.1523 v
    148.438 0 v
    92.7734 0 v
    92.7734 737.793 v
    0 0 z
  EndSpiro
287.109 491.699 m 0
 322.421 493.809 358.394 488.486 390.795 474.289 c 0
 423.195 460.093 451.554 436.807 471.68 407.715 c 0
 499.995 366.788 511.777 316.311 514.16 266.602 c 0
 515.854 231.195 513.115 195.452 504.463 161.078 c 0
 495.806 126.703 480.646 93.6836 458.008 66.4062 c 0
 436.202 40.1318 407.646 19.5957 375.977 6.83594 c 0
 339.532 -7.84766 299.33 -12.4111 260.254 -8.30078 c 0
 232.758 -5.4082 205.74 1.67676 180.176 12.207 c 0
 165.489 18.2568 151.273 25.4502 137.695 33.6914 c 1
 164.062 79.5898 l 1
 179.473 72.3799 195.494 66.4688 211.914 62.0117 c 0
 243.012 53.5703 275.857 50.2266 307.617 55.6641 c 0
 328.467 59.2334 348.721 66.7168 366.436 78.2764 c 0
 384.15 89.8359 399.168 105.461 410.156 123.535 c 0
 423.744 145.887 431.102 171.624 434.242 197.594 c 0
 437.383 223.562 436.848 249.924 433.594 275.879 c 0
 430.547 300.183 424.756 324.398 413.574 346.191 c 0
 400.171 372.314 378.576 394.146 352.539 407.715 c 0
 323.973 422.604 290.901 427.854 258.789 425.293 c 0
 209.857 421.393 162.78 400.156 125.977 367.676 c 1
 107.422 413.086 l 1
 156.338 458.37 220.569 487.724 287.109 491.699 c 0
  Spiro
    287.109 491.699 o
    471.68 407.715 o
    514.16 266.602 o
    458.008 66.4062 o
    375.977 6.83594 o
    260.254 -8.30078 o
    180.176 12.207 o
    137.695 33.6914 v
    164.062 79.5898 v
    211.914 62.0117 o
    307.617 55.6641 o
    410.156 123.535 o
    433.594 275.879 o
    413.574 346.191 o
    352.539 407.715 o
    258.789 425.293 o
    125.977 367.676 v
    107.422 413.086 v
    0 0 z
  EndSpiro
EndSplineSet
Fore
SplineSet
257 59 m 0
 208 59 182 70 148 89 c 1
 148 406 l 1
 183 421 218 428 256 428 c 0
 361 428 413 351 413 243 c 0
 413 135 363 59 257 59 c 0
275 -9 m 0
 423 -9 498 92 498 236 c 0
 498 319 475 384 429 430 c 0
 385 473 330 494 264 494 c 0
 225 494 186 487 148 471 c 1
 148 670 l 1
 65 670 l 1
 65 0 l 1
 124 0 l 1
 138 34 l 1
 181 6 227 -9 275 -9 c 0
EndSplineSet
Layer: 3
Refer: 1 100 S -1 0 0 1 579.15 0 2
EndChar

StartChar: l
Encoding: 108 108 10
Width: 296
VWidth: 1023
Flags: MW
HStem: 0 21G<128.4 208.4> 651 20G<128.4 208.4>
VStem: 90.4004 80<0 671>
LayerCount: 4
Fore
SplineSet
228.646484375 65.2197265625 m 0
 247.646484375 65.2197265625 263.896484375 69.38671875 286 76 c 1
 286 14 l 1
 268.646484375 8 235.646484375 -10 189 -10 c 0
 126 -10 86 37 85 105 c 1
 85.400390625 671 l 1
 165.400390625 671 l 1
 165.146484375 134.219726562 l 2
 165.146484375 97 167.046875 65.2197265625 228.646484375 65.2197265625 c 0
EndSplineSet
Layer: 3
SplineSet
97.6562 670.898 m 5
 177.734 670.898 l 5
 177.734 0 l 1
 97.6562 0 l 1
 97.6562 670.898 l 5
EndSplineSet
EndChar

StartChar: w
Encoding: 119 119 11
Width: 806
VWidth: 1023
Flags: HW
HStem: 0 21G<189.697 279.598 521.555 616.303> 462 20G<21 112.485 359.614 451.139 693.515 785>
AnchorPoint: "cedilla" 404 0 basechar 0
AnchorPoint: "below" 404 0 basechar 0
AnchorPoint: "above" 404 482 basechar 0
LayerCount: 4
Fore
SplineSet
21 482 m 1
 106 482 l 1
 237 78 l 1
 366 482 l 1
 445 482 l 1
 569 78 l 1
 700 482 l 1
 785 482 l 1
 609 0 l 1
 528 0 l 1
 402 391 l 1
 273 0 l 1
 197 0 l 1
 21 482 l 1
EndSplineSet
Layer: 3
SplineSet
20.85546875 482.421875 m 21
 106.3046875 482.421875 l 13
 254.25390625 24.90234375 l 21
 220.561523438 24.90234375 l 5
 366.0703125 482.421875 l 13
 444.68359375 482.421875 l 21
 585.30859375 24.90234375 l 5
 551.6171875 24.90234375 l 13
 699.56640625 482.421875 l 29
 785.015625 482.421875 l 29
 608.74609375 0 l 29
 528.1796875 0 l 29
 386.08984375 441.89453125 l 21
 419.29296875 441.89453125 l 5
 272.80859375 0 l 13
 197.125 0 l 29
 20.85546875 482.421875 l 21
EndSplineSet
EndChar

StartChar: exclam
Encoding: 33 33 12
Width: 317
VWidth: 1023
Flags: HW
HStem: 0 98<110 208> 674 20G<117 200>
VStem: 110 98<0 98> 117 83<224 694>
LayerCount: 4
Fore
SplineSet
117 694 m 1xd0
 200 694 l 1
 200 224 l 1
 117 224 l 1
 117 694 l 1xd0
110 98 m 1xe0
 208 98 l 1
 208 0 l 1
 110 0 l 1
 110 98 l 1xe0
EndSplineSet
Layer: 3
SplineSet
109.863 97.6562 m 1
 207.52 97.6562 l 1
 207.52 0 l 1
 109.863 0 l 1
 109.863 97.6562 l 1
117.188 693.848 m 1
 200.195 693.848 l 1
 200.195 223.633 l 1
 117.188 223.633 l 1
 117.188 693.848 l 1
EndSplineSet
EndChar

StartChar: u
Encoding: 117 117 14
Width: 520
VWidth: 1023
Flags: HMW
HStem: 0 73 408 73
VStem: 71 81<88 480> 396 82<83 480>
AnchorPoint: "cedilla" 262 0 basechar 0
AnchorPoint: "below" 262 0 basechar 0
AnchorPoint: "above" 262 482 basechar 0
LayerCount: 4
Back
SplineSet
89.8438 482.422 m 5
 169.922 482.422 l 5
 170.41 191.406 l 6
 170.434 177.263 170.555 163.053 172.855 149.098 c 4
 175.156 135.143 179.679 121.469 187.012 109.375 c 4
 198.989 89.6211 218.543 74.8301 240.521 67.7129 c 4
 262.498 60.5957 286.298 60.6406 309.082 64.4531 c 4
 360.469 73.0518 408.219 96.9883 452.148 125 c 5
 470.215 74.2188 l 5
 418.348 37.4346 360.214 8.02637 297.852 -4.39453 c 4
 260.406 -11.8525 220.646 -12.0723 184.977 1.54492 c 4
 149.309 15.1631 119.656 43.5742 104.492 78.6133 c 4
 94.6904 101.262 90.4922 125.976 88.8438 150.599 c 4
 87.1963 175.222 87.7031 199.932 87.8906 224.609 c 6
 89.8438 482.422 l 5
  Spiro
    89.8438 482.422 v
    169.922 482.422 v
    170.41 191.406 ]
    187.012 109.375 o
    309.082 64.4531 o
    452.148 125 v
    470.215 74.2188 v
    297.852 -4.39453 o
    104.492 78.6133 o
    87.8906 224.609 [
    0 0 z
  EndSpiro
408.691 482.422 m 5
 488.77 482.422 l 5
 488.77 0 l 5
 432.617 0 l 5
 408.691 56.1523 l 5
 408.691 482.422 l 5
  Spiro
    408.691 482.422 v
    488.77 482.422 v
    488.77 0 v
    432.617 0 v
    408.691 56.1523 v
    0 0 z
  EndSpiro
EndSplineSet
Fore
SplineSet
146 173 m 2
 146 93 173 57 251 57 c 128
 289 57 334 69 383 92 c 1
 383 480 l 1
 465 480 l 1
 465 0 l 1
 408 0 l 1
 392 36 l 1
 331 4 273 -12 222 -12 c 128
 120 -12 65 51 65 153 c 2
 65 480 l 1
 146 480 l 1
 146 173 l 2
EndSplineSet
Layer: 3
Refer: 5 110 S -1 0 -0 -1 577.3 480.541 2
EndChar

StartChar: p
Encoding: 112 112 15
Width: 549
VWidth: 1023
Flags: HMW
HStem: -261 73 -13 64<154 339> 423 68<178 341>
VStem: 65 83<-261 11 66 404> 414 85<134 344>
AnchorPoint: "cedilla" 274 -261 basechar 0
AnchorPoint: "below" 274 -261 basechar 0
AnchorPoint: "above" 274 482 basechar 0
LayerCount: 4
Back
SplineSet
65.890625 482.421875 m 5x60
 121.5546875 482.421875 l 5
 145.96875 426.26953125 l 5
 145.96875 -259.27734375 l 5
 65.890625 -259.27734375 l 5
 65.890625 482.421875 l 5x60
  Spiro
    65.8906 482.422 v
    121.555 482.422 v
    145.969 426.27 v
    145.969 -259.277 v
    65.8906 -259.277 v
    0 0 z
  EndSpiro
262.1796875 491.2109375 m 4xa0
 297.490234375 493.315429688 333.4609375 487.986328125 365.859375 473.791015625 c 4
 398.259765625 459.59375 426.619140625 436.311523438 446.75 407.2265625 c 4
 475.075195312 366.3046875 486.876953125 315.825195312 489.23046875 266.11328125 c 4
 490.905273438 230.787109375 488.141601562 195.126953125 479.478515625 160.838867188 c 4
 470.811523438 126.549804688 455.666015625 93.6201171875 433.078125 66.40625 c 4
 411.271484375 40.1328125 382.716796875 19.5966796875 351.046875 6.8359375 c 4
 314.602539062 -7.8486328125 274.400390625 -12.412109375 235.32421875 -8.30078125 c 4
 207.828125 -5.408203125 180.810546875 1.6767578125 155.24609375 12.20703125 c 4
 140.559570312 18.2568359375 126.34375 25.4501953125 112.765625 33.69140625 c 5
 139.1328125 79.58984375 l 5
 154.54296875 72.3798828125 170.564453125 66.46875 186.984375 62.01171875 c 4
 218.08203125 53.5703125 250.927734375 50.2275390625 282.688476562 55.6640625 c 4
 303.537109375 59.232421875 323.791015625 66.7158203125 341.505859375 78.275390625 c 4
 359.220703125 89.8349609375 374.239257812 105.459960938 385.2265625 123.53515625 c 4
 398.771484375 145.817382812 406.123046875 171.466796875 409.272460938 197.3515625 c 4
 412.421875 223.236328125 411.901367188 249.515625 408.6640625 275.390625 c 4
 405.623046875 299.6953125 399.828125 323.911132812 388.64453125 345.703125 c 4
 375.239257812 371.82421875 353.64453125 393.65625 327.609375 407.2265625 c 4
 299.04296875 422.116210938 265.971679688 427.365234375 233.859375 424.8046875 c 4
 184.928710938 420.90234375 137.8515625 399.666015625 101.046875 367.188476562 c 5
 82.4921875 412.59765625 l 5
 131.400390625 457.891601562 195.637695312 487.244140625 262.1796875 491.2109375 c 4xa0
  Spiro
    262.18 491.211 o
    446.75 407.227 o
    489.23 266.113 o
    433.078 66.4062 o
    351.047 6.83594 o
    235.324 -8.30078 o
    155.246 12.207 o
    112.766 33.6914 v
    139.133 79.5898 v
    186.984 62.0117 o
    282.688 55.6641 o
    385.227 123.535 o
    408.664 275.391 o
    388.645 345.703 o
    327.609 407.227 o
    233.859 424.805 o
    101.047 367.188 v
    82.492 412.598 v
    0 0 z
  EndSpiro
EndSplineSet
Fore
SplineSet
257 423 m 0
 208 423 182 412 148 393 c 1
 148 75 l 1
 183 60 219 52 256 52 c 0
 359 52 414 132 414 239 c 0
 414 347 362 423 257 423 c 0
148 -261 m 1
 65 -261 l 1
 65 482 l 1
 124 482 l 1
 139 448 l 1
 182 476 227 491 275 491 c 0
 323 491 363 480 397 459 c 0
 464 416 499 346 499 246 c 0
 499 163 475 98 429 53 c 0
 385 10 330 -13 264 -13 c 0
 225 -13 186 -5 148 11 c 1
 148 -261 l 1
EndSplineSet
Layer: 3
SplineSet
148.166015625 427.34375 m 1
 124.435546875 481.396484375 l 1
 65.548828125 481.396484375 l 1
 65.548828125 -261.03515625 l 1
 148.166015625 -261.03515625 l 1
 148.166015625 427.34375 l 1
142.013671875 13.818359375 m 1
 182.00390625 -3.759765625 219.357421875 -12.548828125 264.181640625 -12.548828125 c 0
 392.501953125 -12.548828125 498.41015625 75.78125 498.41015625 245.41015625 c 0
 498.41015625 389.111328125 417.990234375 491.064453125 279.123046875 491.064453125 c 0
 218.91796875 491.064453125 171.45703125 471.728515625 131.90625 443.603515625 c 1
 131.90625 443.603515625 141.57421875 389.55078125 142.013671875 389.111328125 c 1
 175.8515625 408.447265625 206.173828125 423.388671875 257.150390625 423.388671875 c 0
 360.421875 423.388671875 413.595703125 350 413.595703125 238.818359375 c 0
 413.595703125 126.318359375 356.466796875 52.05078125 256.271484375 52.05078125 c 0
 206.173828125 52.05078125 177.609375 61.279296875 142.013671875 77.5390625 c 1
 142.013671875 13.818359375 l 1
EndSplineSet
EndChar

StartChar: q
Encoding: 113 113 16
Width: 559
VWidth: 1023
Flags: HMW
HStem: -13 65<214.871 400.861> 423 68<212.084 376.361>
VStem: 55 85<134.785 342.818> 406 83<-261 11 66.7342 403.769>
AnchorPoint: "cedilla" 300 -261 basechar 0
AnchorPoint: "below" 300 -261 basechar 0
AnchorPoint: "above" 300 482 basechar 0
LayerCount: 4
Back
SplineSet
323.3828125 489.74609375 m 4xa0
 351.157226562 485.537109375 377.869140625 475.94140625 403.4609375 464.35546875 c 4
 417.920898438 457.809570312 432.08203125 450.609375 445.94140625 442.87109375 c 5
 419.57421875 396.97265625 l 5
 403.955078125 403.688476562 387.989257812 409.607421875 371.72265625 414.55078125 c 4
 340.755859375 423.962890625 308.109375 429.994140625 276.01953125 425.78125 c 4
 254.962890625 423.017578125 234.45703125 415.67578125 216.76171875 403.9296875 c 4
 199.068359375 392.184570312 184.323242188 376.171875 173.48046875 357.91015625 c 4
 159.788085938 334.84765625 152.248046875 308.497070312 148.943359375 281.880859375 c 4
 145.637695312 255.265625 146.150390625 228.197265625 150.04296875 201.66015625 c 4
 153.368164062 178.986328125 159.448242188 156.540039062 170.061523438 136.23046875 c 4
 183.653320312 110.224609375 205.123046875 88.357421875 231.09765625 74.70703125 c 4
 259.623046875 59.716796875 292.732421875 54.4853515625 324.84765625 57.12890625 c 4
 373.75 61.154296875 420.736328125 82.431640625 457.66015625 114.74609375 c 5
 476.21484375 69.3359375 l 5
 427.228515625 24.146484375 363.049804688 -5.21484375 296.52734375 -9.27734375 c 4
 261.20703125 -11.4345703125 225.2109375 -6.1572265625 192.796875 8.0390625 c 4
 160.384765625 22.236328125 132.044921875 45.576171875 111.95703125 74.70703125 c 4
 84.626953125 114.341796875 72.681640625 162.900390625 69.4765625 210.938476562 c 4
 67.068359375 247.029296875 69.2470703125 283.580078125 77.845703125 318.715820312 c 4
 86.443359375 353.8515625 102.171875 387.50390625 125.62890625 415.0390625 c 4
 147.740234375 440.99609375 176.265625 461.302734375 207.66015625 474.609375 c 4
 243.9453125 489.990234375 284.41796875 495.649414062 323.3828125 489.74609375 c 4xa0
  Spiro
    323.383 489.746 o
    403.461 464.355 o
    445.941 442.871 v
    419.574 396.973 v
    371.723 414.551 o
    276.02 425.781 o
    173.48 357.91 o
    150.043 201.66 o
    170.062 136.23 o
    231.098 74.707 o
    324.848 57.1289 o
    457.66 114.746 v
    476.215 69.3359 v
    296.527 -9.27734 o
    111.957 74.707 o
    69.4766 210.938 o
    125.629 415.039 o
    207.66 474.609 o
    0 0 z
  EndSpiro
436.17578125 482.421875 m 5x60
 492.328125 482.421875 l 5
 492.328125 -259.27734375 l 5
 412.25 -259.27734375 l 5
 412.25 416.50390625 l 5
 436.17578125 482.421875 l 5x60
  Spiro
    436.176 482.422 v
    492.328 482.422 v
    492.328 -259.277 v
    412.25 -259.277 v
    412.25 416.504 v
    0 0 z
  EndSpiro
EndSplineSet
Fore
SplineSet
406 393 m 1
 372 412 346 423 297 423 c 0
 192 423 140 347 140 239 c 0
 140 132 194 52 298 52 c 0
 335 52 371 60 406 75 c 1
 406 393 l 1
290 -13 m 0
 224 -13 169 10 125 53 c 0
 79 98 55 163 55 246 c 0
 55 346 90 416 157 459 c 0
 191 480 231 491 279 491 c 0
 327 491 372 476 415 448 c 1
 430 481 l 1
 489 481 l 1
 489 -261 l 1
 406 -261 l 1
 406 11 l 1
 368 -5 329 -13 290 -13 c 0
EndSplineSet
Layer: 3
Refer: 15 112 S -1 0 0 1 582.221 0 2
EndChar

StartChar: m
Encoding: 109 109 17
Width: 793
VWidth: 1023
Flags: MW
HStem: 0 21G<65 147 354 435 647 728> 408 73<187.728 322.547 479.678 613.977>
VStem: 65 82<0 400.39> 354 81<0 382.34> 647 81<0 390.061>
AnchorPoint: "cedilla" 390 0 basechar 0
AnchorPoint: "below" 390 0 basechar 0
AnchorPoint: "above" 390 482 basechar 0
LayerCount: 4
Back
SplineSet
595.8203125 491.2109375 m 4xdc
 626.904296875 492.241210938 658.61328125 486.396484375 685.8203125 471.333007812 c 4
 713.032226562 456.26953125 734.799804688 431.848632812 747.188476562 403.3203125 c 4
 757.016601562 380.68359375 761.215820312 355.962890625 762.8515625 331.338867188 c 4
 764.4921875 306.71484375 763.974609375 282.002929688 763.7890625 257.32421875 c 6
 761.8359375 0 l 5
 681.7578125 0 l 5
 681.26953125 290.52734375 l 6
 681.245117188 304.671875 681.127929688 318.8828125 678.828125 332.838867188 c 4
 676.533203125 346.794921875 672.016601562 360.474609375 664.66796875 372.55859375 c 4
 656.147460938 386.563476562 643.837890625 398.232421875 629.384765625 405.96875 c 4
 614.931640625 413.705078125 598.53515625 417.516601562 582.1484375 417.96875 c 4
 550.302734375 418.84765625 519.326171875 407.77734375 490.3515625 394.53125 c 4
 465.908203125 383.357421875 442.2578125 370.509765625 419.061523438 356.93359375 c 5
 386.34765625 407.71484375 l 5
 406.153320312 421.8984375 426.865234375 434.826171875 448.359375 446.2890625 c 4
 494.086914062 470.67578125 544.0234375 489.497070312 595.8203125 491.2109375 c 4xdc
  Spiro
    595.82 491.211 o
    747.188 403.32 o
    763.789 257.324 [
    761.836 0 v
    681.758 0 v
    681.27 290.527 ]
    664.668 372.559 o
    582.148 417.969 o
    490.352 394.531 o
    419.062 356.934 v
    386.348 407.715 v
    448.359 446.289 o
    0 0 z
  EndSpiro
306.26953125 491.2109375 m 4
 336.67578125 492.836914062 367.8046875 486.654296875 394.068359375 471.247070312 c 4
 420.33203125 455.83984375 440.887695312 431.362304688 452.75390625 403.3203125 c 4
 462.3671875 380.599609375 466.576171875 355.919921875 468.287109375 331.30859375 c 4
 469.997070312 306.698242188 469.54296875 281.994140625 469.35546875 257.32421875 c 6
 467.40234375 0 l 5
 387.32421875 0 l 5
 386.8359375 290.52734375 l 6
 386.811523438 304.66796875 386.676757812 318.876953125 384.361328125 332.828125 c 4
 382.046875 346.77734375 377.532226562 360.446289062 370.234375 372.55859375 c 4
 362.173828125 385.936523438 350.733398438 397.279296875 337.201171875 405.078125 c 4
 323.66796875 412.876953125 308.192382812 417.096679688 292.59765625 417.96875 c 4
 260.733398438 419.750976562 229.668945312 408.138671875 200.80078125 394.53125 c 4
 176.495117188 383.07421875 152.900390625 370.162109375 129.51171875 356.93359375 c 5
 111.4453125 407.71484375 l 5
 131.5078125 421.517578125 152.16796875 434.46484375 173.45703125 446.2890625 c 4
 214.666015625 469.17578125 259.19921875 488.69140625 306.26953125 491.2109375 c 4
  Spiro
    306.27 491.211 o
    452.754 403.32 o
    469.355 257.324 [
    467.402 0 v
    387.324 0 v
    386.836 290.527 ]
    370.234 372.559 o
    292.598 417.969 o
    200.801 394.531 o
    129.512 356.934 v
    111.445 407.715 v
    173.457 446.289 o
    0 0 z
  EndSpiro
92.890625 482.421875 m 5xbc
 149.04296875 482.421875 l 5
 172.96875 426.26953125 l 5
 172.96875 0 l 5
 92.890625 0 l 5
 92.890625 482.421875 l 5xbc
  Spiro
    92.8906 482.422 v
    149.043 482.422 v
    172.969 426.27 v
    172.969 0 v
    92.8906 0 v
    0 0 z
  EndSpiro
EndSplineSet
Fore
SplineSet
647 307 m 2
 647 381 619 426 552 426 c 0
 518 426 477 411 430 383 c 1
 434 369 435 350 435 327 c 2
 435 0 l 1
 354 0 l 1
 354 307 l 2
 354 381 327 426 259 426 c 0
 228 426 190 413 147 389 c 1
 147 0 l 1
 65 0 l 1
 65 482 l 1
 122 482 l 1
 138 444 l 1
 171 465 198 477 218 483 c 0
 242 490 264 493 285 493 c 0
 342 493 384 466 409 430 c 1
 452 459 485 476 507 482 c 0
 532 489 556 493 578 493 c 0
 677 493 728 424 728 327 c 2
 728 0 l 1
 647 0 l 1
 647 307 l 2
EndSplineSet
Layer: 3
SplineSet
425.8984375 360.3515625 m 1
 445.1328125 374.96484375 465.75390625 387.758789062 487.421875 398.438476562 c 0
 502.01171875 405.62890625 517.065429688 411.9296875 532.568359375 416.85546875 c 0
 552.358398438 423.141601562 573.256835938 427.123046875 593.88671875 424.7734375 c 0
 607.6953125 423.201171875 621.215820312 418.7265625 632.993164062 411.35546875 c 0
 647.44140625 402.319335938 659.061523438 388.90625 666.147460938 373.41015625 c 0
 675.571289062 352.80078125 676.420898438 329.451171875 676.420898438 306.7890625 c 2
 676.420898438 0 l 1
 757.592773438 0 l 1
 757.592773438 326.427734375 l 2
 757.592773438 341.561523438 757.275390625 356.771484375 754.58984375 371.66796875 c 0
 751.904296875 386.563476562 747.041015625 401.06640625 740.141601562 414.5390625 c 0
 728.081054688 438.0859375 709.702148438 458.560546875 686.85546875 471.90234375 c 0
 659.995117188 487.58984375 628.095703125 493.046875 596.997070312 492.260742188 c 0
 579.545898438 491.81640625 562.12890625 489.370117188 545.311523438 484.693359375 c 0
 526.728515625 479.5234375 509.008789062 471.611328125 491.98828125 462.53515625 c 0
 466.94921875 449.181640625 443.06640625 433.749023438 419.7890625 417.51953125 c 1
 425.8984375 360.3515625 l 1
132.9296875 360.3515625 m 1
 152.1640625 374.96484375 172.78515625 387.758789062 194.453125 398.438476562 c 0
 209.044921875 405.62890625 224.095703125 411.9296875 239.599609375 416.85546875 c 0
 259.389648438 423.141601562 280.2890625 427.123046875 300.919921875 424.7734375 c 0
 314.7265625 423.201171875 328.245117188 418.7265625 340.02734375 411.35546875 c 0
 354.47265625 402.319335938 366.09375 388.90625 373.1796875 373.41015625 c 0
 382.6015625 352.80078125 383.454101562 329.451171875 383.454101562 306.7890625 c 2
 383.454101562 0 l 1
 464.625 0 l 1
 464.625 326.427734375 l 2
 464.625 341.561523438 464.306640625 356.771484375 461.62109375 371.66796875 c 0
 458.935546875 386.563476562 454.0703125 401.06640625 447.170898438 414.5390625 c 0
 435.11328125 438.0859375 416.732421875 458.560546875 393.888671875 471.90234375 c 0
 367.025390625 487.58984375 335.12890625 493.046875 304.029296875 492.260742188 c 0
 286.579101562 491.81640625 269.162109375 489.370117188 252.344726562 484.693359375 c 0
 233.76171875 479.5234375 216.037109375 471.611328125 199.01953125 462.53515625 c 0
 173.98046875 449.181640625 150.09765625 433.749023438 126.8203125 417.51953125 c 1
 132.9296875 360.3515625 l 1
151.087890625 480.041015625 m 1
 94.35546875 480.041015625 l 1
 94.35546875 0 l 1
 176.3984375 0 l 1
 176.3984375 423.744140625 l 1
 151.087890625 480.041015625 l 1
EndSplineSet
EndChar

StartChar: c
Encoding: 99 99 18
Width: 467
VWidth: 1023
Flags: HMW
HStem: 0 73<207.074 391.763> 408 73<204.038 396.764>
AnchorPoint: "cedilla" 278 0 basechar 0
AnchorPoint: "below" 260 0 basechar 0
AnchorPoint: "above" 260 482 basechar 0
LayerCount: 4
Fore
SplineSet
283 -10 m 0
 134 -10 55 80 55 233 c 0
 55 310 75 371 114 418 c 0
 155 467 216 491 300 491 c 0
 339 491 381 481 425 462 c 1
 405 404 l 1
 368 417 333 423 304 423 c 0
 189 423 133 360 133 247 c 0
 133 129 183 70 290 57 c 0
 297 56 304 56 312 56 c 0
 339 56 369 61 400 72 c 1
 419 17 l 1
 373 -1 330 -10 288 -10 c 0
 286 -10 284 -10 283 -10 c 0
EndSplineSet
Layer: 3
SplineSet
290.96875 491.2109375 m 0
 338.84765625 491.884765625 386.719726562 481.529296875 430.6171875 462.40234375 c 1
 411.0859375 403.80859375 l 1
 373.500976562 416.815429688 333.637695312 423.96484375 293.8984375 422.36328125 c 0
 271.514648438 421.4609375 249.09765625 417.5234375 228.396484375 408.959960938 c 0
 207.697265625 400.396484375 188.923828125 386.983398438 174.7578125 369.62890625 c 0
 158.767578125 350.0390625 148.962890625 325.9140625 143.974609375 301.123046875 c 0
 138.986328125 276.333007812 138.162109375 250.83203125 139.6015625 225.5859375 c 0
 141.392578125 194.197265625 147.071289062 162.400390625 162.061523438 134.765625 c 0
 174.224609375 112.345703125 192.65234375 93.41796875 214.634765625 80.4814453125 c 0
 236.6171875 67.544921875 261.70703125 60.39453125 287.061523438 57.6171875 c 0
 327 53.2421875 367.805664062 58.9609375 405.71484375 72.265625 c 1
 425.24609375 17.08984375 l 1
 381.697265625 0.244140625 335.21875 -9.4404296875 288.52734375 -9.765625 c 0
 253.423828125 -10.009765625 217.982421875 -4.671875 185.608398438 8.8994140625 c 0
 153.233398438 22.4697265625 124.400390625 44.705078125 103.95703125 73.2421875 c 0
 88.2685546875 95.142578125 77.525390625 120.365234375 70.947265625 146.490234375 c 0
 64.3671875 172.614257812 61.69140625 199.623046875 61.4765625 226.561523438 c 0
 61.208984375 260.01171875 64.583984375 293.610351562 73.21484375 325.927734375 c 0
 81.8466796875 358.244140625 96.2900390625 389.279296875 117.62890625 415.0390625 c 0
 138.419921875 440.13671875 165.572265625 459.794921875 195.630859375 472.388671875 c 0
 225.69140625 484.98046875 258.380859375 490.751953125 290.96875 491.2109375 c 0
EndSplineSet
EndChar

StartChar: t
Encoding: 116 116 19
Width: 378
VWidth: 1023
Flags: HW
HStem: -9 68<205.76 345.524> 415 68<25 106 187 347>
VStem: 106 81<78.6659 415 483 603>
AnchorPoint: "aboveright" 299 670 basechar 0
AnchorPoint: "cedilla" 230 0 basechar 0
AnchorPoint: "below" 230 0 basechar 0
AnchorPoint: "above" 195 619 basechar 0
LayerCount: 4
Back
SplineSet
39.0625 482.422 m 5
 331.055 482.422 l 5
 331.055 419.434 l 5
 39.0625 419.434 l 5
 39.0625 482.422 l 5
  Spiro
    39.0625 482.422 v
    331.055 482.422 v
    331.055 419.434 v
    39.0625 419.434 v
    0 0 z
  EndSpiro
104.004 620.605 m 5
 184.082 620.605 l 5
 184.082 154.785 l 6
 184.082 133.482 184.768 111.391 194.285 92.332 c 4
 199.045 82.8027 205.865 74.2754 214.311 67.7852 c 4
 222.756 61.2949 232.747 56.9092 243.164 54.6875 c 4
 261.914 50.6885 281.381 53.5 300.293 56.6406 c 4
 312.831 58.7227 325.346 60.9502 337.891 62.9883 c 5
 349.121 8.30078 l 5
 337.292 5.31445 325.411 2.53125 313.477 0 c 4
 275.211 -8.11719 235.188 -14.4756 197.266 -4.88281 c 4
 181.061 -0.783203 165.561 6.31543 152.236 16.4072 c 4
 138.91 26.499 127.859 39.54 119.936 54.2588 c 4
 112.014 68.9775 107.245 85.2676 104.863 101.812 c 4
 102.482 118.357 102.457 135.141 102.539 151.855 c 6
 104.004 452.148 l 5
 104.004 620.605 l 5
  Spiro
    104.004 620.605 v
    184.082 620.605 v
    184.082 154.785 ]
    243.164 54.6875 o
    300.293 56.6406 o
    337.891 62.9883 v
    349.121 8.30078 v
    313.477 0 o
    197.266 -4.88281 o
    102.539 151.855 [
    104.004 452.148 v
    0 0 z
  EndSpiro
EndSplineSet
Fore
SplineSet
241 -9 m 0
 141 -9 106 48 106 150 c 2
 106 415 l 1
 25 415 l 1
 25 483 l 1
 106 483 l 1
 106 603 l 1
 187 607 l 1
 187 483 l 1
 347 483 l 1
 347 415 l 1
 187 415 l 1
 187 156 l 2
 187 92 203 59 265 59 c 0
 294 59 321 63 347 70 c 1
 347 9 l 1
 310 -3 275 -9 241 -9 c 0
EndSplineSet
Layer: 3
SplineSet
104.359 602.656 m 1
 184.917 607.012 l 1
 184.917 156.322 l 2
 184.917 91.0059 203.205 59.2178 263.297 59.2178 c 0
 295.086 59.2178 322.083 63.5723 345.162 69.668 c 1
 345.162 8.70605 l 1
 315.552 -0.875 280.715 -9.14746 238.912 -9.14746 c 0
 137.453 -9.14746 104.359 50.5078 104.359 149.791 c 2
 104.359 602.656 l 1
22.9297 414.545 m 1
 22.9297 482.91 l 1
 344.727 482.91 l 1
 344.727 414.545 l 1
 22.9297 414.545 l 1
EndSplineSet
EndChar

StartChar: r
Encoding: 114 114 20
Width: 361
VWidth: 1023
Flags: HW
HStem: 0 21G<65 148> 402 79<276.077 341> 418 72<184.126 334.922>
VStem: 65 83<0 395.646>
AnchorPoint: "cedilla" 107 0 basechar 0
AnchorPoint: "below" 107 0 basechar 0
AnchorPoint: "above" 196 482 basechar 0
LayerCount: 4
Back
SplineSet
262.64453125 491.69921875 m 0xd0
 297.077148438 493.012695312 331.791015625 486.271484375 363.23046875 472.16796875 c 1
 338.81640625 408.69140625 l 1
 313.672851562 418.455078125 286.688476562 423.453125 259.71484375 423.33984375 c 0
 200.87890625 423.09375 142.572265625 397.561523438 102.48828125 354.4921875 c 1
 82.95703125 389.974609375 l 1
 122.061523438 449.84375 191.188476562 488.974609375 262.64453125 491.69921875 c 0xd0
  Spiro
    262.645 491.699 o
    363.23 472.168 v
    338.816 408.691 v
    259.715 423.34 o
    102.488 354.492 v
    82.957 389.974 v
    0 0 z
  EndSpiro
64.890625 482.421875 m 1xb0
 121.04296875 482.421875 l 1
 144.96875 425.78125 l 1
 144.96875 0 l 1
 64.890625 0 l 1
 64.890625 482.421875 l 1xb0
  Spiro
    64.8906 482.422 v
    121.043 482.422 v
    144.969 425.781 v
    144.969 0 v
    64.8906 0 v
    0 0 z
  EndSpiro
EndSplineSet
Fore
SplineSet
275 490 m 0xb0
 298 490 320 487 341 481 c 1
 341 402 l 1
 331 402 l 1xd0
 306 412 282 418 258 418 c 0xb0
 219 418 183 406 148 383 c 1
 148 0 l 1
 65 0 l 1
 65 481 l 1
 125 481 l 1xd0
 141 441 l 1
 184 474 228 490 275 490 c 0xb0
EndSplineSet
Layer: 3
SplineSet
143.552734375 380.419921875 m 1
 179.91015625 405.82421875 221.521484375 418.08984375 258.317382812 418.08984375 c 0
 283.723632812 418.08984375 306.500976562 412.833984375 331.46875 402.3203125 c 1
 341.10546875 402.3203125 l 1
 341.10546875 480.728515625 l 1
 320.080078125 487.298828125 299.053710938 490.366210938 275.400390625 490.366210938 c 0
 228.092773438 490.366210938 180.34765625 472.84375 134.791015625 436.487304688 c 1
 143.552734375 380.419921875 l 1
124.716796875 481.603515625 m 1
 65.5830078125 481.603515625 l 1
 65.5830078125 -0.232421875 l 1
 147.932617188 -0.232421875 l 1
 147.932617188 424.22265625 l 1
 124.716796875 481.603515625 l 1
EndSplineSet
EndChar

StartChar: v
Encoding: 118 118 21
Width: 492
VWidth: 1023
Flags: HW
HStem: 0 21G<194.562 297.438> 464 20G<22 117.018 378.929 470>
AnchorPoint: "cedilla" 245 0 basechar 0
AnchorPoint: "below" 245 0 basechar 0
AnchorPoint: "above" 245 482 basechar 0
LayerCount: 4
Back
SplineSet
448.242 482.422 m 5
 365.234 482.422 l 5
 219.238 5.85938 l 5
 265.137 5.85938 l 5
 114.746 482.422 l 5
 31.7383 482.422 l 5
 201.66 0 l 5
 279.785 0 l 5
 448.242 482.422 l 5
EndSplineSet
Fore
SplineSet
470 484 m 1
 290 0 l 1
 202 0 l 1
 22 484 l 1
 110 484 l 1
 243 105 l 1
 248 79 l 1
 252 105 l 1
 386 484 l 1
 470 484 l 1
EndSplineSet
Layer: 3
SplineSet
470.039 484.109 m 1
 290.039 0 l 1
 202.019 0 l 1
 22.0186 484.109 l 1
 110.037 484.109 l 1
 242.948 105.623 l 1
 247.789 78.7773 l 1
 252.189 105.623 l 1
 385.541 484.109 l 1
 470.039 484.109 l 1
EndSplineSet
EndChar

StartChar: k
Encoding: 107 107 22
Width: 481
VWidth: 1023
Flags: HMW
HStem: 0 73 217 73 408 73 651 20
VStem: 65 80<0 738>
AnchorPoint: "cedilla" 397 0 basechar 0
AnchorPoint: "below" 259 0 basechar 0
AnchorPoint: "above" 259 670 basechar 0
LayerCount: 4
Fore
SplineSet
65 670 m 1
 145 670 l 1
 145 0 l 1
 65 0 l 1
 65 670 l 1
366 482 m 5
 454 482 l 5
 244 275 l 5
 467 0 l 5
 371 0 l 5
 153 267 l 5
 366 482 l 5
EndSplineSet
Layer: 3
SplineSet
385.671875 492.188476562 m 1
 474.05078125 492.188476562 l 1
 242.1171875 252.44140625 l 1
 242.1171875 301.7578125 l 1
 486.74609375 0 l 1
 390.5546875 0 l 1
 172.78125 266.6015625 l 1
 385.671875 492.188476562 l 1
84.890625 737.79296875 m 1
 164.96875 737.79296875 l 1
 164.96875 0 l 1
 84.890625 0 l 1
 84.890625 737.79296875 l 1
EndSplineSet
EndChar

StartChar: j
Encoding: 106 106 23
Width: 216
VWidth: 1023
Flags: W
HStem: 462 20G<69 149.073> 587 83<68 150>
VStem: 68 82<-158.067 482 587 670>
AnchorPoint: "cedilla" 48 -232 basechar 0
AnchorPoint: "below" 110 -261 basechar 0
AnchorPoint: "above" 110 670 basechar 0
LayerCount: 4
Fore
SplineSet
70 -78 m 0
 70 -76 70 -73 70 -71 c 2
 70 -68 l 1
 69 482 l 1
 149 482 l 1
 151 -64 l 2
 151 -132 145 -143 127 -180 c 0
 107 -221 66 -247 21 -263 c 1
 -9 -202 l 1
 44 -177 70 -136 70 -78 c 0
68 670 m 1
 150 670 l 1
 150 587 l 1
 68 587 l 1
 68 670 l 1
EndSplineSet
Layer: 3
SplineSet
84.8057 669.595 m 5
 167.4 669.595 l 5
 167.4 586.562 l 5
 84.8057 586.562 l 5
 84.8057 669.595 l 5
167.969 -63.9648 m 2
 167.969 -116.699 169.434 -214.844 38.0859 -262.695 c 1
 7.8125 -202.148 l 1
 95.2148 -161.133 86.9141 -80.0781 86.9141 -68.3594 c 2
 85.9375 482.422 l 1
 166.016 482.422 l 1
 167.969 -63.9648 l 2
EndSplineSet
EndChar

StartChar: x
Encoding: 120 120 24
Width: 510
VWidth: 1023
Flags: HW
HStem: 0 21G<38 136.591 360.746 468> 462 20G<32 139.241 378.283 478>
AnchorPoint: "cedilla" 256 0 basechar 0
AnchorPoint: "below" 256 0 basechar 0
AnchorPoint: "above" 256 482 basechar 0
LayerCount: 4
Fore
SplineSet
392 482 m 1
 478 482 l 1
 300 236 l 1
 468 0 l 1
 375 0 l 1
 246 181 l 1
 123 0 l 1
 38 0 l 1
 207 237 l 1
 32 482 l 1
 125 482 l 1
 261 291 l 1
 392 482 l 1
EndSplineSet
Layer: 3
SplineSet
31.7383 482.422 m 25
 124.512 482.422 l 25
 468.262 0 l 25
 375.488 0 l 25
 31.7383 482.422 l 25
392.09 482.422 m 9
 477.539 482.422 l 17
 294.434 228.516 l 1
 273.438 221.191 l 1
 123.047 0 l 1
 37.5977 0 l 1
 230.851 270.508 l 1
 251.162 276.855 l 1
 392.09 482.422 l 9
EndSplineSet
EndChar

StartChar: z
Encoding: 122 122 25
Width: 485
VWidth: 1023
Flags: HMW
HStem: 0 73<154 430> 408 73<50 313>
AnchorPoint: "cedilla" 233 0 basechar 0
AnchorPoint: "below" 233 0 basechar 0
AnchorPoint: "above" 233 482 basechar 0
LayerCount: 4
Fore
SplineSet
50 482 m 1
 418 482 l 1
 418 440 l 1
 154 63 l 1
 430 63 l 1
 430 0 l 1
 50 0 l 1
 50 42 l 1
 313 419 l 1
 50 419 l 1
 50 482 l 1
EndSplineSet
Layer: 3
SplineSet
50.2421875 482.421875 m 29
 417.91796875 482.421875 l 21
 417.91796875 439.94140625 l 5
 154.24609375 62.98828125 l 13
 430.125 62.98828125 l 29
 430.125 0 l 29
 50.2421875 0 l 21
 50.2421875 42.48046875 l 5
 312.938476562 419.43359375 l 13
 50.2421875 419.43359375 l 29
 50.2421875 482.421875 l 29
EndSplineSet
EndChar

StartChar: y
Encoding: 121 121 26
Width: 507
VWidth: 1023
Flags: HW
HStem: 462 20G<22 110.384 397.616 481>
AnchorPoint: "cedilla" 256 -261 basechar 0
AnchorPoint: "below" 256 -261 basechar 0
AnchorPoint: "above" 256 482 basechar 0
LayerCount: 4
Fore
SplineSet
405 482 m 1
 481 482 l 1
 205 -259 l 1
 120 -259 l 1
 219 -19 l 1
 22 482 l 1
 103 482 l 1
 254 73 l 1
 405 482 l 1
EndSplineSet
Layer: 3
SplineSet
102.539 482.422 m 1
 271.484 27.3438 l 1
 262.695 -48.8281 l 1
 241.211 -75.1953 l 1
 21.9727 482.422 l 1
 102.539 482.422 l 1
405.273 482.422 m 1
 480.957 482.422 l 1
 205.078 -259.277 l 1
 119.629 -259.277 l 1
 236.816 24.9023 l 1
 405.273 482.422 l 1
EndSplineSet
EndChar

StartChar: f
Encoding: 102 102 27
Width: 355
VWidth: 1023
Flags: HW
HStem: 0 21G<95.9523 177> 419 63<25 95 176 337> 631 66<210.753 361.572>
VStem: 95 81<0 419 482 598.066>
AnchorPoint: "cedilla" 137 0 basechar 0
AnchorPoint: "below" 245 0 basechar 0
AnchorPoint: "above" 245 670 basechar 0
LayerCount: 4
Fore
SplineSet
281 631 m 0
 224 631 184 599 178 559 c 0
 177 552 176 541 176 528 c 2
 176 482 l 1
 337 482 l 1
 337 419 l 1
 176 419 l 1
 177 0 l 1
 96 0 l 1
 95 419 l 1
 25 419 l 1
 25 482 l 1
 95 482 l 1
 95 531 l 2
 95 573 100 604 110 622 c 0
 139 672 188 697 256 697 c 0
 297 697 338 689 372 679 c 1
 359 619 l 1
 328 627 303 631 281 631 c 0
EndSplineSet
Layer: 3
SplineSet
230.957 687.988 m 0
 269.694 700.742 311.797 699.424 352.051 692.871 c 0
 372.523 689.541 392.756 684.756 412.598 678.711 c 1
 400.391 619.141 l 1
 390.569 621.855 380.629 624.146 370.605 625.977 c 0
 339.207 631.714 306.098 633.809 275.879 623.535 c 0
 256.685 617.007 239.143 604.536 228.805 587.1 c 0
 223.635 578.379 220.302 568.628 218.586 558.638 c 0
 216.871 548.647 216.778 538.457 216.797 528.32 c 2
 217.773 0 l 1
 136.719 0 l 1
 135.742 531.25 l 2
 135.712 547.847 135.84 564.517 138.504 580.898 c 0
 141.167 597.28 146.365 613.315 154.57 627.739 c 0
 170.982 656.587 199.432 677.607 230.957 687.988 c 0
65.918 482.422 m 1
 378.418 482.422 l 1
 378.418 419.434 l 1
 65.918 419.434 l 1
 65.918 482.422 l 1
EndSplineSet
EndChar

StartChar: G
Encoding: 71 71 28
Width: 709
VWidth: 1023
Flags: HMW
HStem: -9 73<306.774 523.145> 298 68<376.047 573.047> 621 73<296.524 520.887>
VStem: 55 82.9893<235.173 462.435> 573.047 78<103.09 298>
LayerCount: 4
Fore
SplineSet
589.046875 581 m 1
 540.35546875 606.778320312 460.590820312 630.013671875 401.844726562 630.013671875 c 0
 350.350585938 630.013671875 304.084960938 615.619140625 263.046875 589 c 0
 180.909179688 535.254882812 137.989257812 453.861328125 137.989257812 347.888671875 c 0
 137.989257812 232.6328125 198.61328125 145.438476562 275.046875 101 c 0
 318.046875 76 369.046875 64 427.046875 64 c 0
 485.046875 64 534.046875 83 573.046875 121 c 1
 573.046875 298 l 1
 376.046875 298 l 1
 376.046875 366 l 1
 654.046875 366 l 1
 651.046875 94 l 1
 596.651367188 31.5458984375 515.373046875 -9.0751953125 396.421875 -9.0751953125 c 0
 248.760742188 -9.0751953125 153.862304688 61.677734375 99.046875 164 c 0
 69.9853515625 218.248046875 55 277.189453125 55 340.821289062 c 0
 55 486.399414062 123.825195312 599.987304688 219.046875 656 c 0
 270.862304688 686.521484375 329.2265625 702.423828125 393.78515625 702.423828125 c 0
 486.110351562 702.423828125 555.096679688 680.036132812 622.046875 643 c 1
 589.046875 581 l 1
EndSplineSet
Layer: 3
SplineSet
453.73046875 699.21875 m 0
 479.599609375 699.1796875 505.458984375 696.81640625 530.927734375 692.271484375 c 0
 556.518554688 687.700195312 581.713867188 680.91796875 606.181640625 672.138671875 c 0
 630.556640625 663.393554688 654.21875 652.670898438 676.875 640.13671875 c 1
 644.16015625 578.125 l 1
 627.0703125 586.962890625 609.39453125 594.6484375 591.284179688 601.142578125 c 0
 570.317382812 608.657226562 548.7890625 614.603515625 526.938476562 618.901367188 c 0
 502.998046875 623.608398438 478.615234375 626.318359375 454.21875 625.9765625 c 0
 404.33984375 625.283203125 354.63671875 610.6640625 312.82421875 583.45703125 c 0
 278.197265625 560.927734375 248.96875 530.092773438 228.64453125 494.125976562 c 0
 205.31640625 452.841796875 193.888671875 405.3203125 192.98828125 357.91015625 c 0
 191.984375 305.081054688 203.641601562 251.745117188 228.70703125 205.23046875 c 0
 252.040039062 161.932617188 287.533203125 125.1953125 330.344726562 100.984375 c 0
 373.779296875 76.419921875 423.850585938 64.1259765625 473.75 63.96484375 c 0
 508.403320312 63.853515625 543.359375 69.95703125 574.82421875 84.47265625 c 0
 594.384765625 93.49609375 612.470703125 105.724609375 628.046875 120.60546875 c 1
 628.046875 297.8515625 l 1
 430.78125 297.8515625 l 1
 430.78125 366.2109375 l 1
 708.61328125 366.2109375 l 1
 706.171875 93.75 l 1
 678.872070312 62.76171875 644.7265625 37.9169921875 607.05078125 20.99609375 c 0
 557.983398438 -1.0419921875 503.608398438 -9.9130859375 449.82421875 -9.27734375 c 0
 387.888671875 -8.544921875 325.251953125 5.03125 271.8671875 36.4423828125 c 0
 222.0859375 65.734375 182.038085938 110.319335938 155.0390625 161.380859375 c 0
 124.42578125 219.28125 109.2734375 285.09375 109.98046875 350.5859375 c 0
 110.634765625 411.20703125 125.05078125 471.838867188 153.2265625 525.517578125 c 0
 180.75390625 577.958984375 222.12890625 623.427734375 273.18359375 653.447265625 c 0
 327.345703125 685.29296875 390.8984375 699.311523438 453.73046875 699.21875 c 0
EndSplineSet
EndChar

StartChar: H
Encoding: 72 72 29
Width: 730
VWidth: 1023
Flags: HW
HStem: 0 21G<85 172 557 645> 311 75<172 557>
VStem: 85 87<0 311 386 692> 557 88<0 311 386 692>
AnchorPoint: "below" 365 0 basechar 0
AnchorPoint: "cedilla" 365 0 basechar 0
AnchorPoint: "above" 365 670 basechar 0
LayerCount: 4
Back
SplineSet
169.31640625 394.53125 m 5xea
 639.04296875 394.53125 l 5
 639.04296875 321.2890625 l 5
 169.31640625 321.2890625 l 5
 169.31640625 394.53125 l 5xea
590.703125 693.84765625 m 5xe4
 673.7109375 693.84765625 l 5
 673.7109375 0 l 5
 590.703125 0 l 5
 590.703125 693.84765625 l 5xe4
136.6015625 693.84765625 m 5xf0
 219.609375 693.84765625 l 5
 219.609375 0 l 5
 136.6015625 0 l 5
 136.6015625 693.84765625 l 5xf0
EndSplineSet
Fore
SplineSet
557 692 m 1
 645 692 l 1
 645 0 l 1
 557 0 l 1
 557 311 l 1
 172 311 l 1
 172 0 l 1
 85 0 l 1
 85 692 l 1
 172 692 l 1
 172 386 l 1
 557 386 l 1
 557 692 l 1
EndSplineSet
Layer: 3
SplineSet
591.19140625 692.504882812 m 5
 679.287109375 692.504882812 l 5
 679.287109375 0 l 5
 591.19140625 0 l 5
 591.19140625 311.059570312 l 5
 206.56640625 311.059570312 l 5
 206.56640625 0 l 5
 118.470703125 0 l 5
 118.470703125 692.504882812 l 5
 206.56640625 692.504882812 l 5
 206.56640625 385.986328125 l 5
 591.19140625 385.986328125 l 5
 591.19140625 692.504882812 l 5
EndSplineSet
EndChar

StartChar: g
Encoding: 103 103 30
Width: 548
VWidth: 1023
Flags: HMW
HStem: -261 73 0 73 408 73
VStem: 398 80<-123 23 74 407>
AnchorPoint: "cedilla" 279 -261 basechar 0
AnchorPoint: "below" 279 -261 basechar 0
AnchorPoint: "above" 279 482 basechar 0
LayerCount: 4
Fore
SplineSet
398 23 m 1
 357 1 318 -9 270 -9 c 0
 187 -9 132 28 95 82 c 128
 67 123 55 170 55 233 c 0
 55 356 106 438 194 475 c 0
 220 486 247 491 275 491 c 0
 311 491 349 482 389 464 c 2
 412 454 l 1
 422 482 l 1
 478 482 l 1
 478 -23 l 2
 478 -113 462 -157 414 -203 c 128
 375 -240 313 -265 239 -265 c 0
 192 -265 132 -251 92 -233 c 1
 114 -175 l 1
 156 -190 194 -198 229 -198 c 0
 327 -198 386 -145 396 -58 c 0
 398 -44 398 -22 398 9 c 2
 398 23 l 1
290 56 m 0
 332 56 367 66 398 83 c 1
 398 400 l 1
 356 417 319 425 286 425 c 0
 182 425 132 349 132 244 c 0
 132 166 165 103 218 74 c 128
 240 62 264 56 290 56 c 0
EndSplineSet
Layer: 3
SplineSet
422.17578125 482.421875 m 1
 478.328125 482.421875 l 1
 478.328125 -23.4375 l 2
 478.328125 -55.982421875 477.205078125 -88.998046875 467.388671875 -120.02734375 c 0
 457.57421875 -151.056640625 439.587890625 -179.419921875 415.828125 -201.66015625 c 0
 388.545898438 -227.197265625 354.26953125 -244.7265625 318.171875 -254.39453125 c 0
 256.97265625 -270.787109375 191.247070312 -265.633789062 130.671875 -247.0703125 c 0
 117.423828125 -243.010742188 104.381835938 -238.28125 91.609375 -232.91015625 c 1
 114.0703125 -174.8046875 l 1
 126.232421875 -179.33203125 138.622070312 -183.25 151.1796875 -186.5234375 c 0
 176.986328125 -193.250976562 203.55859375 -197.364257812 230.228515625 -197.43359375 c 0
 256.896484375 -197.501953125 283.796875 -193.3828125 308.40625 -183.10546875 c 0
 337.494140625 -170.958007812 362.827148438 -149.353515625 377.7421875 -121.58203125 c 0
 388.264648438 -101.989257812 393.642578125 -79.96875 396.045898438 -57.859375 c 0
 398.450195312 -35.75 398.25 -13.4501953125 398.25 8.7890625 c 2
 398.25 416.50390625 l 1
 422.17578125 482.421875 l 1
309.3828125 489.74609375 m 0
 337.15625 485.53515625 363.869140625 475.939453125 389.4609375 464.35546875 c 0
 403.921875 457.809570312 418.083007812 450.609375 431.94140625 442.87109375 c 1
 405.57421875 396.97265625 l 1
 389.951171875 403.678710938 373.986328125 409.598632812 357.72265625 414.55078125 c 0
 326.7578125 423.978515625 294.10546875 430.04296875 262.01953125 425.78125 c 0
 240.977539062 422.986328125 220.50390625 415.59375 202.829101562 403.83984375 c 0
 185.154296875 392.0859375 170.400390625 376.11328125 159.48046875 357.91015625 c 0
 145.923828125 335.311523438 138.203125 309.51953125 134.80859375 283.384765625 c 0
 131.413085938 257.251953125 132.02734375 230.634765625 136.04296875 204.58984375 c 0
 139.533203125 181.956054688 145.762695312 159.615234375 156.061523438 139.16015625 c 0
 169.578125 112.318359375 190.724609375 89.1171875 217.09765625 74.70703125 c 0
 245.416015625 59.234375 278.716796875 54.140625 310.84765625 57.12890625 c 0
 359.630859375 61.666015625 406.255859375 83.103515625 443.66015625 114.74609375 c 1
 462.21484375 69.3359375 l 1
 413.827148438 23.34765625 349.205078125 -6.0458984375 282.52734375 -9.27734375 c 0
 246.99609375 -10.9990234375 210.8984375 -5.0556640625 178.53515625 9.7099609375 c 0
 146.170898438 24.4755859375 117.99609375 48.244140625 97.95703125 77.63671875 c 0
 70.84375 117.40625 58.66796875 165.841796875 55.4765625 213.8671875 c 0
 53.1103515625 249.48046875 55.400390625 285.55078125 64.0791015625 320.171875 c 0
 72.7578125 354.791992188 88.462890625 387.88671875 111.62890625 415.0390625 c 0
 133.759765625 440.978515625 162.271484375 461.294921875 193.66015625 474.609375 c 0
 229.94140625 490 270.41796875 495.654296875 309.3828125 489.74609375 c 0
EndSplineSet
EndChar

StartChar: O
Encoding: 79 79 31
Width: 768
VWidth: 1023
Flags: MW
HStem: 0 73<288.965 481.576> 621 73<287.501 481.631>
VStem: 55 94<222.162 470.695> 619 94<221.305 469.402>
AnchorPoint: "cedilla" 383 0 basechar 0
AnchorPoint: "below" 383 0 basechar 0
AnchorPoint: "above" 383 670 basechar 0
LayerCount: 4
Back
SplineSet
430.78125 628.41796875 m 4
 366.806640625 628.06640625 303.06640625 600.322265625 260.859375 552.24609375 c 4
 236.48046875 524.477539062 219.298828125 490.771484375 208.923828125 455.3046875 c 4
 198.549804688 419.837890625 194.581054688 382.646484375 195.4296875 345.703125 c 4
 196.991210938 277.712890625 215.05078125 208.3515625 256.953125 154.78515625 c 4
 278.873046875 126.763671875 307.150390625 103.686523438 339.205078125 88.2509765625 c 4
 371.2578125 72.814453125 406.92578125 64.982421875 442.5 65.4296875 c 4
 477.125976562 65.865234375 511.669921875 74.15625 542.563476562 89.80078125 c 4
 573.45703125 105.4453125 600.517578125 128.484375 621.2109375 156.25 c 4
 661.215820312 209.92578125 676.796875 278.759765625 676.875 345.703125 c 4
 676.943359375 404.287109375 665.131835938 463.989257812 634.8828125 514.16015625 c 4
 613.818359375 549.1015625 583.725585938 578.623046875 548.081054688 598.481445312 c 4
 512.44140625 618.344726562 471.580078125 628.642578125 430.78125 628.41796875 c 4
  Spiro
    260.859 552.246 o
    195.43 345.703 o
    256.953 154.785 o
    442.5 65.4297 o
    621.211 156.25 o
    676.875 345.703 o
    634.883 514.16 o
    430.781 628.418 o
    0 0 z
  EndSpiro
440.05859375 701.171875 m 4
 484.099609375 700.747070312 528.159179688 692.34375 568.857421875 675.512695312 c 4
 609.555664062 658.681640625 646.723632812 633.139648438 676.38671875 600.5859375 c 4
 707.319335938 566.640625 729.829101562 525.390625 743.69140625 481.60546875 c 4
 757.553710938 437.822265625 763.208007812 391.620117188 762.32421875 345.703125 c 4
 761.362304688 295.708984375 752.705078125 245.681640625 734.809570312 198.98828125 c 4
 716.918945312 152.294921875 689.213867188 109.099609375 652.4609375 75.1953125 c 4
 593.59375 20.89453125 512.822265625 -7.392578125 432.734375 -7.32421875 c 4
 350.1171875 -7.25390625 266.688476562 23.267578125 208.125 81.54296875 c 4
 173.952148438 115.548828125 148.703125 158.049804688 132.83203125 203.572265625 c 4
 116.959960938 249.09375 109.935546875 297.493164062 109.98046875 345.703125 c 4
 110.028320312 396.166992188 117.80078125 446.833007812 135.20703125 494.19921875 c 4
 152.611328125 541.567382812 180.283203125 585.439453125 217.40234375 619.62890625 c 4
 276.9453125 674.47265625 359.111328125 701.958007812 440.05859375 701.171875 c 4
  Spiro
    676.387 600.586 o
    762.324 345.703 o
    652.461 75.1953 o
    432.734 -7.32422 o
    208.125 81.543 o
    109.98 345.703 o
    217.402 619.629 o
    440.059 701.172 o
    0 0 z
  EndSpiro
EndSplineSet
Fore
SplineSet
149 346 m 0
 149 235 194 147 262 102 c 0
 298 78 339 66 384 66 c 0
 487 66 554 128 589 202 c 0
 609 244 619 292 619 346 c 0
 619 456 574 545 506 590 c 0
 470 614 429 626 384 626 c 0
 281 626 214 564 179 490 c 0
 159 448 149 400 149 346 c 0
55 346 m 0
 55 492 115 601 210 656 c 0
 260 685 318 700 384 700 c 0
 525 700 623 630 672 532 c 0
 699 478 713 416 713 346 c 0
 713 200 652 91 557 36 c 0
 507 7 450 -8 384 -8 c 0
 242 -8 145 62 95 160 c 0
 68 213 55 276 55 346 c 0
EndSplineSet
Layer: 3
SplineSet
105.17578125 345.958984375 m 0
 105.17578125 132.955078125 234.185546875 -7.65625 434.197265625 -7.65625 c 0
 632.817382812 -7.65625 762.75390625 132.955078125 762.75390625 345.958984375 c 0
 762.75390625 558.96484375 632.817382812 700.0390625 434.197265625 700.0390625 c 0
 234.185546875 700.0390625 105.17578125 558.96484375 105.17578125 345.958984375 c 0
198.916992188 345.958984375 m 0
 198.916992188 508.84765625 295.442382812 625.791015625 434.197265625 625.791015625 c 0
 572.021484375 625.791015625 669.013671875 508.84765625 669.013671875 345.958984375 c 0
 669.013671875 183.537109375 572.021484375 66.59375 434.197265625 66.59375 c 0
 295.442382812 66.59375 198.916992188 183.537109375 198.916992188 345.958984375 c 0
EndSplineSet
EndChar

StartChar: A
Encoding: 65 65 32
Width: 608
VWidth: 1023
Flags: HW
HStem: 0 21G<10 93.931 507.069 598> 202 72<182 418> 674 20G<249.882 358.118>
AnchorPoint: "cedilla" 304 0 basechar 0
AnchorPoint: "below" 304 0 basechar 0
AnchorPoint: "above" 304 670 basechar 0
LayerCount: 4
Fore
SplineSet
257 694 m 1
 351 694 l 1
 598 0 l 1
 514 0 l 1
 444 202 l 1
 157 202 l 1
 87 0 l 1
 10 0 l 1
 257 694 l 1
301 613 m 1
 182 274 l 1
 418 274 l 1
 301 613 l 1
EndSplineSet
Layer: 3
SplineSet
343.297851562 612.890625 m 1
 225.576171875 274.4140625 l 1
 461.259765625 274.4140625 l 1
 343.297851562 612.890625 l 1
300.05859375 693.84765625 m 1
 394.296875 693.84765625 l 1
 640.87890625 0 l 1
 556.89453125 0 l 1
 486.616210938 201.66015625 l 1
 200.2734375 201.66015625 l 1
 130.13671875 0 l 1
 53.4765625 0 l 1
 300.05859375 693.84765625 l 1
EndSplineSet
EndChar

StartChar: L
Encoding: 76 76 33
Width: 504
VWidth: 1023
Flags: HW
HStem: 0 73<168 479> 674 20G<85 168>
VStem: 85 83<73 694>
AnchorPoint: "aboveright" 359 670 basechar 0
AnchorPoint: "below" 255 0 basechar 0
AnchorPoint: "cedilla" 255 0 basechar 0
AnchorPoint: "above" 255 670 basechar 0
LayerCount: 4
Fore
SplineSet
85 694 m 1
 168 694 l 1
 168 73 l 1
 479 73 l 1
 479 0 l 1
 85 0 l 1
 85 694 l 1
EndSplineSet
Layer: 3
SplineSet
179.31640625 72.75390625 m 5
 541.1328125 72.75390625 l 5
 541.1328125 0 l 5
 179.31640625 0 l 5
 179.31640625 72.75390625 l 5
146.6015625 693.84765625 m 5
 229.609375 693.84765625 l 5
 229.609375 0 l 5
 146.6015625 0 l 5
 146.6015625 693.84765625 l 5
EndSplineSet
EndChar

StartChar: E
Encoding: 69 69 34
Width: 551
VWidth: 1023
Flags: HW
HStem: 0 73<168 491> 321 73<168 464> 621 73<168 491>
VStem: 85 83<73 321 394 621>
AnchorPoint: "below" 289 0 basechar 0
AnchorPoint: "cedilla" 289 0 basechar 0
AnchorPoint: "above" 289 670 basechar 0
LayerCount: 4
Fore
SplineSet
85 0 m 1
 85 694 l 1
 491 694 l 1
 491 621 l 1
 168 621 l 1
 168 394 l 1
 464 394 l 1
 464 321 l 1
 168 321 l 1
 168 73 l 1
 491 73 l 1
 491 0 l 1
 85 0 l 1
EndSplineSet
Layer: 3
SplineSet
146.6015625 394.04296875 m 5
 526.484375 394.04296875 l 5
 526.484375 320.80078125 l 5
 146.6015625 320.80078125 l 5
 146.6015625 394.04296875 l 5
146.6015625 693.84765625 m 5
 553.33984375 693.84765625 l 5
 553.33984375 620.60546875 l 5
 146.6015625 620.60546875 l 5
 146.6015625 693.84765625 l 5
146.6015625 73.2421875 m 5
 553.33984375 73.2421875 l 5
 553.33984375 0 l 5
 146.6015625 0 l 5
 146.6015625 73.2421875 l 5
146.6015625 693.84765625 m 5
 229.609375 693.84765625 l 5
 229.609375 0 l 5
 146.6015625 0 l 5
 146.6015625 693.84765625 l 5
EndSplineSet
EndChar

StartChar: F
Encoding: 70 70 35
Width: 537
VWidth: 1023
Flags: HW
HStem: 0 21G<85 168> 321 73<168 457> 621 73<168 486>
VStem: 85 83<0 321 394 621>
AnchorPoint: "cedilla" 127 0 basechar 0
AnchorPoint: "below" 289 0 basechar 0
AnchorPoint: "above" 289 670 basechar 0
LayerCount: 4
Fore
SplineSet
168 621 m 1
 168 394 l 1
 457 394 l 1
 457 321 l 1
 168 321 l 1
 168 0 l 1
 85 0 l 1
 85 694 l 1
 486 694 l 1
 486 621 l 1
 168 621 l 1
EndSplineSet
Layer: 3
SplineSet
179.31640625 394.04296875 m 1
 519.16015625 394.04296875 l 1
 519.16015625 320.80078125 l 1
 179.31640625 320.80078125 l 1
 179.31640625 394.04296875 l 1
179.31640625 693.84765625 m 1
 548.45703125 693.84765625 l 1
 548.45703125 620.60546875 l 1
 179.31640625 620.60546875 l 1
 179.31640625 693.84765625 l 1
146.6015625 693.84765625 m 1
 229.609375 693.84765625 l 1
 229.609375 0 l 1
 146.6015625 0 l 1
 146.6015625 693.84765625 l 1
EndSplineSet
EndChar

StartChar: N
Encoding: 78 78 36
Width: 736
VWidth: 1023
Flags: HW
HStem: 0 21G<85 168 533.01 651> 674 20G<85 203.012 568 651>
VStem: 85 83<0 582> 568 83<113 694>
AnchorPoint: "below" 369 0 basechar 0
AnchorPoint: "cedilla" 369 0 basechar 0
AnchorPoint: "above" 369 670 basechar 0
LayerCount: 4
Fore
SplineSet
85 694 m 1
 190 694 l 1
 568 113 l 1
 568 694 l 1
 651 694 l 1
 651 0 l 1
 546 0 l 1
 168 582 l 1
 168 0 l 1
 85 0 l 1
 85 694 l 1
EndSplineSet
Layer: 3
SplineSet
146.6015625 693.84765625 m 1
 251.58203125 693.84765625 l 1
 663.69140625 60.546875 l 1
 629.51171875 60.546875 l 1
 629.51171875 693.84765625 l 1
 712.51953125 693.84765625 l 1
 712.51953125 0 l 1
 607.5390625 0 l 1
 190.170898438 642.08984375 l 1
 229.609375 642.08984375 l 1
 229.609375 0 l 1
 146.6015625 0 l 1
 146.6015625 693.84765625 l 1
EndSplineSet
EndChar

StartChar: V
Encoding: 86 86 37
Width: 607
VWidth: 1023
Flags: HW
HStem: 0 21G<245.026 361.974> 674 20G<10 115.535 498.465 597>
AnchorPoint: "cedilla" 304 0 basechar 0
AnchorPoint: "below" 304 0 basechar 0
AnchorPoint: "above" 304 670 basechar 0
LayerCount: 4
Fore
SplineSet
10 694 m 1
 109 694 l 1
 307 88 l 1
 505 694 l 1
 597 694 l 1
 355 0 l 1
 252 0 l 1
 10 694 l 1
EndSplineSet
Layer: 3
SplineSet
68.3594 693.848 m 5
 166.992 693.848 l 5
 391.113 9.27734 l 5
 339.844 9.27734 l 5
 563.477 693.848 l 5
 654.785 693.848 l 5
 413.086 0 l 5
 310.059 0 l 5
 68.3594 693.848 l 5
EndSplineSet
EndChar

StartChar: Z
Encoding: 90 90 38
Width: 608
VWidth: 1023
Flags: W
HStem: 0 73<140 578> 621 73<44 456>
AnchorPoint: "cedilla" 304 0 basechar 0
AnchorPoint: "below" 304 0 basechar 0
AnchorPoint: "above" 304 670 basechar 0
LayerCount: 4
Fore
SplineSet
44 694 m 1
 575 694 l 1
 575 641 l 1
 140 73 l 1
 578 73 l 1
 578 0 l 1
 30 0 l 1
 30 54 l 1
 456 621 l 1
 44 621 l 1
 44 694 l 1
EndSplineSet
Layer: 3
SplineSet
110.33203125 693.84765625 m 29
 640.60546875 693.84765625 l 17
 640.60546875 640.625 l 1
 206.03515625 73.2421875 l 9
 653.7890625 73.2421875 l 25
 653.7890625 0 l 25
 95.68359375 0 l 17
 95.68359375 54.19921875 l 1
 521.953125 620.60546875 l 9
 110.33203125 620.60546875 l 29
 110.33203125 693.84765625 l 29
EndSplineSet
EndChar

StartChar: T
Encoding: 84 84 39
Width: 566
VWidth: 1023
Flags: HW
HStem: 0 21G<241 324> 621 73<10 241 324 556>
VStem: 241 83<0 621>
AnchorPoint: "cedilla" 283 0 basechar 0
AnchorPoint: "below" 283 0 basechar 0
AnchorPoint: "above" 283 670 basechar 0
LayerCount: 4
Fore
SplineSet
10 694 m 1
 556 694 l 1
 556 621 l 1
 324 621 l 1
 324 0 l 1
 241 0 l 1
 241 621 l 1
 10 621 l 1
 10 694 l 1
EndSplineSet
Layer: 3
SplineSet
356.445 0 m 5
 273.438 0 l 5
 273.438 680.176 l 5
 356.445 680.176 l 5
 356.445 0 l 5
41.5039 693.848 m 5
 588.379 693.848 l 5
 588.379 620.605 l 5
 41.5039 620.605 l 5
 41.5039 693.848 l 5
EndSplineSet
EndChar

StartChar: I
Encoding: 73 73 40
Width: 283
VWidth: 1023
Flags: HW
HStem: 0 21G<100 183> 674 20G<100 183>
VStem: 100 83<0 694>
AnchorPoint: "cedilla" 142 0 basechar 0
AnchorPoint: "below" 142 0 basechar 0
AnchorPoint: "above" 142 670 basechar 0
LayerCount: 4
Fore
SplineSet
100 694 m 1
 183 694 l 1
 183 0 l 1
 100 0 l 1
 100 694 l 1
EndSplineSet
Layer: 3
SplineSet
176.25 693.84765625 m 5
 259.2578125 693.84765625 l 5
 259.2578125 0 l 5
 176.25 0 l 5
 176.25 693.84765625 l 5
EndSplineSet
EndChar

StartChar: X
Encoding: 88 88 41
Width: 619
VWidth: 1023
Flags: HW
HStem: 0 21G<10 125.356 488.644 609> 674 20G<39 153.487 473.897 582>
AnchorPoint: "cedilla" 310 0 basechar 0
AnchorPoint: "below" 310 0 basechar 0
AnchorPoint: "above" 310 670 basechar 0
LayerCount: 4
Fore
SplineSet
487 694 m 1
 582 694 l 1
 363 364 l 1
 609 0 l 1
 502 0 l 1
 307 292 l 1
 112 0 l 1
 10 0 l 1
 260 362 l 1
 39 694 l 1
 140 694 l 1
 316 433 l 1
 487 694 l 1
EndSplineSet
Layer: 3
SplineSet
83.0078 693.848 m 9
 183.594 693.848 l 25
 653.32 0 l 25
 545.898 0 l 17
 83.0078 693.848 l 9
530.762 693.848 m 9
 626.465 693.848 l 17
 386.23 333.984 l 1
 372.07 324.219 l 1
 156.25 0 l 1
 53.7109 0 l 1
 315.918 379.395 l 1
 332.031 389.16 l 1
 530.762 693.848 l 9
EndSplineSet
EndChar

StartChar: Y
Encoding: 89 89 42
Width: 568
VWidth: 1023
Flags: HW
HStem: 0 21G<239 322> 674 20G<10 120.334 452.456 558>
VStem: 239 83<0 329>
AnchorPoint: "below" 284 0 basechar 0
AnchorPoint: "cedilla" 284 0 basechar 0
AnchorPoint: "above" 284 670 basechar 0
LayerCount: 4
Fore
SplineSet
322 0 m 1
 239 0 l 1
 239 329 l 1
 10 694 l 1
 108 694 l 1
 285 407 l 1
 465 694 l 1
 558 694 l 1
 322 329 l 1
 322 0 l 1
EndSplineSet
Layer: 3
SplineSet
48.8281 693.848 m 9
 146.973 693.848 l 25
 334.473 389.648 l 25
 314.453 393.066 l 25
 504.395 693.848 l 25
 597.168 693.848 l 25
 360.84 328.613 l 25
 360.84 0 l 25
 277.832 0 l 25
 277.832 328.613 l 17
 48.8281 693.848 l 9
EndSplineSet
EndChar

StartChar: K
Encoding: 75 75 43
Width: 631
VWidth: 1023
Flags: HW
HStem: 0 21G<85 168 471.584 596> 674 20G<85 168 455.604 577>
VStem: 85 83<0 694>
AnchorPoint: "cedilla" 315 0 basechar 0
AnchorPoint: "below" 315 0 basechar 0
AnchorPoint: "above" 315 670 basechar 0
LayerCount: 4
Fore
SplineSet
85 694 m 1
 168 694 l 1
 168 0 l 1
 85 0 l 1
 85 694 l 1
473 694 m 1
 577 694 l 1
 284 363 l 1
 596 0 l 1
 489 0 l 1
 179 356 l 1
 473 694 l 1
EndSplineSet
Layer: 3
SplineSet
535.2734375 693.84765625 m 1
 639.27734375 693.84765625 l 1
 320.4296875 334.47265625 l 1
 337.03125 373.046875 l 1
 657.83203125 0 l 1
 550.8984375 0.48828125 l 1
 241.328125 355.95703125 l 1
 535.2734375 693.84765625 l 1
146.6015625 693.84765625 m 1
 229.609375 693.84765625 l 1
 229.609375 0 l 1
 146.6015625 0 l 1
 146.6015625 693.84765625 l 1
EndSplineSet
EndChar

StartChar: M
Encoding: 77 77 44
Width: 845
VWidth: 1023
Flags: HW
HStem: 0 21G<85 168 677 760> 674 20G<85 212.546 640.216 760>
VStem: 85 83<0 575> 677 83<0 575>
AnchorPoint: "cedilla" 423 0 basechar 0
AnchorPoint: "below" 423 0 basechar 0
AnchorPoint: "above" 423 670 basechar 0
LayerCount: 4
Fore
SplineSet
85 694 m 1
 202 694 l 1
 424 273 l 1
 651 694 l 1
 760 694 l 1
 760 0 l 1
 677 0 l 1
 677 575 l 1
 464 199 l 1
 381 199 l 1
 168 575 l 1
 168 0 l 1
 85 0 l 1
 85 694 l 1
EndSplineSet
Layer: 3
SplineSet
146.6015625 693.84765625 m 5
 263.7890625 693.84765625 l 5
 517.6953125 213.37890625 l 5
 454.21875 213.37890625 l 5
 712.51953125 693.84765625 l 5
 822.3828125 693.84765625 l 5
 822.3828125 0 l 5
 739.375 0 l 5
 739.375 666.50390625 l 5
 791.62109375 666.50390625 l 5
 525.99609375 198.73046875 l 5
 442.98828125 198.73046875 l 5
 177.475585938 666.50390625 l 5
 229.609375 666.50390625 l 5
 229.609375 0 l 5
 146.6015625 0 l 5
 146.6015625 693.84765625 l 5
EndSplineSet
EndChar

StartChar: hyphen
Encoding: 45 45 45
Width: 400
VWidth: 1023
Flags: HW
HStem: 288 67<55 345>
VStem: 55 290<288 355>
LayerCount: 4
Fore
SplineSet
55 355 m 5
 345 355 l 5
 345 288 l 5
 55 288 l 5
 55 355 l 5
EndSplineSet
Layer: 3
SplineSet
85.4492 355.469 m 1
 505.371 355.469 l 1
 505.371 287.598 l 1
 85.4492 287.598 l 1
 85.4492 355.469 l 1
EndSplineSet
EndChar

StartChar: J
Encoding: 74 74 46
Width: 395
VWidth: 1023
Flags: HW
HStem: -8 72<30.8911 190.563> 673 20G<246 329>
VStem: 246 83<116.872 693>
AnchorPoint: "below" 158 0 basechar 0
AnchorPoint: "cedilla" 98 0 basechar 0
AnchorPoint: "above" 258 670 basechar 0
LayerCount: 4
Fore
SplineSet
222 693 m 1
 305 693 l 1
 305 208 l 2
 305 133 294 91 257 52 c 0
 219 11 164 -8 91 -8 c 0
 60 -8 29 -5 -4 3 c 1
 9 73 l 1
 34 67 57 64 79 64 c 0
 151 64 203 96 217 152 c 0
 220 164 222 182 222 204 c 2
 222 693 l 1
EndSplineSet
Layer: 3
SplineSet
279.785 692.871 m 1
 362.793 692.871 l 1
 362.793 208.008 l 2
 362.793 179.96 362.197 151.6 355.017 124.486 c 0
 347.836 97.373 334.154 71.9062 314.821 51.5859 c 0
 295.488 31.2666 270.925 16.2461 244.562 6.66797 c 0
 218.201 -2.90918 190.14 -7.30664 162.109 -8.30078 c 0
 125.674 -9.5918 89.1025 -5.33594 53.7109 3.41797 c 1
 66.8945 72.7539 l 1
 96.5898 65.8213 127.333 62.8154 157.715 65.4297 c 0
 175.033 66.9199 192.275 70.3857 208.376 76.9395 c 0
 224.476 83.4932 239.365 93.2832 251.021 106.178 c 0
 262.678 119.074 270.858 134.977 275.147 151.822 c 0
 279.436 168.667 279.785 186.23 279.785 203.613 c 2
 279.785 692.871 l 1
EndSplineSet
EndChar

StartChar: R
Encoding: 82 82 47
Width: 618
VWidth: 1023
Flags: HW
HStem: 0 21G<85 168 477.034 583> 289 73<168 302> 621 73<168 404.684>
VStem: 85 83<0 289 362 621> 460 83<419.529 567.436>
AnchorPoint: "cedilla" 127 0 basechar 0
AnchorPoint: "below" 305 0 basechar 0
AnchorPoint: "above" 305 670 basechar 0
LayerCount: 4
Fore
SplineSet
543 505 m 0
 543 394 484 318 387 298 c 1
 583 0 l 1
 490 0 l 1
 302 290 l 1
 292 290 272 289 241 289 c 2
 168 289 l 1
 168 0 l 1
 85 0 l 1
 85 694 l 1
 339 694 l 2
 413 694 456 683 492 645 c 0
 525 610 543 563 543 505 c 0
168 362 m 1
 251 362 l 2
 296 362 323 363 334 364 c 0
 391 369 429 393 448 436 c 0
 456 454 460 473 460 492 c 0
 460 560 421 604 363 616 c 0
 348 619 326 621 295 621 c 2
 168 621 l 1
 168 362 l 1
EndSplineSet
Layer: 3
SplineSet
345.33203125 318.84765625 m 1
 435.6640625 318.84765625 l 1
 645.13671875 0 l 1
 552.36328125 0 l 1
 345.33203125 318.84765625 l 1
146.6015625 693.84765625 m 1
 401.484375 693.84765625 l 2
 429.564453125 693.84765625 458.0078125 693.22265625 485.010742188 685.517578125 c 0
 512.016601562 677.817382812 537.08984375 663.0859375 556.26953125 642.578125 c 0
 573.276367188 624.39453125 585.600585938 602.084960938 593.344726562 578.41796875 c 0
 601.083984375 554.755859375 604.4921875 529.780273438 604.609375 504.8828125 c 0
 604.750976562 475.537109375 600.385742188 446.05078125 590.439453125 418.44140625 c 0
 580.498046875 390.831054688 564.545898438 365.231445312 543.0859375 345.21484375 c 0
 512.221679688 316.42578125 470.9609375 300.779296875 429.234375 294.435546875 c 0
 387.506835938 288.08984375 345.057617188 289.061523438 302.8515625 289.061523438 c 2
 179.31640625 289.061523438 l 1
 179.31640625 362.3046875 l 1
 312.6171875 362.3046875 l 2
 340.388671875 362.3046875 368.228515625 361.325195312 395.892578125 363.755859375 c 0
 423.55859375 366.185546875 451.533203125 373.47265625 473.75 390.13671875 c 0
 489.384765625 401.865234375 501.708984375 417.826171875 509.658203125 435.68359375 c 0
 517.602539062 453.5390625 521.416015625 473.130859375 521.6015625 492.67578125 c 0
 521.762695312 509.819335938 519.12109375 527.05078125 513.18359375 543.134765625 c 0
 507.24609375 559.21875 497.856445312 574.086914062 485.46875 585.938476562 c 0
 468.9296875 601.7578125 447.328125 611.665039062 424.931640625 616.381835938 c 0
 402.53515625 621.09375 379.450195312 621.09375 356.561523438 621.09375 c 2
 230.09765625 621.09375 l 1
 230.09765625 0 l 1
 146.6015625 0 l 1
 146.6015625 693.84765625 l 1
EndSplineSet
EndChar

StartChar: D
Encoding: 68 68 48
Width: 718
VWidth: 1023
Flags: HMW
HStem: 0 73<177 421.488> 621 73<177 419.887>
VStem: 85 92<74 620> 567 96<219.103 478.219>
AnchorPoint: "cedilla" 337 0 basechar 0
AnchorPoint: "below" 337 0 basechar 0
AnchorPoint: "above" 337 670 basechar 0
LayerCount: 4
Back
SplineSet
229.609375 620.60546875 m 1
 229.609375 73.2421875 l 1
 330.68359375 73.2421875 l 2
 361.338867188 73.2421875 392.1328125 73.4501953125 422.41015625 78.251953125 c 0
 452.688476562 83.0546875 482.38671875 92.533203125 508.90625 107.91015625 c 0
 545.991210938 129.412109375 575.991210938 162.42578125 595.33203125 200.68359375 c 0
 616.762695312 243.083984375 626.069335938 290.892578125 627.55859375 338.37890625 c 0
 629.404296875 397.1171875 618.969726562 457.561523438 588.49609375 507.811523438 c 0
 565.356445312 545.966796875 530.961914062 577.153320312 490.83984375 596.6796875 c 0
 471.35546875 606.162109375 450.521484375 612.856445312 429.166015625 616.5234375 c 0
 407.80859375 620.190429688 386.043945312 620.60546875 364.375 620.60546875 c 2
 229.609375 620.60546875 l 1
  Spiro
    229.609 620.605 v
    229.609 73.2422 v
    330.684 73.2422 ]
    508.906 107.91 o
    595.332 200.684 o
    627.559 338.379 o
    588.496 507.812 o
    490.84 596.68 o
    364.375 620.605 [
    0 0 z
  EndSpiro
146.6015625 693.84765625 m 1
 340.44921875 693.84765625 l 2
 404.916992188 693.84765625 470.69921875 689.8828125 530.390625 665.52734375 c 0
 583.403320312 643.896484375 630.678710938 607.182617188 661.73828125 559.08203125 c 0
 702.133789062 496.5234375 713.803710938 419.12109375 710.56640625 344.7265625 c 0
 708.608398438 299.720703125 701.513671875 254.76953125 687.211914062 212.052734375 c 0
 672.91015625 169.3359375 650.68359375 128.936523438 619.74609375 96.19140625 c 0
 581.328125 55.525390625 529.970703125 28.236328125 475.703125 14.6484375 c 0
 417.56640625 0.0927734375 356.923828125 0 296.9921875 0 c 2
 146.6015625 0 l 1
 146.6015625 693.84765625 l 1
  Spiro
    146.602 693.848 v
    340.449 693.848 ]
    530.391 665.527 o
    661.738 559.082 o
    710.566 344.727 o
    619.746 96.1914 o
    475.703 14.6484 o
    296.992 0 [
    146.602 0 v
    0 0 z
  EndSpiro
EndSplineSet
Fore
SplineSet
663 347 m 0
 663 114 522 0 282 0 c 2
 85 0 l 1
 85 693 l 1
 314 693 l 2
 536 693 663 570 663 347 c 0
567 354 m 0
 567 534 473 620 293 620 c 2
 177 620 l 1
 177 74 l 1
 294 74 l 2
 480 74 567 167 567 354 c 0
EndSplineSet
Layer: 3
SplineSet
237.998046875 619.51171875 m 1
 237.998046875 74.3603515625 l 1
 354.986328125 74.3603515625 l 2
 515.073242188 74.3603515625 628.271484375 142.08984375 628.271484375 353.330078125 c 0
 628.271484375 553.676757812 513.65234375 619.51171875 353.564453125 619.51171875 c 2
 237.998046875 619.51171875 l 1
146.11328125 693.3984375 m 1
 374.404296875 693.3984375 l 2
 594.643554688 693.3984375 723.9453125 569.306640625 723.9453125 356.171875 c 0
 723.9453125 117.934570312 590.853515625 0 342.670898438 0 c 2
 146.11328125 0 l 1
 146.11328125 693.3984375 l 1
EndSplineSet
EndChar

StartChar: P
Encoding: 80 80 49
Width: 584
VWidth: 1023
Flags: HW
HStem: 0 21G<85 168> 288 72<168 398.035> 621 73<168 404.783>
VStem: 85 83<0 291 362.441 621> 461 84<421.027 569.074>
AnchorPoint: "below" 305 0 basechar 0
AnchorPoint: "cedilla" 127 0 basechar 0
AnchorPoint: "above" 305 670 basechar 0
LayerCount: 4
Fore
SplineSet
85 694 m 1
 303 694 l 2
 399 694 448 688 493 645 c 1
 527 611 545 567 545 512 c 0
 545 406 497 334 416 307 c 0
 380 295 309 288 251 288 c 0
 225 288 197 289 168 291 c 1
 168 0 l 1
 85 0 l 1
 85 694 l 1
257 360 m 0
 295 360 351 365 370 370 c 0
 421 383 461 430 461 494 c 0
 461 569 414 611 345 618 c 0
 332 620 303 621 258 621 c 2
 168 621 l 1
 168 364 l 1
 201 361 231 360 257 360 c 0
EndSplineSet
Layer: 3
SplineSet
146.6015625 693.84765625 m 1
 365.3515625 693.84765625 l 2
 399.32421875 693.84765625 433.575195312 694.08203125 466.899414062 687.470703125 c 0
 500.224609375 680.864257812 532.543945312 666.40625 556.7578125 642.578125 c 0
 577.250976562 622.407226562 591.40625 596.245117188 598.916015625 568.491210938 c 0
 606.42578125 540.737304688 607.836914062 511.533203125 605.09765625 482.91015625 c 0
 602.651367188 457.33203125 596.850585938 431.986328125 586.845703125 408.318359375 c 0
 576.845703125 384.650390625 562.34375 362.76171875 543.57421875 345.21484375 c 0
 523.647460938 326.58984375 499.130859375 313.204101562 473.143554688 304.919921875 c 0
 447.158203125 296.634765625 419.880859375 293.225585938 392.6953125 291.015625 c 0
 315.923828125 284.774414062 238.447265625 287.236328125 162.2265625 298.33984375 c 1
 175.8984375 370.60546875 l 1
 242.779296875 361.103515625 310.612304688 358.317382812 378.046875 362.3046875 c 0
 394.970703125 363.3046875 411.955078125 364.779296875 428.3984375 368.908203125 c 0
 444.841796875 373.037109375 460.6953125 379.938476562 474.23828125 390.13671875 c 0
 488.876953125 401.16015625 500.600585938 415.90234375 508.5546875 432.412109375 c 0
 516.513671875 448.919921875 520.888671875 467.06640625 522.08984375 485.3515625 c 0
 523.295898438 503.73046875 521.298828125 522.407226562 515.400390625 539.853515625 c 0
 509.501953125 557.3046875 499.477539062 573.427734375 485.95703125 585.938476562 c 0
 475.345703125 595.756835938 462.708984375 603.295898438 449.2265625 608.515625 c 0
 435.744140625 613.740234375 421.466796875 616.704101562 407.103515625 618.359375 c 0
 378.376953125 621.669921875 349.345703125 620.60546875 320.4296875 620.60546875 c 2
 229.609375 620.60546875 l 1
 229.609375 0 l 1
 146.6015625 0 l 1
 146.6015625 693.84765625 l 1
EndSplineSet
EndChar

StartChar: B
Encoding: 66 66 50
Width: 627
VWidth: 1023
Flags: MW
HStem: 0 73<168 427.444> 340 60<168 371.819> 621 73<168 391.71>
VStem: 85 83<73 333 397 630> 440 80<456.049 587.086> 495 82<131.524 273.431>
AnchorPoint: "below" 273 0 basechar 0
AnchorPoint: "cedilla" 273 0 basechar 0
AnchorPoint: "above" 273 670 basechar 0
LayerCount: 4
Fore
SplineSet
440 523 m 0xf8
 440 595 385 630 301 630 c 2
 168 630 l 1
 168 397 l 1
 256 400 l 1
 379 403 440 444 440 523 c 0xf8
495 202 m 0xf4
 495 296 411 340 310 340 c 0
 303 340 296 339 289 339 c 2
 168 333 l 1
 168 73 l 1
 321 73 l 2
 415 73 495 109 495 202 c 0xf4
430 388 m 1
 509 373 577 301 577 210 c 0xf4
 577 152 555 103 511 63 c 0
 464 21 397 0 310 0 c 2
 85 0 l 1
 85 694 l 1
 329 694 l 2
 438 694 520 632 520 527 c 0xf8
 520 470 471 404 430 388 c 1
EndSplineSet
Layer: 3
SplineSet
146.6015625 693.84765625 m 5
 391.23046875 693.84765625 l 6
 565.546875 693.84765625 582.1484375 562.98828125 582.1484375 526.85546875 c 4
 582.1484375 467.28515625 532.83203125 403.3203125 492.3046875 387.6953125 c 5
 578.73046875 372.0703125 639.27734375 295.8984375 639.27734375 210.44921875 c 4
 639.27734375 147.4609375 599.7265625 0 372.188476562 0 c 6
 146.6015625 0 l 5
 146.6015625 693.84765625 l 5
229.609375 333.0078125 m 5
 229.609375 73.2421875 l 5
 356.07421875 73.2421875 l 6
 385.859375 73.2421875 556.7578125 64.94140625 556.7578125 201.66015625 c 4
 556.7578125 294.921875 473.75 345.703125 351.19140625 339.35546875 c 6
 229.609375 333.0078125 l 5
229.609375 630.37109375 m 5
 229.609375 397.4609375 l 5
 317.98828125 399.90234375 l 6
 350.786132812 400.80859375 502.0703125 401.85546875 502.0703125 522.94921875 c 4
 502.0703125 565.91796875 481.07421875 630.37109375 363.3984375 630.37109375 c 6
 229.609375 630.37109375 l 5
EndSplineSet
EndChar

StartChar: U
Encoding: 85 85 51
Width: 699
VWidth: 1023
Flags: HW
HStem: -10 72<248.804 449.161> 674 20G<86 169 530 613>
VStem: 86 83<137.119 694> 530 83<140.498 694>
AnchorPoint: "below" 349 0 basechar 0
AnchorPoint: "cedilla" 349 0 basechar 0
AnchorPoint: "above" 349 670 basechar 0
LayerCount: 4
Fore
SplineSet
614 223 m 0
 611 59 517 -10 349 -10 c 0
 245 -10 172 17 128 73 c 0
 96 113 85 160 85 223 c 0
 85 232 85 246 85 265 c 0
 85 284 86 296 86 303 c 2
 86 694 l 1
 169 694 l 1
 169 244 l 2
 169 182 176 150 207 115 c 0
 237 81 287 62 349 62 c 0
 436 62 504 101 523 172 c 0
 528 191 530 215 530 244 c 2
 530 694 l 1
 613 694 l 1
 613 265 l 2
 613 246 614 232 614 223 c 0
EndSplineSet
Layer: 3
SplineSet
146.6015625 693.84765625 m 1
 229.609375 693.84765625 l 1
 229.609375 244.140625 l 2
 229.609375 221.553710938 230.033203125 198.7421875 235.46484375 176.818359375 c 0
 240.89453125 154.89453125 251.291015625 134.127929688 266.23046875 117.188476562 c 0
 283.755859375 97.314453125 307.079101562 82.9951171875 332.103515625 74.287109375 c 0
 357.129882812 65.580078125 383.776367188 62.01171875 410.2734375 62.01171875 c 0
 436.771484375 62.01171875 463.416992188 65.580078125 488.442382812 74.287109375 c 0
 513.466796875 82.9951171875 536.791992188 97.314453125 554.31640625 117.188476562 c 0
 569.252929688 134.127929688 579.653320312 154.89453125 585.083007812 176.818359375 c 0
 590.512695312 198.7421875 590.938476562 221.553710938 590.938476562 244.140625 c 2
 590.938476562 693.84765625 l 1
 673.9453125 693.84765625 l 1
 673.9453125 302.734375 l 2
 673.9453125 250.458984375 678.383789062 197.3046875 666.1328125 146.484375 c 0
 659.760742188 120.045898438 648.154296875 94.767578125 631.333007812 73.4013671875 c 0
 614.506835938 52.03515625 592.734375 34.7509765625 568.623046875 22.166015625 c 0
 520.41015625 -3.00390625 464.665039062 -10.25390625 410.2734375 -10.25390625 c 0
 355.881835938 -10.25390625 300.138671875 -3.00390625 251.921875 22.166015625 c 0
 227.811523438 34.7509765625 206.041015625 52.03515625 189.215820312 73.4013671875 c 0
 172.390625 94.767578125 160.787109375 120.045898438 154.4140625 146.484375 c 0
 142.162109375 197.3046875 146.6015625 250.458984375 146.6015625 302.734375 c 2
 146.6015625 693.84765625 l 1
EndSplineSet
EndChar

StartChar: Q
Encoding: 81 81 52
Width: 763
VWidth: 1023
Flags: MW
HStem: 0 73<291.485 492.991> 621 73<282.467 475.788>
VStem: 55 85<226.38 477.329> 622 85<205.171 470.101>
AnchorPoint: "below" 383 0 basechar 0
AnchorPoint: "cedilla" 383 0 basechar 0
AnchorPoint: "above" 383 670 basechar 0
LayerCount: 4
Fore
SplineSet
383 701 m 0
 385 701 386 701 388 701 c 0
 487 701 570 657 621 601 c 0
 678 537 707 452 707 346 c 0
 707 249 683 169 634 107 c 1
 722 20 l 1
 678 -27 l 1
 586 59 l 1
 529 14 462 -7 383 -7 c 0
 281 -7 204 30 149 85 c 0
 92 142 55 237 55 347 c 0
 55 464 98 560 162 620 c 1
 221 674 294 701 383 701 c 0
383 628 m 0
 232 626 140 512 140 357 c 0
 140 226 193 133 284 90 c 0
 318 74 352 65 390 65 c 0
 445 65 493 80 532 111 c 1
 378 256 l 1
 429 309 l 1
 578 162 l 1
 607 206 622 262 622 328 c 0
 622 466 577 552 493 599 c 0
 457 619 420 628 383 628 c 0
EndSplineSet
Layer: 3
SplineSet
484.00390625 309.08203125 m 1
 777.4609375 20.01953125 l 1
 732.5390625 -27.34375 l 1
 432.734375 256.34765625 l 1
 484.00390625 309.08203125 l 1
430.78125 628.41796875 m 0
 366.821289062 627.866210938 303.036132812 600.33203125 260.859375 552.24609375 c 0
 236.500976562 524.47265625 219.41796875 490.732421875 209.095703125 455.26171875 c 0
 198.771484375 419.793945312 194.763671875 382.63671875 195.4296875 345.703125 c 0
 196.658203125 277.630859375 214.323242188 207.869140625 256.953125 154.78515625 c 0
 279.143554688 127.15234375 307.7265625 104.728515625 339.75 89.544921875 c 0
 371.771484375 74.361328125 407.069335938 66.2197265625 442.5 65.4296875 c 0
 474.514648438 64.7158203125 506.7578125 70.046875 536.46484375 82.0078125 c 0
 566.166992188 93.96875 593.149414062 112.7421875 614.375 136.71875 c 0
 639.04296875 164.5859375 655.610351562 199.044921875 665.112304688 235.029296875 c 0
 674.614257812 271.013671875 677.700195312 308.494140625 676.875 345.703125 c 0
 675.576171875 404.185546875 664.575195312 463.759765625 634.8828125 514.16015625 c 0
 614.146484375 549.360351562 584.096679688 579.096679688 548.364257812 598.911132812 c 0
 512.631835938 618.725585938 471.63671875 628.76953125 430.78125 628.41796875 c 0
440.05859375 701.171875 m 0
 484.127929688 700.834960938 528.247070312 692.583007812 568.994140625 675.786132812 c 0
 609.736328125 658.989257812 646.899414062 633.33984375 676.38671875 600.5859375 c 0
 707.065429688 566.50390625 729.155273438 525.1171875 742.87109375 481.359375 c 0
 756.58203125 437.599609375 762.436523438 391.560546875 762.32421875 345.703125 c 0
 762.20703125 297.859375 755.615234375 249.831054688 740.400390625 204.469726562 c 0
 725.190429688 159.109375 700.727539062 116.560546875 667.109375 82.51953125 c 0
 636.89453125 51.92578125 599.614257812 28.5244140625 559.282226562 13.6259765625 c 0
 518.9453125 -1.2724609375 475.727539062 -7.982421875 432.734375 -7.32421875 c 0
 350.240234375 -6.0615234375 266.942382812 23.685546875 208.125 81.54296875 c 0
 173.734375 115.37109375 148.3515625 157.869140625 132.518554688 203.435546875 c 0
 116.685546875 249.00390625 109.83203125 297.463867188 109.98046875 345.703125 c 0
 110.13671875 396.16015625 117.91796875 446.806640625 135.287109375 494.1796875 c 0
 152.65625 541.552734375 180.280273438 585.454101562 217.40234375 619.62890625 c 0
 276.94921875 674.448242188 359.123046875 701.787109375 440.05859375 701.171875 c 0
EndSplineSet
EndChar

StartChar: W
Encoding: 87 87 53
Width: 975
VWidth: 1023
Flags: HW
HStem: 0 21G<221.718 321.862 662.69 762.994> 674 20G<10 105.003 442.997 539.175 877.168 965>
AnchorPoint: "below" 486 0 basechar 0
AnchorPoint: "cedilla" 486 0 basechar 0
AnchorPoint: "above" 486 670 basechar 0
LayerCount: 4
Fore
SplineSet
10 694 m 1
 99 694 l 1
 274 111 l 1
 449 694 l 1
 533 694 l 1
 713 111 l 1
 883 694 l 1
 965 694 l 1
 757 0 l 1
 669 0 l 1
 486 580 l 1
 316 0 l 1
 228 0 l 1
 10 694 l 1
EndSplineSet
Layer: 3
SplineSet
68.3594 693.848 m 1
 157.227 693.848 l 1
 361.816 9.27734 l 1
 300.781 9.27734 l 1
 507.324 693.848 l 1
 590.82 693.848 l 1
 802.734 9.27734 l 1
 741.699 9.27734 l 1
 940.918 693.848 l 1
 1022.95 693.848 l 1
 814.941 0 l 1
 726.562 0 l 1
 519.531 658.203 l 1
 567.383 658.203 l 1
 374.023 0 l 1
 285.645 0 l 1
 68.3594 693.848 l 1
EndSplineSet
EndChar

StartChar: C
Encoding: 67 67 54
Width: 648
VWidth: 1023
Flags: HMW
HStem: -10 73<311.92 559.233> 621 73<308.55 556.397>
VStem: 55 95<231.433 466.293>
AnchorPoint: "below" 375 0 basechar 0
AnchorPoint: "cedilla" 351 0 basechar 0
AnchorPoint: "above" 375 670 basechar 0
LayerCount: 4
Back
SplineSet
189 346 m 4
 189 235.129882812 234.021484375 147.319335938 302 102 c 4
 338 78 379 66 424 66 c 4
 526.563476562 66 593.678710938 127.826171875 629 202 c 4
 649 244 659 292 659 346 c 4
 659 456.418945312 613.666992188 544.888671875 546 590 c 4
 510 614 469 626 424 626 c 4
 321.436523438 626 254.321289062 564.173828125 219 490 c 4
 199 448 189 400 189 346 c 4
95 346 m 4
 95 492.311523438 155.153320312 600.989257812 250 656 c 4
 300 685 358 700 424 700 c 4
 565.134765625 700 662.819335938 630.362304688 712 532 c 4
 739 478 753 416 753 346 c 4
 753 200.125976562 691.693359375 90.921875 597 36 c 4
 547 7 490 -8 424 -8 c 4
 281.870117188 -8 184.958984375 61.931640625 135 160 c 4
 108 213 95 276 95 346 c 4
EndSplineSet
Fore
SplineSet
581 598 m 1
 518 620 489 628 410 628 c 0
 332 628 263 590 223 547 c 0
 175 495 150 430 150 349 c 0
 150 231 205 146 283 101 c 0
 325 77 374 66 429 66 c 0
 484 66 537 77 592 99 c 1
 613 32 l 1
 551 4 482 -10 404 -10 c 0
 293 -10 206 32 150 90 c 1
 87 156 55 242 55 348 c 0
 55 456 97 546 152 603 c 0
 205 657 294 703 395 703 c 0
 486 703 538 691 604 666 c 1
 581 598 l 1
EndSplineSet
Layer: 3
SplineSet
472.333984375 697.241210938 m 0
 553.510742188 697.241210938 611.958007812 682.861328125 669.94140625 660.595703125 c 1
 646.748046875 593.334960938 l 1
 589.228515625 612.817382812 551.19140625 622.55859375 482.5390625 622.55859375 c 0
 324.360351562 622.55859375 220.454101562 503.344726562 220.454101562 345.630859375 c 0
 220.454101562 179.1015625 331.318359375 64.990234375 497.846679688 64.990234375 c 0
 559.077148438 64.990234375 604.536132812 76.123046875 657.880859375 97.9248046875 c 1
 679.21875 31.591796875 l 1
 621.69921875 5.1513671875 558.61328125 -10.15625 472.333984375 -10.15625 c 0
 261.73828125 -10.15625 126.2890625 136.42578125 126.2890625 345.166015625 c 0
 126.2890625 549.267578125 267.3046875 697.241210938 472.333984375 697.241210938 c 0
EndSplineSet
EndChar

StartChar: S
Encoding: 83 83 55
Width: 581
VWidth: 1023
Flags: MW
HStem: 0 73<152.544 377.194> 621 73<211.253 404.735>
VStem: 67 86<464.409 585.202> 439 90<124.411 240.321>
LayerCount: 4
Fore
SplineSet
273 72 m 0
 354.776367188 72 439 106.34375 439 182 c 0
 439 224 414 256 365 278 c 0
 294.455078125 310.06640625 210.443359375 335.01953125 146 373.099609375 c 0
 106.053710938 396.704101562 67 453.234375 67 514.099609375 c 0
 67 577.432617188 90.185546875 625.723632812 129 656.099609375 c 0
 178.063476562 694.497070312 225.680664062 707.099609375 316 707.099609375 c 0
 363 707.099609375 432 684.099609375 491 660.099609375 c 1
 466 588.099609375 l 1
 415 611.100585938 358.998046875 634.64453125 313 635.099609375 c 0
 212 636.100585938 151 590.099609375 153 520.099609375 c 0
 154 485.114257812 174 454 213 434 c 0
 248 416 280 403.099609375 322 387 c 0
 386.99609375 362.084960938 425.713867188 349.706054688 471 317 c 0
 510 288 529 247 529 194 c 0
 529 155 516 118 491 84 c 0
 446.118164062 25.1884765625 367.919921875 -9 261 -9 c 0
 171.513671875 -9 120.7734375 9.779296875 50 37 c 1
 79 118 l 1
 160 88 225 72 273 72 c 0
EndSplineSet
Layer: 3
SplineSet
395.87890625 700.1953125 m 0
 458.37890625 700.1953125 521.3671875 686.5234375 568.2421875 672.36328125 c 1
 541.38671875 596.6796875 l 1
 519.4140625 603.02734375 450.078125 622.0703125 389.04296875 622.0703125 c 0
 294.8046875 622.0703125 216.6796875 578.125 216.6796875 512.6953125 c 0
 216.6796875 361.81640625 591.19140625 417.96875 591.19140625 193.84765625 c 0
 591.19140625 104.4921875 518.92578125 -9.27734375 323.125 -9.27734375 c 0
 240.60546875 -9.27734375 179.08203125 10.7421875 112.188476562 37.109375 c 1
 140.5078125 117.67578125 l 1
 229.86328125 84.47265625 292.36328125 72.265625 333.37890625 72.265625 c 0
 431.03515625 72.265625 500.859375 114.74609375 500.859375 181.640625 c 0
 500.859375 346.19140625 126.34765625 278.3203125 126.34765625 499.0234375 c 0
 126.34765625 606.4453125 231.328125 700.1953125 395.87890625 700.1953125 c 0
EndSplineSet
EndChar

StartChar: at
Encoding: 64 64 56
Width: 1025
VWidth: 1023
Flags: HW
HStem: -199 70<381.986 642.799> -11 67<449.115 596.665 728.213 826.216> 417 63<460.973 633.792> 616 68<403.643 681.58>
VStem: 77 86<100.119 370.697> 297 88<126.673 332.566> 635 77<88.4764 407.31> 881 83<144.385 416.849>
LayerCount: 4
Back
SplineSet
645.996 472.656 m 5
 701.172 472.656 l 5
 699.707 123.047 l 6
 699.653 110.273 699.531 97.4766 700.669 84.7549 c 4
 701.807 72.0332 704.302 59.3037 709.595 47.6797 c 4
 714.888 36.0557 723.135 25.6211 733.906 18.75 c 4
 744.673 11.8789 757.812 8.83301 770.508 10.2539 c 4
 787.7 12.1777 803.247 21.8975 815.43 34.1797 c 4
 828.623 47.4795 838.696 63.6211 846.68 80.5664 c 4
 872.974 136.375 877.222 200.03 876.465 261.719 c 4
 875.947 304.16 872.271 346.78 861.777 387.906 c 4
 851.279 429.033 833.081 468.575 805.664 500.977 c 4
 781.143 529.956 749.717 552.769 715.332 568.848 c 4
 661.201 594.16 600.771 604.062 541.016 604.492 c 4
 470.471 604.995 398.461 591.343 337.891 555.176 c 4
 278.573 519.756 233.471 463.037 206.543 399.414 c 4
 181.696 340.708 170.298 276.639 170.41 212.891 c 4
 170.547 135.005 189.568 55.5488 234.863 -7.8125 c 4
 264.729 -49.5918 305.405 -83.4404 351.562 -105.957 c 4
 415.218 -137.01 489.058 -146.763 558.594 -133.301 c 4
 586.465 -127.904 613.628 -118.854 639.16 -106.445 c 5
 669.922 -164.551 l 5
 643.877 -178.023 616.294 -188.514 587.891 -195.801 c 4
 503.315 -217.5 412.363 -210.842 330.078 -181.641 c 4
 264.727 -158.448 204.056 -119.184 162.109 -63.9648 c 4
 134.932 -28.1875 116.017 13.5137 104.591 56.9668 c 4
 93.166 100.42 88.7402 145.502 88.3789 190.43 c 4
 87.7461 269.055 98.2734 348.475 126.465 421.875 c 4
 159.625 508.213 222.166 583.799 303.711 627.441 c 4
 380.87 668.735 470.103 683.218 557.617 683.105 c 4
 618.545 683.027 680.039 675.708 737.305 654.897 c 4
 794.57 634.087 846.821 598.12 883.301 549.316 c 4
 913.525 508.887 932.612 460.918 943.56 411.642 c 4
 954.502 362.364 958.364 311.708 958.496 261.23 c 4
 958.604 220.584 956.143 179.778 948.042 139.947 c 4
 939.946 100.115 925.713 61.0879 902.344 27.832 c 4
 886.26 4.94434 865.903 -15.0605 842.124 -29.7979 c 4
 818.35 -44.5352 791.108 -53.9883 763.184 -55.6641 c 4
 742.866 -56.8828 722.217 -53.9102 703.364 -46.2334 c 4
 684.512 -38.5557 667.593 -26.1045 654.858 -10.2246 c 4
 642.124 5.65625 633.735 24.7959 629.443 44.6934 c 4
 625.151 64.5918 624.937 85.1133 625 105.469 c 6
 625.977 414.551 l 5
 645.996 472.656 l 5
  Spiro
    645.996 472.656 v
    701.172 472.656 v
    699.707 123.047 ]
    770.508 10.2539 o
    815.43 34.1797 o
    846.68 80.5664 o
    876.465 261.719 o
    805.664 500.977 o
    715.332 568.848 o
    541.016 604.492 o
    337.891 555.176 o
    206.543 399.414 o
    170.41 212.891 o
    234.863 -7.8125 o
    351.562 -105.957 o
    558.594 -133.301 o
    639.16 -106.445 v
    669.922 -164.551 v
    587.891 -195.801 o
    330.078 -181.641 o
    162.109 -63.9648 o
    88.3789 190.43 o
    126.465 421.875 o
    303.711 627.441 o
    557.617 683.105 o
    883.301 549.316 o
    958.496 261.23 o
    902.344 27.832 o
    763.184 -55.6641 o
    625 105.469 [
    625.977 414.551 v
    0 0 z
  EndSpiro
540.039 468.75 m 4
 566.196 466.015 591.895 459.246 616.211 449.219 c 4
 630.22 443.44 643.784 436.574 656.738 428.711 c 5
 631.348 385.254 l 5
 616.714 392.059 601.514 397.643 585.938 401.855 c 4
 556.421 409.84 525.239 412.979 495.117 407.715 c 4
 474.732 404.152 454.985 396.633 437.744 385.189 c 4
 420.502 373.747 405.895 358.426 395.02 340.82 c 4
 375.273 308.854 367.802 270.483 367.676 232.91 c 4
 367.555 196.895 374.216 160.174 392.09 128.906 c 4
 406.17 104.277 427.406 83.7725 452.637 70.8008 c 4
 479.802 56.834 511.04 51.5117 541.504 53.7109 c 4
 588.081 57.0723 633.008 77.3867 667.48 108.887 c 5
 685.059 65.4297 l 5
 639.16 21.8086 577.881 -5.97363 514.648 -9.27734 c 4
 480.793 -11.0459 446.401 -5.63379 415.332 7.93262 c 4
 384.262 21.5 356.859 43.3857 336.914 70.8008 c 4
 305.317 114.232 293.04 169.438 293.457 223.145 c 4
 293.695 253.865 297.92 284.629 306.937 313.998 c 4
 315.953 343.367 330.045 371.332 349.609 395.02 c 4
 371.037 420.963 399 441.441 430.176 454.102 c 4
 464.752 468.143 502.925 472.631 540.039 468.75 c 4
  Spiro
    540.039 468.75 o
    616.211 449.219 o
    656.738 428.711 v
    631.348 385.254 v
    585.938 401.855 o
    495.117 407.715 o
    395.02 340.82 o
    367.676 232.91 o
    392.09 128.906 o
    452.637 70.8008 o
    541.504 53.7109 o
    667.48 108.887 v
    685.059 65.4297 v
    514.648 -9.27734 o
    336.914 70.8008 o
    293.457 223.145 o
    349.609 395.02 o
    430.176 454.102 o
    0 0 z
  EndSpiro
EndSplineSet
Fore
SplineSet
712 146 m 2
 712 88 728 56 778 56 c 0
 813 56 834 82 849 109 c 0
 870 147 881 205 881 283 c 0
 881 356 865 419 832 473 c 0
 774 569 677 616 540 616 c 0
 421 616 329 572 268 511 c 0
 209 452 163 355 163 243 c 0
 163 90 221 -13 314 -73 c 0
 367 -107 431 -129 513 -129 c 0
 563 -129 616 -120 670 -102 c 1
 670 -169 l 1
 607 -189 546 -199 488 -199 c 0
 446 -199 407 -193 368 -183 c 0
 195 -136 77 19 77 236 c 0
 77 377 133 489 208 561 c 0
 277 627 398 684 523 684 c 0
 667 684 760 655 836 589 c 0
 880 551 913 508 934 450 c 1
 954 399 964 350 964 301 c 0
 964 179 937 95 876 38 c 0
 842 6 805 -11 765 -11 c 0
 710 -11 672 11 650 54 c 1
 612 11 564 -11 506 -11 c 0
 463 -11 426 0 394 20 c 0
 330 61 297 128 297 224 c 0
 297 305 320 369 366 414 c 0
 410 458 466 480 532 480 c 0
 569 480 609 472 652 455 c 1
 660 475 l 1
 712 475 l 1
 712 146 l 2
385 232 m 0
 385 130 427 58 524 58 c 0
 553 58 576 63 595 75 c 0
 614 87 627 99 636 111 c 1
 636 115 635 119 635 123 c 2
 635 400 l 1
 604 412 573 417 541 417 c 0
 440 417 385 336 385 232 c 0
EndSplineSet
Layer: 3
SplineSet
652.266 392.795 m 1
 613.252 410.236 581.123 417.121 541.191 417.121 c 0
 442.971 417.121 384.68 341.848 384.68 231.232 c 0
 384.68 121.994 435.168 57.7363 523.75 57.7363 c 0
 587.09 57.7363 628.398 94.9141 642.173 121.535 c 1
 665.122 74.2598 l 1
 640.332 37.082 590.303 -10.6523 505.85 -10.6523 c 0
 374.123 -10.6523 297.014 87.1113 297.014 223.889 c 0
 297.014 389.123 403.498 480.002 532.471 480.002 c 0
 575.156 480.002 615.547 469.904 658.691 452.004 c 1
 652.266 392.795 l 1
635.283 416.662 m 1
 660.073 474.494 l 1
 712.393 474.494 l 1
 712.393 145.861 l 2
 712.393 94.9141 725.244 56.3594 776.65 56.3594 c 0
 830.352 56.3594 880.84 122.453 880.84 283.098 c 0
 880.84 451.086 787.666 616.318 539.814 616.318 c 0
 318.127 616.318 162.99 462.561 162.99 236.74 c 0
 162.99 -50.125 397.072 -190.115 669.707 -101.99 c 1
 669.707 -169.461 l 1
 337.863 -271.814 76.7012 -90.9746 76.7012 236.281 c 0
 76.7012 503.408 274.064 684.248 539.814 684.248 c 0
 849.17 684.248 963.916 481.838 963.916 285.393 c 0
 963.916 90.3242 860.19 -10.6523 765.176 -10.6523 c 0
 681.182 -10.6523 635.283 45.3438 635.283 122.912 c 2
 635.283 416.662 l 1
EndSplineSet
EndChar

StartChar: question
Encoding: 63 63 57
Width: 510
VWidth: 1023
Flags: HW
HStem: 0 98<152 250> 632 70<77.4705 293.496>
VStem: 152 98<0 98> 159 83<191 281.203> 347 81<451.418 586.115>
LayerCount: 4
Fore
SplineSet
152 98 m 1xe8
 250 98 l 1
 250 0 l 1
 152 0 l 1
 152 98 l 1xe8
214 702 m 0
 334 702 428 652 428 536 c 0
 428 485 416 443 391 412 c 0
 380 398 367 385 354 373 c 2
 315 339 l 2
 283 312 264 287 255 263 c 0
 246 239 242 215 242 191 c 1
 159 191 l 1xd8
 159 246 171 290 196 324 c 0
 214 348 235 370 258 389 c 0
 304 425 347 454 347 522 c 0
 347 595 291 632 179 632 c 0
 144 632 109 624 74 609 c 1
 49 668 l 1
 94 690 149 702 214 702 c 0
EndSplineSet
Layer: 3
SplineSet
206.543 701.66 m 0
 342.285 701.66 427.734 647.949 427.734 535.645 c 0
 427.734 338.379 242.188 368.164 242.188 191.406 c 1
 159.18 191.406 l 1
 159.18 398.926 347.168 385.742 347.168 521.973 c 0
 347.168 563.965 322.266 631.836 193.359 631.836 c 0
 156.25 631.836 104.492 622.07 74.2188 608.887 c 1
 48.8281 668.457 l 1
 97.6562 692.383 152.832 701.66 206.543 701.66 c 0
151.855 97.6562 m 1
 249.512 97.6562 l 1
 249.512 0 l 1
 151.855 0 l 1
 151.855 97.6562 l 1
EndSplineSet
EndChar

StartChar: eight
Encoding: 56 56 58
Width: 634
VWidth: 1023
Flags: MW
HStem: -9 73<230.774 410.633> 340 65 621 73<238.786 398.022>
VStem: 73 85<129.825 268.901> 112 82<480.306 590.868> 442 80<475.656 591.023> 476 86<123.881 267.459>
LayerCount: 4
Fore
SplineSet
306 633 m 0xec
 252.358 633 194 589.102 194 536 c 0
 194 491 227 456 293 432 c 0
 303 428 315 425 329 420 c 2
 341 416 l 1
 384 443 412 464 424 480 c 0
 436 496 442 514 442 534 c 0
 442 577.855 410.759 608.207 378 622 c 0
 359 630 334 633 306 633 c 0xec
320 63 m 0
 406.154 63 476 112.483 476 194 c 0
 476 259 436 307 354 338 c 0
 339 344 322 349 303 354 c 1
 232.034 333.499 158 279.162 158 198 c 0xf2
 158 117.59 235.941 63 320 63 c 0
318 703 m 0
 437.791 703 522 648.338 522 534 c 0xec
 522 506 515 480 499 457 c 0
 483 434 458 411 424 387 c 1
 471 366 506 339 528 307 c 0
 550 275 562 239 562 200 c 0
 562 156 548 116 521 81 c 0
 475 20 408 -10 320 -10 c 0
 224.415 -10 146.933 29.3219 106 87 c 0
 84 118 73 152 73 191 c 0xf2
 73 283.498 143.128 353.204 212 386 c 1
 160 412 128 451 116 502 c 0
 113 514 112 528 112 545 c 0xe8
 112 588.656 139.545 629.657 166 653 c 0
 203 686 253 703 318 703 c 0
EndSplineSet
Layer: 3
SplineSet
313.954 703.145 m 0
 452.325 703.145 522.471 638.672 522.471 533.809 c 0
 522.471 475.045 488.442 432.729 424.523 386.896 c 1
 521.255 343.351 561.562 274.612 561.562 199.756 c 0
 561.562 96.1123 475.803 -9.77148 319.789 -9.77148 c 0
 184.165 -9.77148 73.1016 73.0176 73.1016 190.262 c 0
 73.1016 268.639 128.6 346.449 212.078 386.203 c 1
 128.139 428.533 112.209 497.822 112.209 536.128 c 0
 112.209 626.411 187.949 703.145 313.954 703.145 c 0
323.504 63.377 m 0
 417.405 63.377 476.107 122.723 476.107 193.623 c 0
 476.107 290.404 387.856 330.594 302.547 354.418 c 1
 209.512 327.129 158.207 260.414 158.207 197.745 c 0
 158.207 127.546 221.709 63.377 323.504 63.377 c 0
313.973 633.33 m 0
 245.833 633.33 193.844 587.217 193.844 535.801 c 0
 193.844 466.273 273.802 437.199 328.617 419.922 c 2
 340.605 416.174 l 1
 399.033 452.665 442.205 482.509 442.205 531.431 c 0
 442.205 597.656 382.564 633.33 313.973 633.33 c 0
EndSplineSet
EndChar

StartChar: nine
Encoding: 57 57 59
Width: 634
VWidth: 1023
Flags: MW
HStem: -12 73<168.201 301.09> 247 77<230.335 399.377> 621 73<232.91 397.837>
VStem: 82.8477 79.8867<390.555 559.173> 469.233 81.1045<312.674 554.992>
LayerCount: 4
Fore
SplineSet
163.047851562 60.251953125 m 17
 336.092773438 60.251953125 424.051757812 130.856445312 451.186523438 251.452148438 c 0
 454.186523438 264.452148438 457.186523438 293.452148438 460.186523438 314.452148438 c 1
 424.98828125 275.548828125 368.592773438 247.452148438 311.186523438 247.452148438 c 1
 243.186523438 248.452148438 175.186523438 271.452148438 134.186523438 318.452148438 c 0
 99.9609375 358.227539062 82.84765625 403.4140625 82.84765625 462.012695312 c 0
 82.84765625 604.022460938 169.592773438 703.452148438 317.186523438 703.452148438 c 0
 376.186523438 703.452148438 428.186523438 688.452148438 463.186523438 659.452148438 c 0
 531.071289062 603.205078125 550.337890625 525.266601562 550.337890625 407.456054688 c 0
 550.337890625 191.571289062 475.3125 56.2109375 326.186523438 8.4521484375 c 0
 283.506835938 -5.0625 216.299804688 -12 168.201171875 -12 c 9
 163.047851562 60.251953125 l 17
314.186523438 629.452148438 m 0
 212.592773438 629.452148438 162.734375 557.797851562 162.734375 468.618164062 c 0
 162.734375 382.528320312 225.79296875 325.358398438 314.543945312 325.358398438 c 0
 404.58203125 325.358398438 469.233398438 379.56640625 469.233398438 464.25 c 0
 469.233398438 555.831054688 416.592773438 629.452148438 314.186523438 629.452148438 c 0
EndSplineSet
Layer: 3
SplineSet
314.941 635.254 m 0
 294.895 635.317 274.92 630.469 256.863 621.758 c 0
 238.809 613.047 222.628 600.625 208.984 585.938 c 0
 183.396 558.394 166.398 522.388 164.062 484.863 c 0
 161.75 447.718 174.524 410.029 198.242 381.348 c 0
 226.585 347.074 270.002 325.686 314.453 324.219 c 0
 355.459 322.865 396.891 338.549 426.27 367.188 c 0
 454.634 394.838 470.941 434.528 469.727 474.121 c 0
 468.551 512.417 452.113 549.463 427.246 578.613 c 0
 413.207 595.068 396.329 609.219 377.191 619.302 c 0
 358.054 629.385 336.572 635.186 314.941 635.254 c 0
323.73 703.613 m 0
 374.715 703.882 426.32 687.612 465.332 654.785 c 0
 497.715 627.534 520.352 589.839 533.306 549.551 c 0
 546.255 509.258 550.493 466.631 551.27 424.316 c 0
 552.349 365.447 547.808 306.23 534.292 248.925 c 0
 520.771 191.619 496.006 136.024 456.055 92.7734 c 0
 421.218 55.0596 375.734 27.8408 326.861 12.1123 c 0
 277.988 -3.61621 226.125 -8.78027 174.805 -7.32422 c 0
 160.126 -6.9082 145.464 -5.92773 130.859 -4.39453 c 1
 136.719 67.8711 l 1
 167.854 64.6953 199.289 64.1875 230.469 66.8945 c 0
 261.801 69.6152 293.048 75.6836 322.146 87.6152 c 0
 351.243 99.5488 377.938 117.752 398.438 141.602 c 0
 427.2 175.066 442.221 218.333 449.855 261.794 c 0
 457.49 305.256 459.912 349.48 466.797 393.066 c 0
 467.569 397.956 468.383 402.839 469.238 407.715 c 1
 503.418 416.016 l 1
 499.189 384.33 485.95 353.934 465.82 329.102 c 0
 445.92 304.553 419.494 285.546 390.357 273.312 c 0
 361.221 261.077 329.449 255.401 297.852 255.859 c 0
 267.396 256.301 236.971 262.442 208.964 274.414 c 0
 180.957 286.387 155.447 304.346 135.254 327.148 c 0
 98.9307 368.166 81.3086 424.279 83.9844 479.004 c 0
 87.0215 541.128 115.551 601.821 162.109 643.066 c 0
 206.107 682.041 264.952 703.306 323.73 703.613 c 0
EndSplineSet
EndChar

StartChar: six
Encoding: 54 54 60
Width: 634
VWidth: 1023
Flags: HMW
HStem: -12 73<247.68 391.124> 387 67<236.757 394.902> 621 73<326.422 464.985>
VStem: 82.8481 81.1049<147.627 383.449> 470.452 79.886<143.045 310.67>
LayerCount: 4
UndoRedoHistory
Layer: 1
Undoes
EndUndoes
Redoes
EndRedoes
EndUndoRedoHistory
Fore
SplineSet
470.138671875 634.200195312 m 21
 297.092773438 634.200195312 209.134 560.596 182 440 c 0
 179 427 176 409 173 388 c 1
 208.198 426.903 263.686 455 335 455 c 1
 403 454 458 431 499 384 c 0
 533.225 344.225 550.338 295.038 550.338 236.439 c 0
 550.338 94.43 448.21 -12 316 -12 c 0
 257 -12 209 3 174 32 c 0
 106.115 88.2472 82.8481 166.186 82.8481 283.996 c 0
 82.8481 499.881 157.874023438 638.241210938 307 686 c 4
 349.678710938 699.514648438 416.88671875 706.452148438 464.985351562 706.452148438 c 13
 470.138671875 634.200195312 l 21
319 56 m 0
 407.324 56 470.452 140.654 470.452 229.834 c 0
 470.452 315.924 405.393 387.094 316.642 387.094 c 0
 226.604 387.094 163.953 318.886 163.953 234.202 c 0
 163.953 142.621 232.446 56 319 56 c 0
EndSplineSet
Layer: 3
SplineSet
319.336 386.719 m 0
 278.279 388.084 236.474 372.891 207.52 343.75 c 0
 177.434 313.472 162.754 269.715 164.062 227.051 c 0
 165.33 185.715 180.335 144.783 206.543 112.793 c 0
 220.271 96.0352 237.174 81.7832 256.401 71.8027 c 0
 275.629 61.8223 297.185 56.2393 318.848 56.1523 c 0
 338.927 56.0723 358.977 60.7051 377.109 69.3301 c 0
 395.243 77.9531 411.441 90.4814 424.805 105.469 c 0
 451.83 135.779 467.362 175.77 469.727 216.309 c 0
 472.075 256.582 460.744 298.086 435.547 329.59 c 0
 407.729 364.369 363.847 385.239 319.336 386.719 c 0
177.734 598.633 m 0
 212.539 636.382 258.027 663.618 306.908 679.336 c 0
 355.789 695.054 407.658 700.19 458.984 698.73 c 0
 473.663 698.311 488.325 697.334 502.93 695.801 c 1
 497.07 623.535 l 1
 465.953 626.958 434.488 627.441 403.32 624.512 c 0
 372.076 621.577 340.988 615.132 312.004 603.101 c 0
 283.02 591.074 256.346 573.13 235.352 549.805 c 0
 207.85 519.253 191.068 480.248 181.94 440.167 c 0
 172.812 400.085 170.01 358.867 166.992 317.871 c 0
 166.154 306.479 165.344 295.086 164.551 283.691 c 1
 130.371 294.922 l 1
 134.536 326.621 147.789 357.037 167.969 381.836 c 0
 187.902 406.334 214.369 425.248 243.5 437.451 c 0
 272.63 449.654 304.355 455.385 335.938 455.078 c 0
 366.433 454.781 396.944 448.832 425.006 436.893 c 0
 453.068 424.952 478.557 406.83 498.535 383.789 c 0
 536.484 340.025 552.69 280.021 549.805 222.168 c 0
 546.562 157.084 519.844 92.2344 471.68 48.3398 c 0
 428.178 8.69531 368.915 -12.2207 310.059 -12.207 c 0
 259.102 -12.1953 207.558 3.94531 168.457 36.6211 c 0
 135.966 63.7734 113.217 101.451 100.274 141.769 c 0
 87.333 182.086 83.2012 224.752 82.5195 267.09 c 0
 81.5723 325.948 86.1777 385.137 99.6699 442.436 c 0
 113.161 499.736 137.832 555.352 177.734 598.633 c 0
EndSplineSet
EndChar

StartChar: seven
Encoding: 55 55 61
Width: 634
VWidth: 0
Flags: MW
HStem: 0 20<150 257.093> 621 73<64 469>
LayerCount: 4
Fore
SplineSet
571 694 m 1
 571 642 l 1
 247 0 l 1
 150 0 l 1
 469 616 l 1
 64 616 l 1
 64 694 l 1
 571 694 l 1
EndSplineSet
Layer: 3
SplineSet
570.801 693.848 m 1
 570.801 641.602 l 1
 247.07 0 l 1
 150.391 0 l 1
 500.488 676.758 l 1
 522.949 615.723 l 1
 63.9639 615.723 l 1
 63.9639 693.848 l 1
 570.801 693.848 l 1
EndSplineSet
EndChar

StartChar: five
Encoding: 53 53 62
Width: 634
VWidth: 1023
Flags: MW
HStem: -9 73<97.4497 381.321> 363 73<196.297 380.614> 621 73<194 515>
VStem: 115 80<431 621> 468.692 86.402<142.322 287.622>
LayerCount: 4
Fore
SplineSet
261 363.608 m 0
 211.003 363.608 168.126 358.037 115 352 c 1
 115 694 l 5
 515 694 l 5
 515 621 l 1
 194 621 l 1
 195 431 l 1
 233.241 435.249 267.251 437.523 297.029 437.523 c 0
 417.639 437.523 497.483 392.785 535 314 c 0
 548.122 284.945 555.094 255.012 555.094 224.2 c 0
 555.094 151.318 528.01 94.8481 477 52 c 0
 446 27 412 9 372 1 c 0
 335.763 -6.60526 296.524 -10.4079 254.283 -10.4079 c 0
 202.103 -10.4079 145.342 -4.60526 84 7 c 1
 100 81 l 1
 149.193 71.1614 194.725 65.6515 248.875 65.6515 c 0
 317.455 65.6515 367.029 72.9304 407 102 c 0
 440.439 126.319 468.692 158.878 468.692 212.528 c 0
 468.692 257.369 454.454 285.001 425 312 c 0
 384.133 349.461 334.517 363.608 261 363.608 c 0
EndSplineSet
Layer: 3
SplineSet
114.74 693.848 m 1
 532.705 693.848 l 1
 532.705 620.605 l 1
 194.33 620.605 l 1
 194.818 431.152 l 1
 218.508 433.812 242.291 435.656 266.113 436.523 c 0
 301.563 437.814 337.266 437.063 372.176 430.763 c 0
 407.086 424.462 441.244 412.084 470.207 391.602 c 0
 498.091 371.883 520.698 344.807 535.195 313.885 c 0
 549.692 282.964 556.27 248.489 555.166 214.355 c 0
 553.169 152.42 524.688 91.3799 477.043 51.7578 c 0
 444.74 24.8955 404.828 8.18848 363.715 -0.456055 c 0
 322.601 -9.10156 280.271 -10.4873 238.275 -9.27734 c 0
 201.156 -8.20801 164.097 -5.03027 127.333 0.207031 c 0
 112.992 2.25 98.6982 4.62207 84.4668 7.32422 c 1
 100.092 81.0547 l 1
 112.697 78.3926 125.38 76.0996 138.118 74.1719 c 0
 168.049 69.6406 198.26 67.0449 228.51 65.918 c 0
 259.682 64.7559 291.049 65.0254 321.863 69.8672 c 0
 352.68 74.709 383.142 84.6328 408.684 102.539 c 0
 429.041 116.809 445.981 136.146 456.447 158.695 c 0
 466.913 181.244 470.758 206.83 467.277 231.445 c 0
 462.822 262.96 446.346 292.344 422.863 313.828 c 0
 399.381 335.314 369.426 348.951 338.379 355.957 c 0
 301.852 364.2 263.947 363.937 226.562 361.816 c 0
 189.188 359.697 151.929 355.855 114.74 351.562 c 1
 114.74 693.848 l 1
EndSplineSet
EndChar

StartChar: two
Encoding: 50 50 63
Width: 634
VWidth: 0
Flags: HMWO
HStem: 0 73<298.001 634.001> 621 73<258.52 470.141>
VStem: 532.001 88<439.511 565.225>
LayerCount: 4
UndoRedoHistory
Layer: 1
Undoes
EndUndoes
Redoes
EndRedoes
EndUndoRedoHistory
Fore
SplineSet
104.5 587.891601562 m 13
 77.5 653.891601562 l 21
 149.5 680.891601562 171.5 703.891601562 284.5 703.891601562 c 4
 400.504882812 703.891601562 516.5 625.891601562 516.5 508.891601562 c 0
 516.5 399.4921875 362.5 262.891601562 296.5 194.891601562 c 0
 259.700195312 156.9765625 224.5 116.891601562 194.5 74.8916015625 c 9
 530.5 72.8916015625 l 25
 530.5 0 l 25
 86.5 0 l 25
 87.5 61.8916015625 l 17
 132.5 130.891601562 183.340820312 186.861328125 236.5 243.891601562 c 0
 334.038085938 348.533203125 428.5 434.166992188 428.5 498.891601562 c 0
 428.5 556.891601562 382.5 627.891601562 278.5 627.891601562 c 4
 208.870117188 627.891601562 170.5 612.891601562 104.5 587.891601562 c 13
EndSplineSet
Layer: 2
SplineSet
324.166992188 702 m 4xf0
 434.140625 702 536.166992188 642.34765625 536.166992188 538 c 4xf0
 536.166992188 459.75390625 488.387695312 402.208007812 429.166992188 380 c 5
 510.270507812 357.567382812 566.166992188 307.2734375 566.166992188 213 c 4
 566.166992188 143 541.166992188 86 490.166992188 43 c 4
 439.166992188 0 375.166992188 -22 297.166992188 -22 c 6
 295.166992188 -22 l 6
 236.166992188 -22 177.166992188 -9 116.166992188 16 c 5
 139.166992188 83 l 5
 207.166992188 64 264.166992188 55 308.166992188 55 c 4
 352.166992188 55 392.166992188 68 428.166992188 94 c 4
 464.166992188 120 482.166992188 154 482.166992188 195 c 4xe8
 482.166992188 238 461.166992188 274 418.166992188 301 c 4
 383.166992188 323 334.166992188 334 270.166992188 334 c 6
 260.166992188 334 l 5
 260.166992188 405 l 5
 342.166992188 408 398.166992188 427 428.166992188 463 c 4
 444.166992188 482 452.166992188 504 452.166992188 529 c 4
 452.166992188 592.150390625 382.3984375 627 311.166992188 627 c 4
 267.166992188 627 216.166992188 613 157.166992188 586 c 5
 130.166992188 652 l 5
 197.166992188 685 262.166992188 702 324.166992188 702 c 4xf0
EndSplineSet
Layer: 3
SplineSet
339.737304688 698.73046875 m 0
 372.463867188 699.08203125 405.393554688 695.141601562 436.540039062 685.087890625 c 0
 467.686523438 675.0390625 497.049804688 658.671875 520.401367188 635.7421875 c 0
 537.950195312 618.510742188 551.973632812 597.592773438 560.538085938 574.536132812 c 0
 569.102539062 551.478515625 572.081054688 526.381835938 569.228515625 501.953125 c 0
 565.186523438 467.294921875 549.444335938 434.712890625 528.125976562 407.08984375 c 0
 506.805664062 379.466796875 480.342773438 356.287109375 453.506835938 333.984375 c 0
 428.983398438 313.603515625 404.006835938 293.748046875 380.264648438 272.4609375 c 0
 340.916992188 237.182617188 304.954101562 197.635742188 277.725585938 152.34375 c 0
 253.603515625 112.21875 236.356445312 67.9326171875 227.432617188 21.97265625 c 1
 215.225585938 73.2421875 l 1
 582.901367188 73.2421875 l 1
 582.901367188 0 l 1
 140.030273438 0 l 1
 140.030273438 45.41015625 l 1
 162.524414062 115.748046875 199.044921875 181.364257812 245.499023438 238.76953125 c 0
 275.075195312 275.318359375 308.399414062 308.725585938 343.643554688 339.84375 c 0
 371.203125 364.176757812 400.743164062 386.169921875 428.60546875 410.15625 c 0
 440.10546875 420.056640625 451.190429688 430.5546875 460.46875 442.561523438 c 0
 469.747070312 454.5703125 477.114257812 468.202148438 480.850585938 482.91015625 c 0
 485.319335938 500.502929688 484.344726562 519.384765625 478.366210938 536.5234375 c 0
 472.387695312 553.662109375 461.7109375 568.96484375 448.624023438 581.54296875 c 0
 431.932617188 597.587890625 411.411132812 609.443359375 389.528320312 617.006835938 c 0
 367.645507812 624.565429688 344.321289062 627.705078125 321.182617188 626.953125 c 0
 288.360351562 625.888671875 256.290039062 617.197265625 224.907226562 607.529296875 c 0
 198.456054688 599.379882812 172.197265625 590.629882812 145.889648438 582.03125 c 1
 126.846679688 644.04296875 l 1
 148.182617188 654.638671875 170.194335938 663.876953125 192.712890625 671.650390625 c 0
 240.016601562 687.983398438 289.696289062 698.188476562 339.737304688 698.73046875 c 0
EndSplineSet
EndChar

StartChar: three
Encoding: 51 51 64
Width: 634
VWidth: 1023
Flags: MW
HStem: 0 73<133.98 379.244> 350 71 621 73<81 376.574>
VStem: 459 84.5<130.358 278.711>
AnchorPoint: "aboveright" 315.5 498.336 basechar 0
LayerCount: 4
Fore
SplineSet
345.741210938 413.5 m 1
 486.75 393.200012207 543.5 294.672851562 543.5 200.400390625 c 0
 543.5 130.400390625 516 90 465 47 c 0
 414 4 345 -14 267 -14 c 2
 265 -14 l 2
 206 -14 147 -1 86 24 c 1
 109 91 l 1
 177 72 234 63 278 63 c 0
 322 63 367 72 403 98 c 0
 439 124 459 154 459 195 c 0
 459 238 446.741210938 293.5 381.5 330.400390625 c 0
 345.516601562 350.752929688 298 350.400390625 234 350.400390625 c 2
 234 382.400390625 l 17
 376.57421875 622 l 1
 81 622 l 9
 81 694 l 25
 497 694 l 17
 497 669.400024414 l 1
 345.741210938 413.5 l 1
EndSplineSet
Layer: 3
SplineSet
455.025390625 537.59765625 m 4
 455.025390625 464.35546875 412.057617188 404.296875 348.581054688 379.8828125 c 5
 447.213867188 353.515625 485.299804688 288.57421875 485.299804688 212.890625 c 4
 485.299804688 71.77734375 371.041992188 -21.484375 216.256835938 -21.97265625 c 5
 214.303710938 -21.97265625 l 6
 160.592773438 -21.97265625 97.6044921875 -10.25390625 35.1044921875 15.625 c 5
 58.5419921875 83.0078125 l 5
 143.990234375 59.5703125 185.495117188 55.17578125 217.232421875 55.17578125 c 4
 316.354492188 55.17578125 400.827148438 110.83984375 400.827148438 194.82421875 c 4
 400.827148438 250.48828125 357.370117188 333.984375 189.400390625 333.984375 c 4
 185.982421875 333.984375 183.053710938 333.984375 179.635742188 333.984375 c 5
 179.635742188 405.2734375 l 5
 332.467773438 409.66796875 371.041992188 477.05078125 371.041992188 524.4140625 c 4
 371.041992188 578.61328125 320.749023438 626.953125 235.299804688 626.953125 c 4
 175.240234375 626.953125 114.206054688 604.00390625 76.1201171875 586.42578125 c 5
 49.2646484375 652.34375 l 5
 93.697265625 674.31640625 166.939453125 702.1484375 245.553710938 702.1484375 c 4
 366.646484375 702.1484375 455.025390625 631.8359375 455.025390625 537.59765625 c 4
EndSplineSet
EndChar

StartChar: one
Encoding: 49 49 65
Width: 634
VWidth: 0
Flags: W
HStem: 0 73<125.5 288.5 368.5 529.5> 674 20G<223.804 368.5>
VStem: 288.5 80<73 614>
LayerCount: 4
Fore
SplineSet
368.5 694 m 1
 368.5 73 l 1
 529.5 73 l 1
 529.5 0 l 1
 125.5 0 l 1
 125.5 73 l 1
 288.5 73 l 1
 288.5 614 l 1
 135.5 554 l 1
 104.5 625 l 1
 272.5 694 l 1
 368.5 694 l 1
EndSplineSet
Layer: 3
SplineSet
125.078125 72.75390625 m 1
 529.375 72.75390625 l 1
 529.375 0 l 1
 125.078125 0 l 1
 125.078125 72.75390625 l 1
272.5390625 693.84765625 m 1
 368.2421875 693.84765625 l 1
 368.2421875 0 l 1
 288.1640625 0 l 1
 288.1640625 646.484375 l 1
 321.3671875 626.953125 l 1
 135.8203125 553.7109375 l 1
 104.5703125 625.48828125 l 1
 272.5390625 693.84765625 l 1
EndSplineSet
EndChar

StartChar: zero
Encoding: 48 48 66
Width: 634
VWidth: 1023
Flags: MW
HStem: 0 73<244.479 391.192> 621 73<241.293 393.906>
VStem: 54 82<203.708 498.348> 498 83<201.979 492.75>
LayerCount: 4
Fore
SplineSet
323.093 628.068 m 0
 194.923 628.068 135.824 500.895 135.824 361.456 c 0
 135.824 226.473 170.866 133.423 239 88 c 0
 263 72 291 63 320 63 c 0
 349 63 375 72 399 90 c 0
 464.791 138.315 498.088 226.786 498.088 353.678 c 0
 498.088 469.973 466.116 551.442 404 599 c 0
 379.184 618.089 351.636 628.068 323.093 628.068 c 0
53.8846 356.256 m 0
 53.8846 465.655 77.9231 548.385 126 608 c 0
 177.441 671.087 242.069 703.088 318.058 703.088 c 0
 360.565 703.088 396.871 693.19 433 673 c 0
 532.059 617.644 581.13 513.243 581.13 357.051 c 0
 581.13 189.732 529.169 69.0843 419 14 c 0
 387 -2 352 -10 316 -10 c 0
 280 -10 246 -1 213 16 c 0
 108.926 69.5236 53.8846 192.478 53.8846 356.256 c 0
EndSplineSet
Layer: 3
SplineSet
323.736 703.125 m 0
 361.925 701.997 399.774 691.426 433.117 672.773 c 0
 466.459 654.116 495.142 627.461 517.095 596.191 c 0
 542.524 559.966 558.906 517.91 568.477 474.698 c 0
 578.042 431.486 581.284 387.025 580.571 342.773 c 0
 579.824 296.534 574.795 250.2 562.964 205.494 c 0
 551.128 160.789 531.89 117.6 502.935 81.543 c 0
 480.498 53.6035 452.275 30.1934 420.182 14.2568 c 0
 388.088 -1.67969 352.244 -10.0557 316.412 -9.76562 c 0
 280.283 -9.47363 244.297 -0.375 212.224 16.2559 c 0
 180.15 32.8867 152.104 56.957 129.889 85.4492 c 0
 101.926 121.312 83.2461 163.816 71.6475 207.789 c 0
 60.0488 251.761 55.0059 297.305 54.2051 342.773 c 0
 53.3652 390.363 57.1484 438.23 68.4805 484.459 c 0
 79.8125 530.688 99.3711 575.376 129.4 612.305 c 0
 152.778 641.055 182.399 664.814 215.916 680.62 c 0
 249.434 696.421 286.697 704.219 323.736 703.125 c 0
314.947 628.418 m 0
 287.949 628.042 261.237 619.624 238.41 605.2 c 0
 215.584 590.781 196.652 570.615 182.135 547.852 c 0
 163.035 517.9 151.344 483.67 144.501 448.813 c 0
 137.658 413.957 135.434 378.286 136.236 342.773 c 0
 137.752 275.604 148.621 206.586 183.111 148.926 c 0
 197.401 125.035 216.172 103.546 239.324 88.085 c 0
 262.475 72.624 290.037 63.5566 317.877 63.4766 c 0
 347.846 63.3906 377.504 73.7803 401.788 91.3418 c 0
 426.072 108.902 445.058 133.135 458.99 159.668 c 0
 488.273 215.439 497.617 279.789 498.54 342.773 c 0
 499.429 403.277 492.28 465.133 466.803 520.02 c 0
 452.936 549.893 433.048 577.388 406.805 597.29 c 0
 380.562 617.188 347.879 628.877 314.947 628.418 c 0
EndSplineSet
EndChar

StartChar: four
Encoding: 52 52 67
Width: 634
VWidth: 0
Flags: W
HStem: 0 21G<375 455> 168 73<154 375 455 576> 674 20G<327.11 455>
VStem: 375 80<0 168 241 615>
LayerCount: 4
Fore
SplineSet
455 694 m 1
 455 241 l 1
 576 241 l 1
 576 168 l 1
 455 168 l 1
 455 0 l 1
 375 0 l 1
 375 168 l 1
 59 168 l 1
 59 223 l 1
 339 694 l 1
 455 694 l 1
375 241 m 1
 375 615 l 1
 154 241 l 1
 375 241 l 1
EndSplineSet
Layer: 3
SplineSet
338.867 693.848 m 1
 455.078 693.848 l 1
 455.078 0 l 1
 375 0 l 1
 375 614.746 l 1
 154.297 241.211 l 1
 576.172 241.211 l 1
 576.172 167.969 l 1
 58.5938 167.969 l 1
 58.5938 222.656 l 1
 338.867 693.848 l 1
EndSplineSet
EndChar

StartChar: period
Encoding: 46 46 68
Width: 278
VWidth: 1023
Flags: HW
HStem: 0 103<88 190>
VStem: 88 102<0 103>
LayerCount: 4
Fore
SplineSet
88 103 m 1
 190 103 l 1
 190 0 l 1
 88 0 l 1
 88 103 l 1
EndSplineSet
Layer: 3
SplineSet
87.8906 102.539 m 1
 190.43 102.539 l 1
 190.43 0 l 1
 87.8906 0 l 1
 87.8906 102.539 l 1
EndSplineSet
EndChar

StartChar: comma
Encoding: 44 44 69
Width: 278
VWidth: 1023
Flags: HW
HStem: -107 190<98 108>
VStem: 21 165
LayerCount: 4
Fore
SplineSet
98 83 m 1
 186 83 l 1
 108 -107 l 1
 21 -107 l 1
 98 83 l 1
EndSplineSet
Layer: 3
SplineSet
97.6562 83.0078 m 5
 185.547 83.0078 l 5
 108.398 -107.422 l 5
 20.5078 -107.422 l 5
 97.6562 83.0078 l 5
EndSplineSet
EndChar

StartChar: bracketleft
Encoding: 91 91 70
Width: 324
VWidth: 1023
Flags: HW
HStem: -200 73<160 304> 665 73<160 304>
VStem: 80 224<-200 -127 665 738> 80 80<-127 665>
LayerCount: 4
Back
SplineSet
159.668 737.793 m 5xd0
 345.703 737.793 l 5
 345.703 665.039 l 5xe0
 159.668 665.039 l 5
 159.668 737.793 l 5xd0
159.668 -127.441 m 5xd0
 345.703 -127.441 l 5
 345.703 -200.195 l 5xe0
 159.668 -200.195 l 5
 159.668 -127.441 l 5xd0
122.07 737.793 m 5
 202.148 737.793 l 5
 202.148 -200.195 l 5xd0
 122.07 -200.195 l 5
 122.07 737.793 l 5
EndSplineSet
Fore
SplineSet
304 -200 m 1xe0
 80 -200 l 1
 80 738 l 1
 304 738 l 1
 304 665 l 1xe0
 160 665 l 1
 160 -127 l 1xd0
 304 -127 l 1
 304 -200 l 1xe0
EndSplineSet
Layer: 3
SplineSet
159.668 737.793 m 5
 345.703 737.793 l 5
 345.703 665.039 l 5
 159.668 665.039 l 5
 159.668 737.793 l 5
159.668 -127.441 m 5
 345.703 -127.441 l 5
 345.703 -200.195 l 5
 159.668 -200.195 l 5
 159.668 -127.441 l 5
122.07 737.793 m 5
 202.148 737.793 l 5
 202.148 -200.195 l 5
 122.07 -200.195 l 5
 122.07 737.793 l 5
EndSplineSet
EndChar

StartChar: bracketright
Encoding: 93 93 71
Width: 324
VWidth: 1023
Flags: HMW
HStem: -200 73<20 164> 665 73<20 164>
VStem: 20 224<-200 -127 665 738> 164 83<-127 665>
LayerCount: 4
Fore
SplineSet
244 -200 m 1xe0
 20 -200 l 1
 20 -127 l 1xe0
 164 -127 l 1
 164 665 l 1xd0
 20 665 l 1
 20 738 l 1
 244 738 l 1
 244 -200 l 1xe0
EndSplineSet
Layer: 3
SplineSet
24.4141 737.793 m 5
 210.449 737.793 l 5
 210.449 665.039 l 5
 24.4141 665.039 l 5
 24.4141 737.793 l 5
24.4141 -127.441 m 5
 210.449 -127.441 l 5
 210.449 -200.195 l 5
 24.4141 -200.195 l 5
 24.4141 -127.441 l 5
167.969 737.793 m 5
 248.047 737.793 l 5
 248.047 -200.195 l 5
 167.969 -200.195 l 5
 167.969 737.793 l 5
EndSplineSet
EndChar

StartChar: parenleft
Encoding: 40 40 72
Width: 362
VWidth: 1023
Flags: HW
VStem: 107 86<111.21 455.243>
LayerCount: 4
Fore
SplineSet
193 280 m 0
 193 110 251 -41 323 -158 c 1
 260 -199 l 1
 213 -122 175 -42 148 41 c 0
 121 124 107 204 107 281 c 0
 107 466 182 630 259 756 c 1
 323 722 l 1
 280 651 248 577 226 501 c 0
 204 425 193 351 193 280 c 0
EndSplineSet
Layer: 3
SplineSet
258.789 755.859 m 1
 323.242 722.168 l 1
 281.284 651.978 247.925 576.572 225.098 498.047 c 0
 204.59 427.5 192.907 354.229 192.871 280.762 c 0
 192.835 207.29 204.458 133.989 225.098 63.4766 c 0
 247.863 -14.2988 281.212 -88.916 323.242 -158.203 c 1
 260.254 -199.219 l 1
 215.076 -124.729 177.422 -45.5488 149.902 37.1094 c 0
 123.746 115.673 107.46 197.959 107.422 280.762 c 0
 107.384 363.571 123.604 445.894 149.902 524.414 c 0
 177.035 605.43 214.155 683.008 258.789 755.859 c 1
EndSplineSet
EndChar

StartChar: parenright
Encoding: 41 41 73
Width: 362
VWidth: 1023
Flags: HW
VStem: 169 86<106.748 451.831>
LayerCount: 4
Fore
SplineSet
255 281 m 0
 255 204 242 124 214 41 c 0
 186 -42 149 -122 102 -199 c 1
 39 -158 l 1
 126 -15 169 131 169 281 c 0
 169 352 158 425 136 501 c 0
 114 577 82 651 39 722 c 1
 104 756 l 1
 150 681 187 603 214 521 c 0
 241 439 255 358 255 281 c 0
EndSplineSet
Layer: 3
SplineSet
103.516 755.859 m 1
 148.149 683.008 185.27 605.43 212.402 524.414 c 0
 238.7 445.894 254.921 363.571 254.883 280.762 c 0
 254.845 197.959 238.559 115.673 212.402 37.1094 c 0
 184.883 -45.5488 147.229 -124.729 102.051 -199.219 c 1
 39.0625 -158.203 l 1
 81.0928 -88.916 114.441 -14.2988 137.207 63.4766 c 0
 157.847 133.989 169.47 207.29 169.434 280.762 c 0
 169.397 354.229 157.715 427.5 137.207 498.047 c 0
 114.38 576.572 81.0205 651.978 39.0625 722.168 c 1
 103.516 755.859 l 1
EndSplineSet
EndChar

StartChar: slash
Encoding: 47 47 74
Width: 354
VWidth: 1023
Flags: HW
HStem: 674 20G<255.442 345>
VStem: 20 325
LayerCount: 4
Fore
SplineSet
262 694 m 1
 345 694 l 1
 103 -44 l 1
 20 -44 l 1
 262 694 l 1
EndSplineSet
Layer: 3
SplineSet
261.719 693.848 m 5
 344.727 693.848 l 5
 102.539 -43.9453 l 5
 19.5312 -43.9453 l 5
 261.719 693.848 l 5
EndSplineSet
EndChar

StartChar: backslash
Encoding: 92 92 75
Width: 354
VWidth: 1023
Flags: HW
HStem: 674 20G<10 99.5583>
VStem: 10 325
LayerCount: 4
Fore
SplineSet
10 694 m 1
 93 694 l 1
 335 -44 l 1
 252 -44 l 1
 10 694 l 1
EndSplineSet
Layer: 3
SplineSet
9.76562 693.848 m 1
 92.7734 693.848 l 1
 334.961 -43.9453 l 1
 251.953 -43.9453 l 1
 9.76562 693.848 l 1
EndSplineSet
EndChar

StartChar: plus
Encoding: 43 43 76
Width: 683
VWidth: 1023
Flags: HW
HStem: 288 67<61 306 378 623>
VStem: 306 72<41 288 355 602>
LayerCount: 4
Fore
SplineSet
306 602 m 1
 378 602 l 1
 378 355 l 1
 623 355 l 1
 623 288 l 1
 378 288 l 1
 378 41 l 1
 306 41 l 1
 306 288 l 1
 61 288 l 1
 61 355 l 1
 306 355 l 1
 306 602 l 1
EndSplineSet
Layer: 3
SplineSet
305.664 602.051 m 1
 377.93 602.051 l 1
 377.93 40.5273 l 1
 305.664 40.5273 l 1
 305.664 602.051 l 1
61.0352 354.98 m 1
 622.559 354.98 l 1
 622.559 287.598 l 1
 61.0352 287.598 l 1
 61.0352 354.98 l 1
EndSplineSet
EndChar

StartChar: asterisk
Encoding: 42 42 77
Width: 583
VWidth: 1023
Flags: HW
HStem: 673 20G<250 333>
LayerCount: 4
Fore
SplineSet
250 693 m 1
 333 693 l 1
 325 538 l 1
 455 624 l 1
 496 551 l 1
 357 481 l 1
 496 412 l 1
 455 339 l 1
 325 425 l 1
 333 270 l 1
 250 270 l 1
 259 425 l 1
 129 339 l 1
 88 412 l 1
 227 481 l 1
 88 551 l 1
 129 624 l 1
 259 538 l 1
 250 693 l 1
EndSplineSet
Layer: 3
SplineSet
454.59 623.535 m 1
 496.094 551.27 l 1
 306.641 456.055 l 1
 129.395 339.355 l 1
 87.8906 411.621 l 1
 277.344 506.836 l 1
 454.59 623.535 l 1
87.8906 551.27 m 1
 129.395 623.535 l 1
 306.641 506.836 l 1
 496.094 411.621 l 1
 454.59 339.355 l 1
 277.344 456.055 l 1
 87.8906 551.27 l 1
250.488 693.359 m 1
 333.496 693.359 l 1
 321.289 481.445 l 1
 333.496 269.531 l 1
 250.488 269.531 l 1
 262.695 481.445 l 1
 250.488 693.359 l 1
EndSplineSet
EndChar

StartChar: numbersign
Encoding: 35 35 78
Width: 684
VWidth: 1023
Flags: HW
HStem: 185 73<23 177 255 430 508 663> 430 73<22 177 255 430 508 663> 674 20G<177 255 430 508>
VStem: 177 78<-15 185 258 430 503 694> 430 78<-15 185 258 430 503 694>
LayerCount: 4
Fore
SplineSet
177 694 m 1
 255 694 l 1
 255 503 l 1
 430 503 l 1
 430 694 l 1
 508 694 l 1
 508 503 l 1
 663 503 l 1
 663 430 l 1
 508 430 l 1
 508 258 l 1
 663 258 l 1
 663 185 l 1
 508 185 l 1
 508 -15 l 1
 430 -15 l 1
 430 185 l 1
 255 185 l 1
 255 -15 l 1
 177 -15 l 1
 177 185 l 1
 23 185 l 1
 23 258 l 1
 177 258 l 1
 177 430 l 1
 22 430 l 1
 22 503 l 1
 177 503 l 1
 177 694 l 1
255 258 m 1
 430 258 l 1
 430 430 l 1
 255 430 l 1
 255 258 l 1
EndSplineSet
Layer: 3
SplineSet
21.9727 502.93 m 25
 662.598 502.93 l 25
 662.598 429.688 l 25
 21.9727 429.688 l 25
 21.9727 502.93 l 25
22.9492 257.812 m 25
 662.598 257.812 l 25
 662.598 184.57 l 25
 22.9492 184.57 l 25
 22.9492 257.812 l 25
430.176 693.848 m 1
 508.301 693.848 l 1
 508.301 -14.6484 l 1
 430.176 -14.6484 l 1
 430.176 693.848 l 1
177.246 693.848 m 1
 255.371 693.848 l 1
 255.371 -14.6484 l 1
 177.246 -14.6484 l 1
 177.246 693.848 l 1
EndSplineSet
EndChar

StartChar: dollar
Encoding: 36 36 79
Width: 585
VWidth: 1023
Flags: HW
HStem: 113 60<163.266 270 329 369.503> 548 63<329 435.944>
VStem: 123 83<440.136 521.77> 270 59<-32 110 611 738> 397 88<199.621 290.387>
LayerCount: 4
Fore
SplineSet
133 207 m 1
 186 185 209 173 272 173 c 0
 319 173 355 179 379 203 c 0
 391 215 397 229 397 245 c 0
 397 298 349 303 310 318 c 0
 277 330 241 337 210 353 c 0
 194 361 179 370 166 380 c 0
 137 401 123 431 123 469 c 0
 123 521 157 556 188 576 c 0
 209 589 236 599 270 605 c 1
 270 738 l 1
 329 738 l 1
 329 611 l 1
 355 611 l 2
 365 611 377 608 387 608 c 0
 399 608 416 604 425 601 c 2
 436 598 l 2
 441 597 448 594 458 591 c 1
 438 530 l 1
 394 542 359 548 333 548 c 0
 276 548 240 542 218 511 c 0
 210 500 206 489 206 476 c 0
 206 442 248 426 278 416 c 0
 321 402 373 384 412 365 c 0
 445 349 485 312 485 268 c 0
 485 227 478 208 460 182 c 0
 435 145 391 121 329 113 c 1
 329 -32 l 1
 270 -32 l 1
 270 110 l 1
 221 111 168 123 111 146 c 1
 133 207 l 1
EndSplineSet
Layer: 3
SplineSet
269.531 142.09 m 21
 328.613 142.09 l 13
 328.613 -31.7383 l 29
 269.531 -31.7383 l 29
 269.531 142.09 l 21
269.531 737.793 m 29
 328.613 737.793 l 29
 328.613 577.148 l 29
 269.531 577.148 l 29
 269.531 737.793 l 29
335.449 610.84 m 4
 397.949 610.84 423.34 601.562 458.008 591.309 c 5
 437.5 530.273 l 5
 405.762 539.062 371.094 548.34 322.266 548.34 c 4
 220.703 548.34 205.566 498.535 205.566 477.051 c 4
 205.566 390.625 484.863 411.133 484.863 260.742 c 4
 484.863 200.195 446.289 109.863 274.902 109.863 c 4
 238.77 109.863 181.152 117.676 110.84 146.484 c 5
 133.301 207.031 l 5
 194.824 181.152 226.562 172.852 268.555 172.852 c 4
 339.355 172.852 397.461 188.477 397.461 251.465 c 4
 397.461 343.75 122.559 307.129 122.559 468.75 c 4
 122.559 522.949 166.992 610.84 335.449 610.84 c 4
EndSplineSet
EndChar

StartChar: semicolon
Encoding: 59 59 80
Width: 278
VWidth: 1023
Flags: HW
HStem: 382 103<88 190>
VStem: 88 102<382 485>
LayerCount: 4
Fore
SplineSet
88 485 m 1
 190 485 l 1
 190 382 l 1
 88 382 l 1
 88 485 l 1
98 83 m 1
 186 83 l 1
 108 -107 l 1
 21 -107 l 1
 98 83 l 1
EndSplineSet
Layer: 3
SplineSet
97.6562 83.0078 m 1
 185.547 83.0078 l 1
 108.398 -107.422 l 1
 20.5078 -107.422 l 1
 97.6562 83.0078 l 1
87.8906 484.863 m 1
 190.43 484.863 l 1
 190.43 382.324 l 1
 87.8906 382.324 l 1
 87.8906 484.863 l 1
-408.691 410.156 m 0
EndSplineSet
EndChar

StartChar: colon
Encoding: 58 58 81
Width: 278
VWidth: 1023
Flags: HW
HStem: 0 103<88 190> 382 103<88 190>
VStem: 88 102<0 103 382 485>
LayerCount: 4
Fore
SplineSet
88 103 m 1
 190 103 l 1
 190 0 l 1
 88 0 l 1
 88 103 l 1
88 485 m 1
 190 485 l 1
 190 382 l 1
 88 382 l 1
 88 485 l 1
EndSplineSet
Layer: 3
SplineSet
87.8906 484.863 m 1
 190.43 484.863 l 1
 190.43 382.324 l 1
 87.8906 382.324 l 1
 87.8906 484.863 l 1
87.8906 102.539 m 1
 190.43 102.539 l 1
 190.43 0 l 1
 87.8906 0 l 1
 87.8906 102.539 l 1
EndSplineSet
EndChar

StartChar: equal
Encoding: 61 61 82
Width: 683
VWidth: 1023
Flags: HW
HStem: 171 74<107 576> 393 73<107 576>
LayerCount: 4
Fore
SplineSet
107 466 m 1
 576 466 l 1
 576 393 l 1
 107 393 l 1
 107 466 l 1
107 245 m 1
 576 245 l 1
 576 171 l 1
 107 171 l 1
 107 245 l 1
EndSplineSet
Layer: 3
SplineSet
107.422 244.629 m 1
 576.172 244.629 l 1
 576.172 171.387 l 1
 107.422 171.387 l 1
 107.422 244.629 l 1
107.422 465.82 m 1
 576.172 465.82 l 1
 576.172 392.578 l 1
 107.422 392.578 l 1
 107.422 465.82 l 1
EndSplineSet
EndChar

StartChar: quotedbl
Encoding: 34 34 83
Width: 388
VWidth: 1023
Flags: HW
HStem: 529 209<54 144 244 334>
VStem: 54 90<529 738> 244 90<529 738>
LayerCount: 4
Fore
SplineSet
54 738 m 1
 144 738 l 1
 144 529 l 1
 54 529 l 1
 54 738 l 1
244 738 m 1
 334 738 l 1
 334 529 l 1
 244 529 l 1
 244 738 l 1
EndSplineSet
Layer: 3
SplineSet
244.141 737.793 m 1
 334.473 737.793 l 1
 334.473 528.809 l 1
 244.141 528.809 l 1
 244.141 737.793 l 1
53.7109 737.793 m 1
 144.043 737.793 l 1
 144.043 528.809 l 1
 53.7109 528.809 l 1
 53.7109 737.793 l 1
EndSplineSet
EndChar

StartChar: quotesingle
Encoding: 39 39 84
Width: 197
VWidth: 1023
Flags: HW
HStem: 529 209<54 144>
VStem: 54 90<529 738>
LayerCount: 4
Fore
SplineSet
54 738 m 1
 144 738 l 1
 144 529 l 1
 54 529 l 1
 54 738 l 1
EndSplineSet
Layer: 3
SplineSet
53.7109 737.793 m 5
 144.043 737.793 l 5
 144.043 528.809 l 5
 53.7109 528.809 l 5
 53.7109 737.793 l 5
EndSplineSet
EndChar

StartChar: underscore
Encoding: 95 95 85
Width: 566
VWidth: 1023
Flags: HW
HStem: 0 73<73 493>
LayerCount: 4
Fore
SplineSet
73 73 m 1
 493 73 l 1
 493 0 l 1
 73 0 l 1
 73 73 l 1
EndSplineSet
Layer: 3
SplineSet
73.2422 73.2422 m 1
 493.164 73.2422 l 1
 493.164 0 l 1
 73.2422 0 l 1
 73.2422 73.2422 l 1
EndSplineSet
EndChar

StartChar: percent
Encoding: 37 37 86
Width: 648
VWidth: 1023
Flags: HW
HStem: 0 21G<42 138.631> 27 46<435.381 526.027> 262 47<433.338 528.356> 394 45<115.026 204.27> 619 47<112.326 206.024> 674 20G<501.369 598>
VStem: 48 48<456.261 603.332> 223 48<457.342 602.894> 365 47<97.2108 240.209> 549 48<95.9671 241.745>
LayerCount: 4
Fore
SplineSet
223 519 m 0
 223 583 212 619 152 619 c 0
 118 619 96 582 96 543 c 0
 96 484 109 439 161 439 c 0
 199 439 223 476 223 519 c 0
48 528 m 0
 48 607 89 666 160 666 c 0
 232 666 271 615 271 533 c 0
 271 457 231 394 159 394 c 0
 86 394 48 448 48 528 c 0
480 262 m 0
 440 262 412 224 412 181 c 0
 412 138 419 111 438 92 c 0
 452 79 467 73 483 73 c 0
 499 73 514 81 528 96 c 0
 542 111 549 136 549 170 c 0
 549 217 534 246 503 258 c 0
 496 261 488 262 480 262 c 0
597 180 m 0
 597 97 556 27 481 27 c 0
 449 27 422 39 399 62 c 0
 376 85 365 121 365 167 c 0
 365 213 376 247 400 272 c 0
 424 297 449 309 477 309 c 0
 505 309 532 300 558 281 c 0
 584 262 597 229 597 180 c 0
515 694 m 1
 598 694 l 1
 125 0 l 1
 42 0 l 1
 515 694 l 1
EndSplineSet
Layer: 3
SplineSet
514.648 693.848 m 1
 597.656 693.848 l 1
 124.512 0 l 1
 41.5039 0 l 1
 514.648 693.848 l 1
480.957 309.082 m 0
 521.973 309.082 597.168 285.645 597.168 171.387 c 0
 597.168 82.5195 542.48 27.3438 480.469 27.3438 c 0
 424.316 27.3438 364.746 64.4531 364.746 171.875 c 0
 364.746 261.719 425.293 309.082 480.957 309.082 c 0
480.469 262.207 m 0
 451.66 261.719 412.109 240.234 412.109 172.363 c 0
 412.109 91.7969 455.566 72.7539 480.957 72.7539 c 0
 508.301 72.7539 549.316 93.75 549.316 169.922 c 0
 549.316 244.141 506.836 262.207 480.469 262.207 c 0
159.668 665.527 m 0
 200.684 665.527 270.508 647.461 270.508 533.203 c 0
 270.508 444.336 221.191 393.555 159.18 393.555 c 0
 103.027 393.555 47.8516 426.27 47.8516 533.691 c 0
 47.8516 623.535 104.004 665.527 159.668 665.527 c 0
159.18 619.141 m 0
 130.371 618.652 95.7031 602.051 95.7031 534.18 c 0
 95.7031 453.613 134.277 439.453 159.668 439.453 c 0
 187.012 439.453 223.145 455.566 223.145 531.738 c 0
 223.145 605.957 185.547 619.141 159.18 619.141 c 0
EndSplineSet
EndChar

StartChar: braceright
Encoding: 125 125 87
Width: 389
VWidth: 1023
Flags: HW
HStem: -201 63<40.3333 80.536> 235 67<293.076 346> 675 63<40.3333 80.0949>
VStem: 27 319
CounterMasks: 1 e0
LayerCount: 4
Fore
SplineSet
27 -138 m 1
 106 -128 141 -60 149 32 c 1
 149 63 154 105 159 134 c 0
 169 191 201 242 242 269 c 1
 196 299 167 348 157 414 c 0
 155 425 153 454 150 503 c 0
 144 598 106 662 27 675 c 1
 42 738 l 1
 150 731 209 641 220 528 c 0
 220 523 222 511 223 492 c 0
 225 446 230 408 249 373 c 0
 271 333 304 309 346 302 c 1
 346 235 l 1
 304 228 272 205 250 166 c 0
 222 116 226 55 219 -13 c 0
 209 -112 137 -193 42 -201 c 1
 27 -138 l 1
EndSplineSet
Layer: 3
SplineSet
163.086 678.223 m 4
 132.201 712.549 88.0332 734.79 41.9922 738.281 c 5
 27.3438 675.293 l 5
 64.1543 670.21 97.7852 647.773 118.164 616.699 c 4
 140.789 582.197 147.023 539.692 149.902 498.535 c 4
 151.891 470.109 152.854 441.551 157.313 413.406 c 4
 161.773 385.264 169.836 357.473 183.594 332.52 c 4
 196.002 310.013 213.001 289.965 233.631 274.638 c 4
 254.262 259.311 278.428 248.758 303.711 244.141 c 5
 303.711 292.969 l 5
 278.481 288.379 254.355 277.893 233.729 262.656 c 4
 213.104 247.419 196.07 227.482 183.594 205.078 c 4
 169.125 179.097 160.871 150.014 156.424 120.609 c 4
 151.978 91.2051 151.218 61.3887 148.926 31.7383 c 4
 145.938 -6.91113 139.292 -46.6006 118.164 -79.1016 c 4
 97.8975 -110.277 64.2021 -132.784 27.3438 -137.695 c 5
 41.9922 -200.684 l 5
 87.9688 -196.875 132.027 -174.738 163.086 -140.625 c 4
 180.789 -121.181 194.339 -98.0938 203.543 -73.46 c 4
 212.747 -48.8281 217.572 -22.7451 220.215 3.41797 c 4
 223.008 31.0654 223.467 58.9238 226.75 86.5176 c 4
 230.033 114.11 236.526 141.713 250 166.016 c 4
 259.867 183.813 273.404 199.644 289.861 211.615 c 4
 306.318 223.586 325.608 231.648 345.703 234.863 c 5
 345.703 302.246 l 5
 325.6 305.627 306.332 313.809 289.887 325.854 c 4
 273.441 337.9 259.902 353.764 250 371.582 c 4
 237.011 394.957 230.381 421.387 226.878 447.896 c 4
 223.375 474.408 222.674 501.206 220.215 527.832 c 4
 217.703 555.024 213.233 582.192 204.141 607.944 c 4
 195.049 633.691 181.352 657.925 163.086 678.223 c 4
EndSplineSet
EndChar

StartChar: asciitilde
Encoding: 126 126 88
Width: 515
VWidth: 1023
Flags: HW
HStem: 282 61<292.178 359.514> 370 61<149.482 221.825>
LayerCount: 4
Fore
SplineSet
339 282 m 0
 301 282 272 302 249 323 c 2
 232 338 l 1
 218 352 201 370 181 370 c 0
 150 370 144 340 137 306 c 1
 133 281 l 1
 80 289 l 1
 88 331 l 2
 99 388 124 431 177 431 c 0
 216 431 242 410 266 389 c 1
 283 373 l 2
 297 359 315 343 334 343 c 0
 341 343 347 344 354 349 c 0
 370 362 372 374 378 405 c 2
 383 430 l 1
 435 422 l 1
 427 381 l 2
 416 324 392 282 339 282 c 0
EndSplineSet
Layer: 3
SplineSet
476.562 753.418 m 1
 529.297 745.117 l 1
 520.996 703.613 l 2
 518.633 691.787 516.206 679.937 512.285 668.53 c 0
 508.369 657.129 502.93 646.172 495.498 636.68 c 0
 488.064 627.183 478.643 619.209 467.899 613.735 c 0
 457.156 608.257 445.16 605.317 433.105 604.98 c 0
 419.31 604.595 405.536 607.578 392.727 612.72 c 0
 379.918 617.856 368.002 625.059 356.934 633.301 c 0
 340.75 645.352 327.189 660.483 312.5 674.316 c 0
 307.297 679.219 301.752 683.843 295.455 687.227 c 0
 289.158 690.61 282.045 692.646 274.902 692.383 c 0
 267.952 692.124 261.126 689.653 255.533 685.518 c 0
 249.941 681.382 245.607 675.703 242.457 669.502 c 0
 236.158 657.1 234.072 643.052 231.445 629.395 c 2
 226.562 604.004 l 1
 173.828 612.305 l 1
 182.129 653.809 l 2
 184.494 665.635 186.92 677.485 190.838 688.892 c 0
 194.756 700.293 200.193 711.25 207.627 720.742 c 0
 215.061 730.239 224.482 738.213 235.226 743.687 c 0
 245.969 749.165 257.965 752.104 270.02 752.441 c 0
 283.815 752.827 297.589 749.844 310.398 744.702 c 0
 323.207 739.565 335.123 732.363 346.191 724.121 c 0
 362.375 712.07 375.936 696.938 390.625 683.105 c 0
 395.828 678.203 401.373 673.579 407.67 670.195 c 0
 413.967 666.812 421.08 664.775 428.223 665.039 c 0
 435.173 665.298 441.999 667.769 447.592 671.904 c 0
 453.184 676.04 457.518 681.719 460.668 687.92 c 0
 466.967 700.322 469.053 714.37 471.68 728.027 c 2
 476.562 753.418 l 1
EndSplineSet
EndChar

StartChar: grave
Encoding: 96 96 89
Width: 547
VWidth: 1023
Flags: HW
HStem: 570 204
VStem: 134 281
LayerCount: 4
Fore
SplineSet
168 774 m 1
 415 623 l 1
 384 570 l 1
 134 714 l 1
 168 774 l 1
EndSplineSet
Layer: 3
SplineSet
168.457 774.414 m 29
 414.551 623.047 l 25
 383.789 570.312 l 25
 133.789 714.355 l 25
 168.457 774.414 l 29
EndSplineSet
EndChar

StartChar: asciicircum
Encoding: 94 94 90
Width: 722
VWidth: 1023
Flags: HW
HStem: 537 215
VStem: 186 326
LayerCount: 4
Fore
SplineSet
354 752 m 1
 512 580 l 5
 467 537 l 5
 348 666 l 1
 229 540 l 1
 186 578 l 1
 354 752 l 1
EndSplineSet
Layer: 3
SplineSet
354.004 752.441 m 29
 479.004 612.793 l 21
 433.594 569.824 l 5
 325.684 689.941 l 5
 379.883 699.707 l 5
 259.277 570.312 l 13
 216.309 608.398 l 29
 354.004 752.441 l 29
EndSplineSet
EndChar

StartChar: ampersand
Encoding: 38 38 91
Width: 775
VWidth: 1023
Flags: HW
HStem: -23 72<216.797 371.654> 0 21G<590.612 709> 633 70<266.645 399.526>
VStem: 88 81<95.5661 229.402> 147 82<488.673 596.722> 427 80<505.169 607.842>
LayerCount: 4
Fore
SplineSet
260 -23 m 0xac
 162 -23 88 40 88 133 c 0xb4
 88 204 117 264 172 315 c 0
 188 330 207 345 228 362 c 2
 246 376 l 1
 208 417 l 2
 167 461 147 504 147 547 c 0
 147 560 149 573 153 586 c 0
 164 624 188 653 224 673 c 0
 260 693 297 703 335 703 c 0
 337 703 338 703 339 703 c 0
 418 703 470 677 496 626 c 0
 504 611 507 594 507 576 c 0
 507 568 506 559 505 550 c 0
 501 521 483 490 452 458 c 2
 437 443 l 2
 431 438 425 433 418 427 c 2
 355 377 l 1
 525 196 l 1
 683 368 l 1
 729 322 l 1
 571 147 l 1
 709 0 l 1
 610 0 l 1x6c
 515 98 l 1
 443 28 383 -23 260 -23 c 0xac
427 552 m 0
 427 602 390 633 339 633 c 0
 299 633 265 616 249 595 c 0
 236 578 229 561 229 543 c 0x2c
 229 507 260 476 285 451 c 2
 310 425 l 1
 353 458 l 2
 378 477 394 492 402 501 c 0
 418 519 427 536 427 552 c 0
169 160 m 0xb4
 169 93 223 49 289 49 c 0
 341 49 396 75 453 130 c 1
 469 146 l 1
 293 328 l 1
 243 287 l 2
 194 246 169 204 169 160 c 0xb4
EndSplineSet
Layer: 3
SplineSet
342.773 703.125 m 0
 372.883 703.408 403.383 698.74 430.814 686.328 c 0
 458.248 673.916 482.266 652.969 495.605 625.977 c 0
 506.201 604.536 509.785 579.819 506.348 556.152 c 0
 500.913 518.721 478.688 485.623 452.171 458.65 c 0
 425.654 431.678 395.287 408.846 365.723 385.254 c 2
 269.043 308.105 l 2
 243.324 287.582 217.24 266.78 197.775 240.252 c 0
 178.311 213.724 166.327 180.655 169.922 147.949 c 0
 173.011 119.844 187.723 93.2617 209.746 75.5312 c 0
 231.77 57.7998 260.301 49 288.574 48.8281 c 0
 322.25 48.624 355.26 60.0605 384.277 77.1484 c 0
 422.401 99.5996 454.066 131.312 485.352 162.598 c 2
 495.605 172.852 l 1
 517.578 187.5 l 1
 683.105 368.164 l 1
 728.516 322.266 l 1
 568.359 143.555 l 1
 540.527 123.047 l 1
 533.203 115.723 l 2
 502.324 84.8438 471.461 53.4199 435.059 29.2969 c 0
 390.166 -0.452148 337.395 -17.9424 283.691 -21.9727 c 0
 257.78 -23.917 231.477 -22.6914 206.273 -16.3711 c 0
 181.069 -10.0498 157.043 1.69824 137.695 19.043 c 0
 120.689 34.2881 107.499 53.6846 99.1953 74.9609 c 0
 90.8926 96.2383 87.3691 119.256 87.8906 142.09 c 0
 88.9199 187.229 105.454 231.329 131.232 268.396 c 0
 157.01 305.465 192.297 334.701 228.027 362.305 c 2
 352.539 458.496 l 2
 369.882 471.895 387.758 484.912 402.346 501.265 c 0
 409.641 509.443 415.998 518.54 420.392 528.579 c 0
 424.785 538.618 427.146 549.595 426.758 560.547 c 0
 426.299 573.521 421.918 586.294 414.502 596.943 c 0
 407.086 607.598 396.787 616.113 385.254 622.07 c 0
 362.295 633.931 334.923 635.991 309.717 630.298 c 0
 284.512 624.604 260.65 610.981 245.117 590.332 c 0
 235.492 577.534 229.439 561.904 229.004 545.898 c 0
 228.668 533.56 231.635 521.235 236.882 510.063 c 0
 242.13 498.892 249.535 488.853 257.667 479.564 c 0
 273.931 460.991 292.18 444.264 309.082 426.27 c 2
 709.473 0 l 1
 610.352 0 l 1
 234.375 388.184 l 2
 208.22 415.188 181.83 442.891 165.009 476.513 c 0
 148.188 510.137 142.238 549.868 152.832 585.938 c 0
 158.444 605.044 168.381 622.822 181.391 637.9 c 0
 194.4 652.979 210.393 665.376 227.846 674.966 c 0
 262.752 694.155 302.943 702.749 342.773 703.125 c 0
EndSplineSet
EndChar

StartChar: less
Encoding: 60 60 92
Width: 523
VWidth: 1023
Flags: HW
LayerCount: 4
Fore
SplineSet
475 551 m 1
 475 475 l 1
 134 303 l 1
 475 139 l 1
 475 59 l 1
 49 260 l 1
 49 341 l 1
 475 551 l 1
EndSplineSet
Layer: 3
SplineSet
475.098 550.781 m 5
 48.8281 340.82 l 5
 48.8281 260.254 l 5
 475.098 58.5938 l 5
 475.098 139.16 l 5
 83.9844 327.148 l 5
 83.9844 278.32 l 5
 475.098 475.098 l 5
 475.098 550.781 l 5
EndSplineSet
EndChar

StartChar: greater
Encoding: 62 62 93
Width: 523
VWidth: 1023
Flags: HW
LayerCount: 4
Fore
SplineSet
49 551 m 1
 475 341 l 1
 475 260 l 1
 49 59 l 1
 49 139 l 1
 390 303 l 1
 49 475 l 1
 49 551 l 1
EndSplineSet
Layer: 3
SplineSet
48.8281 550.781 m 5
 475.098 340.82 l 5
 475.098 260.254 l 5
 48.8281 58.5938 l 5
 48.8281 139.16 l 5
 439.941 327.148 l 5
 439.941 278.32 l 5
 48.8281 475.098 l 5
 48.8281 550.781 l 5
EndSplineSet
EndChar

StartChar: braceleft
Encoding: 123 123 94
Width: 389
VWidth: 1023
Flags: HW
HStem: -201 63<306.338 349.556> 235 67<44 95.9427> 675 63<307.416 349.556>
VStem: 44 318
CounterMasks: 1 e0
LayerCount: 4
Fore
SplineSet
241 32 m 1
 249 -61 282 -128 362 -138 c 1
 348 -201 l 1
 243 -192 180 -107 169 3 c 0
 166 29 164 73 161 103 c 0
 154 171 103 225 44 235 c 1
 44 302 l 1
 105 312 151 367 161 433 c 0
 165 460 169 503 169 528 c 1
 178 623 216 687 282 720 c 0
 303 730 325 736 348 738 c 1
 362 675 l 1
 288 664 247 606 240 499 c 0
 237 453 233 419 230 398 c 0
 222 344 186 295 147 269 c 1
 199 235 229 176 236 93 c 0
 237 80 241 45 241 32 c 1
EndSplineSet
Layer: 3
SplineSet
226.562 678.223 m 0
 257.447 712.549 301.615 734.79 347.656 738.281 c 1
 362.305 675.293 l 1
 325.494 670.21 291.863 647.773 271.484 616.699 c 0
 248.859 582.197 242.625 539.692 239.746 498.535 c 0
 237.758 470.109 236.795 441.551 232.335 413.406 c 0
 227.875 385.264 219.812 357.473 206.055 332.52 c 0
 193.646 310.013 176.647 289.965 156.018 274.638 c 0
 135.387 259.311 111.221 248.758 85.9375 244.141 c 1
 85.9375 292.969 l 5
 111.167 288.379 135.293 277.893 155.919 262.656 c 0
 176.545 247.419 193.578 227.482 206.055 205.078 c 0
 220.523 179.097 228.777 150.014 233.225 120.609 c 0
 237.671 91.2051 238.431 61.3887 240.723 31.7383 c 0
 243.711 -6.91113 250.356 -46.6006 271.484 -79.1016 c 0
 291.751 -110.277 325.446 -132.784 362.305 -137.695 c 1
 347.656 -200.684 l 1
 301.68 -196.875 257.621 -174.738 226.562 -140.625 c 0
 208.859 -121.181 195.31 -98.0938 186.105 -73.46 c 0
 176.901 -48.8281 172.076 -22.7451 169.434 3.41797 c 0
 166.641 31.0654 166.182 58.9238 162.898 86.5176 c 0
 159.615 114.11 153.122 141.713 139.648 166.016 c 0
 129.781 183.813 116.244 199.644 99.7871 211.615 c 0
 83.3301 223.586 64.04 231.648 43.9453 234.863 c 1
 43.9453 302.246 l 1
 64.0488 305.627 83.3164 313.809 99.7617 325.854 c 0
 116.207 337.9 129.746 353.764 139.648 371.582 c 0
 152.638 394.957 159.268 421.387 162.771 447.896 c 0
 166.273 474.408 166.975 501.206 169.434 527.832 c 0
 171.945 555.024 176.415 582.192 185.508 607.944 c 0
 194.6 633.691 208.297 657.925 226.562 678.223 c 0
EndSplineSet
EndChar

StartChar: sterling
Encoding: 163 163 95
Width: 634
VWidth: 1023
Flags: HW
HStem: 0 66<74 193 273 561> 323 66<107 193 273 532> 632 67<350.381 527.361>
VStem: 193 80<66 323 389 554.993>
LayerCount: 4
Fore
SplineSet
74 66 m 1
 193 66 l 1
 193 323 l 1
 107 323 l 1
 107 389 l 1
 193 389 l 1
 193 458 l 2
 193 500 197 532 204 555 c 0
 231 639 318 699 431 699 c 0
 469 699 506 692 545 680 c 1
 522 621 l 1
 493 629 465 632 438 632 c 0
 390 632 354 617 330 598 c 0
 300 574 279 541 275 492 c 0
 274 477 273 462 273 445 c 2
 273 389 l 1
 532 389 l 1
 532 323 l 1
 273 323 l 1
 273 66 l 1
 561 66 l 1
 561 0 l 1
 74 0 l 1
 74 66 l 1
EndSplineSet
Layer: 3
SplineSet
107.422 389.16 m 17
 532.227 389.16 l 9
 532.227 323.242 l 25
 107.422 323.242 l 25
 107.422 389.16 l 17
74.2188 65.918 m 1
 193.359 65.918 l 1
 193.359 458.008 l 2
 193.359 490.723 194.336 523.438 204.102 554.688 c 0
 228.516 632.812 309.57 698.73 430.664 698.73 c 0
 470.703 698.73 510.254 691.406 545.41 680.176 c 1
 521.973 620.605 l 1
 496.582 627.441 468.75 632.324 441.406 632.324 c 0
 414.551 632.324 387.695 627.93 363.281 617.676 c 0
 272.949 580.078 273.438 490.723 273.438 444.824 c 0
 273.438 438.477 273.438 432.129 273.438 425.781 c 2
 273.438 65.918 l 1
 560.547 65.918 l 1
 560.547 0 l 1
 74.2188 0 l 1
 74.2188 65.918 l 1
EndSplineSet
EndChar

StartChar: exclamdown
Encoding: 161 161 96
Width: 317
VWidth: 1023
Flags: HW
HStem: 384 98<110 208>
VStem: 110 98<384 482> 117 83<-261 258>
LayerCount: 4
Fore
SplineSet
117 258 m 1xa0
 200 258 l 1
 200 -261 l 1
 117 -261 l 1
 117 258 l 1xa0
110 482 m 1xc0
 208 482 l 1
 208 384 l 1
 110 384 l 1
 110 482 l 1xc0
EndSplineSet
Layer: 3
SplineSet
109.863 645.02 m 1
 207.52 645.02 l 1
 207.52 547.363 l 1
 109.863 547.363 l 1
 109.863 645.02 l 1
117.188 421.387 m 1
 200.195 421.387 l 1
 200.195 -200.195 l 1
 117.188 -200.195 l 1
 117.188 421.387 l 1
EndSplineSet
EndChar

StartChar: cent
Encoding: 162 162 97
Width: 498
VWidth: 1023
Flags: HW
HStem: 111 64<237.7 265 324 415.51>
VStem: 73 77<261.079 461.335> 265 59<-32 112.652 606 738>
LayerCount: 4
Fore
SplineSet
73 347 m 0
 73 489 142 587 265 604 c 1
 265 738 l 1
 324 738 l 1
 324 606 l 1
 364 604 403 595 442 578 c 1
 423 519 l 1
 386 532 352 538 323 538 c 0
 209 538 150 476 150 366 c 0
 150 251 203 189 308 176 c 0
 315 175 322 175 329 175 c 0
 356 175 385 181 417 192 c 1
 437 137 l 1
 400 122 362 114 324 111 c 1
 324 -32 l 1
 265 -32 l 1
 265 112 l 1
 145 125 73 211 73 347 c 0
EndSplineSet
Layer: 3
SplineSet
265.137 142.09 m 17
 324.219 142.09 l 9
 324.219 -31.7383 l 25
 265.137 -31.7383 l 25
 265.137 142.09 l 17
265.137 737.793 m 25
 324.219 737.793 l 25
 324.219 577.148 l 25
 265.137 577.148 l 25
 265.137 737.793 l 25
302.734 606.445 m 0
 350.616 607.163 398.503 596.812 442.383 577.637 c 1
 422.852 519.043 l 1
 385.271 532.065 345.404 539.214 305.664 537.598 c 0
 283.282 536.689 260.868 532.744 240.17 524.18 c 0
 219.473 515.615 200.697 502.207 186.523 484.863 c 0
 171.089 465.975 161.371 442.852 156.26 419 c 0
 151.148 395.149 150.09 370.551 151.367 346.191 c 0
 153.014 314.791 158.846 283.016 173.828 255.371 c 0
 186.018 232.881 204.406 213.838 226.362 200.711 c 0
 248.318 187.584 273.416 180.187 298.828 177.246 c 0
 338.758 172.626 379.648 178.311 417.48 191.895 c 1
 437.012 136.719 l 1
 393.533 119.656 346.999 109.988 300.293 109.863 c 0
 265.134 109.77 229.674 115.363 197.323 129.135 c 0
 164.973 142.905 136.191 165.261 115.723 193.848 c 0
 84.3486 237.666 73.3936 293.276 73.2422 347.168 c 0
 73.1504 379.738 76.752 412.43 85.4844 443.807 c 0
 94.2188 475.184 108.568 505.234 129.395 530.273 c 0
 150.229 555.322 177.384 574.951 207.433 587.549 c 0
 237.481 600.151 270.154 605.957 302.734 606.445 c 0
EndSplineSet
EndChar

StartChar: currency
Encoding: 164 164 98
Width: 634
Flags: HW
HStem: 193 69<256.281 377.769> 462 69<257.204 376.456>
VStem: 148 72<298.635 423.387> 415 71<300.476 423.674>
LayerCount: 4
Fore
SplineSet
316 531 m 0
 346 531 375 524 402 508 c 1
 483 588 l 1
 544 527 l 1
 463 447 l 1
 478 422 486 393 486 363 c 0
 486 333 479 305 463 278 c 1
 543 197 l 1
 482 136 l 1
 402 217 l 1
 375 201 346 193 316 193 c 0
 286 193 258 201 233 216 c 1
 152 135 l 1
 91 196 l 1
 172 277 l 1
 157 302 148 330 148 361 c 0
 148 392 156 420 172 447 c 1
 90 528 l 1
 151 589 l 1
 233 508 l 1
 258 523 286 531 316 531 c 0
318 462 m 0
 263 462 220 416 220 361 c 0
 220 307 263 262 316 262 c 0
 373 262 415 308 415 365 c 0
 415 416 369 462 318 462 c 0
EndSplineSet
Layer: 3
SplineSet
317.871 461.914 m 0
 291.645 462.079 265.616 450.824 247.504 431.857 c 0
 229.392 412.889 219.299 386.574 219.727 360.352 c 0
 220.141 334.934 230.416 309.739 248.15 291.525 c 0
 265.885 273.312 290.986 262.405 316.406 262.207 c 0
 341.433 262.012 366.32 272.186 384.273 289.621 c 0
 402.228 307.058 413.154 331.457 414.551 356.445 c 0
 416.039 383.072 406.645 410.219 388.744 429.986 c 0
 370.844 449.755 344.539 461.746 317.871 461.914 c 0
151.367 589.355 m 1
 232.91 507.812 l 1
 257.669 522.349 286.232 530.342 314.941 530.762 c 0
 345.277 531.206 375.693 523.174 401.855 507.812 c 1
 482.91 588.379 l 1
 543.945 527.344 l 1
 462.891 446.777 l 1
 477.507 421.877 485.502 393.129 485.84 364.258 c 0
 486.193 334.084 478.166 303.855 462.891 277.832 c 1
 543.457 197.266 l 1
 482.422 136.23 l 1
 401.855 216.797 l 1
 375.914 201.283 345.654 193.078 315.43 193.359 c 0
 286.551 193.629 257.781 201.63 232.91 216.309 c 1
 151.855 135.254 l 1
 90.8203 196.289 l 1
 171.875 277.344 l 1
 157.078 302.012 148.906 330.613 148.438 359.375 c 0
 147.939 389.928 156.157 420.574 171.875 446.777 c 1
 90.332 528.32 l 1
 151.367 589.355 l 1
EndSplineSet
EndChar

StartChar: yen
Encoding: 165 165 99
Width: 634
VWidth: 1023
Flags: HW
HStem: 0 21G<275 353> 122 61<141 275 353 494> 280 61<141 271 356 494> 674 20G<70 170.644 468.017 565>
VStem: 275 78<0 122 183 280>
LayerCount: 4
Fore
SplineSet
494 341 m 1
 494 280 l 1
 353 280 l 1
 353 183 l 1
 494 183 l 1
 494 122 l 1
 353 122 l 1
 353 0 l 1
 275 0 l 1
 275 122 l 1
 141 122 l 1
 141 183 l 1
 275 183 l 1
 275 280 l 1
 141 280 l 1
 141 341 l 1
 271 341 l 1
 70 694 l 1
 160 694 l 1
 317 399 l 1
 479 694 l 1
 565 694 l 1
 356 341 l 1
 494 341 l 1
EndSplineSet
Layer: 3
SplineSet
140.625 182.617 m 25
 494.141 182.617 l 25
 494.141 121.582 l 25
 140.625 121.582 l 25
 140.625 182.617 l 25
140.625 341.309 m 17
 494.141 341.309 l 9
 494.141 280.273 l 25
 140.625 280.273 l 25
 140.625 341.309 l 17
69.8242 693.848 m 9
 160.156 693.848 l 17
 328.125 379.883 l 9
 308.594 383.301 l 17
 479.492 693.848 l 9
 564.941 693.848 l 25
 353.027 335.449 l 25
 353.027 0 l 25
 274.902 0 l 25
 274.902 335.449 l 17
 69.8242 693.848 l 9
EndSplineSet
EndChar

StartChar: brokenbar
Encoding: 166 166 100
Width: 431
VWidth: 1023
Flags: HW
VStem: 176 80<-150 225 409 782>
LayerCount: 4
Fore
SplineSet
176 782 m 1
 256 782 l 1
 256 409 l 1
 176 409 l 1
 176 782 l 1
176 225 m 1
 256 225 l 1
 256 -150 l 1
 176 -150 l 1
 176 225 l 1
EndSplineSet
Layer: 3
SplineSet
175.781 224.609 m 1
 255.859 224.609 l 1
 255.859 -150.391 l 1
 175.781 -150.391 l 1
 175.781 224.609 l 1
175.781 781.738 m 1
 255.859 781.738 l 1
 255.859 408.691 l 1
 175.781 408.691 l 1
 175.781 781.738 l 1
EndSplineSet
EndChar

StartChar: section
Encoding: 167 167 101
Width: 554
VWidth: 1023
Flags: HW
HStem: -10 63<126.871 350.091> 634 66<213.6 434.078>
VStem: 95 88<334.09 423.009 518.678 606.218> 384 92<85.0756 182.157 271.427 364.873>
LayerCount: 4
Fore
SplineSet
310 634 m 0
 247 634 183 616 183 560 c 0
 183 523 227 500 259 490 c 0
 304 476 358 456 400 437 c 0
 438 420 476 384 476 333 c 0
 476 293 462 259 435 231 c 1
 462 209 476 182 476 149 c 0
 476 90 445 51 411 28 c 0
 375 3 323 -10 256 -10 c 0
 191 -10 131 1 78 22 c 1
 101 83 l 1
 157 63 206 53 249 53 c 0
 339 53 384 82 384 140 c 0
 384 167 365 187 327 202 c 0
 310 209 292 214 271 220 c 0
 230 232 185 247 152 267 c 0
 114 290 95 323 95 367 c 0
 95 402 109 434 138 461 c 1
 110 484 96 513 96 550 c 0
 96 578 105 605 125 629 c 0
 157 669 227 700 300 700 c 0
 332 700 354 700 367 698 c 2
 386 695 l 2
 391 694 397 694 404 692 c 2
 419 688 l 2
 422 687 427 686 435 684 c 2
 450 679 l 1
 428 615 l 1
 388 628 348 634 310 634 c 0
183 382 m 0
 183 349 199 335 223 323 c 0
 255 307 274 301 313 288 c 0
 334 281 351 276 363 271 c 1
 377 285 384 302 384 323 c 0
 384 356 353 381 290 399 c 2
 248 411 l 2
 232 416 218 421 207 425 c 1
 191 412 183 397 183 382 c 0
EndSplineSet
Layer: 3
SplineSet
207.031 424.805 m 1
 187.012 408.691 182.617 388.672 182.617 376.465 c 0
 182.617 317.383 280.273 302.246 362.793 270.508 c 1
 378.906 286.133 384.277 305.664 384.277 323.242 c 0
 384.277 384.766 288.574 395.02 207.031 424.805 c 1
317.871 700.195 m 0
 384.277 700.195 413.574 689.492 450.195 679.238 c 1
 428.223 615.234 l 1
 392.09 626.611 347.168 634.277 305.664 634.277 c 0
 238.281 634.277 182.129 608.887 182.617 560.059 c 0
 183.618 459.966 476.074 483.887 476.074 333.008 c 0
 476.074 301.758 466.309 263.184 435.059 231.445 c 1
 459.473 211.426 475.586 185.547 475.586 149.414 c 0
 475.586 85.9375 434.57 -9.76562 255.859 -9.76562 c 0
 220.215 -9.76562 161.133 -10.7422 78.125 21.9727 c 1
 100.586 82.5195 l 1
 157.715 62.5 208.984 53.2227 249.023 53.2227 c 0
 323.008 53.2227 383.789 73.2422 383.789 139.648 c 0
 383.789 244.629 95.2148 200.195 95.2148 367.188 c 0
 95.2148 393.555 105.957 430.176 138.184 460.938 c 1
 112.793 481.445 95.7031 509.766 95.7031 550.293 c 0
 95.7031 610.254 146.344 700.195 317.871 700.195 c 0
EndSplineSet
EndChar

StartChar: copyright
Encoding: 169 169 102
Width: 859
VWidth: 1023
Flags: HW
HStem: -7 65<322.611 537.072> 156 47<377.515 527.423> 466 49<373.831 531.409> 609 65<322.134 536.159>
VStem: 83 65<228.479 437.754> 273 57<253.463 422.11> 711 65<228.645 438.102>
LayerCount: 4
Fore
SplineSet
441 156 m 0
 335 156 273 218 273 327 c 0
 273 382 287 427 315 462 c 0
 344 498 390 515 452 515 c 0
 480 515 510 508 541 494 c 1
 526 452 l 1
 499 462 473 466 450 466 c 0
 371 466 330 420 330 339 c 0
 330 253 372 203 458 203 c 0
 478 203 499 207 522 215 c 1
 537 175 l 1
 504 162 472 156 441 156 c 0
430 609 m 0
 347 609 276 572 231 529 c 0
 186 485 148 416 148 333 c 0
 148 251 186 181 231 138 c 0
 276 94 347 58 430 58 c 0
 513 58 583 95 628 138 c 0
 673 181 711 251 711 333 c 0
 711 416 673 485 628 529 c 0
 583 573 513 609 430 609 c 0
428 674 m 0
 530 674 618 630 673 576 c 0
 729 522 776 436 776 333 c 0
 776 231 730 146 674 92 c 0
 618 38 532 -7 430 -7 c 0
 327 -7 242 38 186 92 c 0
 130 146 83 230 83 333 c 0
 83 435 129 521 185 575 c 0
 240 629 327 674 428 674 c 0
EndSplineSet
Layer: 3
SplineSet
428.223 673.828 m 0
 518.403 674.209 608.413 638.535 673.184 575.791 c 0
 737.959 513.047 776.372 423.676 776.367 333.496 c 0
 776.362 243.562 738.164 154.426 673.701 91.7168 c 0
 609.238 29.0068 519.619 -6.83301 429.688 -6.83594 c 0
 339.752 -6.83887 250.131 29.0059 185.666 91.7168 c 0
 121.201 154.427 83.0049 243.561 83.0078 333.496 c 0
 83.0107 423.186 120.996 512.08 185.15 574.756 c 0
 249.305 637.432 338.534 673.452 428.223 673.828 c 0
429.688 609.375 m 0
 356.691 609.375 283.924 580.41 231.504 529.609 c 0
 179.084 478.811 147.949 406.492 147.949 333.496 c 0
 147.949 260.5 179.084 188.182 231.504 137.381 c 0
 283.924 86.5801 356.691 57.6172 429.688 57.6172 c 0
 502.686 57.6172 575.449 86.5801 627.871 137.381 c 0
 680.288 188.182 711.426 260.5 711.426 333.496 c 0
 711.426 406.492 680.288 478.811 627.871 529.609 c 0
 575.449 580.41 502.686 609.375 429.688 609.375 c 0
438.965 515.137 m 0
 473.794 515.703 508.638 508.154 540.527 494.141 c 1
 525.879 451.66 l 1
 498.662 461.227 469.746 466.502 440.918 465.332 c 0
 424.723 464.675 408.501 461.791 393.555 455.518 c 0
 378.609 449.245 365.1 439.421 354.98 426.758 c 0
 344.015 413.034 337.214 396.309 333.641 379.109 c 0
 330.066 361.909 329.307 344.21 330.078 326.66 c 0
 331.085 303.753 334.936 280.498 345.703 260.254 c 0
 354.383 243.936 367.67 230.138 383.572 220.717 c 0
 399.475 211.297 417.66 206.104 436.035 204.102 c 0
 464.97 200.947 494.531 205.144 521.973 214.844 c 1
 536.621 174.805 l 1
 505.044 162.671 471.328 155.801 437.5 155.762 c 0
 412.119 155.732 386.525 159.752 363.16 169.666 c 0
 339.796 179.58 318.994 195.686 304.199 216.309 c 0
 281.486 247.969 273.592 288.184 273.438 327.148 c 0
 273.344 350.652 275.882 374.246 282.096 396.914 c 0
 288.31 419.582 298.551 441.316 313.477 459.473 c 0
 328.484 477.729 348.115 492.061 369.879 501.274 c 0
 391.642 510.488 415.336 514.751 438.965 515.137 c 0
EndSplineSet
EndChar

StartChar: guillemotleft
Encoding: 171 171 103
Width: 457
VWidth: 1023
Flags: HW
HStem: 462 20G<147.067 251 328.067 433>
LayerCount: 4
Fore
SplineSet
342 482 m 1
 433 482 l 1
 299 304 l 1
 433 126 l 1
 342 126 l 1
 218 304 l 1
 342 482 l 1
161 482 m 1
 251 482 l 1
 118 304 l 1
 251 126 l 1
 161 126 l 1
 37 304 l 1
 161 482 l 1
EndSplineSet
Layer: 3
SplineSet
160.645 482.422 m 5
 251.465 482.422 l 5
 110.352 294.922 l 5
 110.352 313.965 l 5
 251.465 125.977 l 5
 161.133 125.977 l 5
 36.6211 304.199 l 5
 160.645 482.422 l 5
341.797 482.422 m 5
 432.617 482.422 l 5
 291.504 294.922 l 5
 291.504 313.965 l 5
 432.617 125.977 l 5
 342.285 125.977 l 5
 217.773 304.199 l 5
 341.797 482.422 l 5
EndSplineSet
EndChar

StartChar: guillemotright
Encoding: 187 187 104
Width: 457
VWidth: 1023
Flags: HW
HStem: 462 20G<24 128.933 206 309.933>
LayerCount: 4
Fore
SplineSet
115 482 m 1
 239 304 l 1
 115 126 l 1
 24 126 l 1
 158 304 l 1
 24 482 l 1
 115 482 l 1
296 482 m 1
 420 304 l 1
 296 126 l 1
 206 126 l 1
 339 304 l 1
 206 482 l 1
 296 482 l 1
EndSplineSet
Layer: 3
SplineSet
296.387 482.422 m 1
 420.41 304.199 l 1
 295.898 125.977 l 1
 205.566 125.977 l 1
 346.68 313.965 l 1
 346.68 294.922 l 1
 205.566 482.422 l 1
 296.387 482.422 l 1
115.234 482.422 m 1
 239.258 304.199 l 1
 114.746 125.977 l 1
 24.4141 125.977 l 1
 165.527 313.965 l 1
 165.527 294.922 l 1
 24.4141 482.422 l 1
 115.234 482.422 l 1
EndSplineSet
EndChar

StartChar: registered
Encoding: 174 174 105
Width: 601
VWidth: 1023
Flags: HW
HStem: 256 55<207.05 393.031> 480 38<254 309> 605 40<254 352.658> 708 54<208.335 391.922>
VStem: 44 54<420.085 598.059> 208 46<379 480 518 605> 362 43<523.65 595.895> 503 55<420.093 599.472>
LayerCount: 4
Fore
SplineSet
405 568 m 0
 405 526 385 498 352 487 c 1
 407 379 l 1
 358 379 l 1
 309 481 l 1
 298 481 283 480 266 480 c 2
 254 480 l 1
 254 379 l 1
 208 379 l 1
 208 643 l 1
 317 645 l 2
 318 645 320 645 321 645 c 0
 370 645 405 618 405 568 c 0
301 762 m 0
 377 762 440 729 482 689 c 0
 523 649 558 584 558 509 c 0
 558 434 523 370 482 330 c 0
 441 290 376 256 301 256 c 0
 225 256 161 290 120 330 c 0
 79 370 44 434 44 509 c 0
 44 584 79 649 120 689 c 0
 162 729 224 762 301 762 c 0
300 708 m 0
 245 708 197 688 158 650 c 0
 118 611 98 564 98 509 c 0
 98 454 118 407 158 368 c 0
 197 330 245 311 301 311 c 0
 357 311 404 330 443 368 c 0
 483 407 503 454 503 509 c 0
 503 626 409 708 300 708 c 0
362 564 m 0
 362 589 334 604 315 605 c 1
 254 605 l 1
 254 518 l 1
 270 518 l 2
 322 518 347 513 358 546 c 0
 360 552 362 559 362 564 c 0
EndSplineSet
Layer: 3
SplineSet
299.805 708.008 m 0
 352.51 708.262 405.136 687.471 443.03 650.84 c 0
 480.926 614.209 503.423 561.982 503.418 509.277 c 0
 503.413 456.736 481.062 404.668 443.373 368.059 c 0
 405.686 331.449 353.322 310.549 300.781 310.547 c 0
 248.238 310.545 195.873 331.449 158.184 368.059 c 0
 120.494 404.668 98.1426 456.734 98.1445 509.277 c 0
 98.1465 561.655 120.357 613.564 157.84 650.151 c 0
 195.322 686.738 247.427 707.759 299.805 708.008 c 0
300.781 762.207 m 0
 234.051 762.207 167.584 735.459 119.861 688.818 c 0
 72.1396 642.173 43.9453 576.006 43.9453 509.277 c 0
 43.9453 442.547 72.1396 376.379 119.861 329.736 c 0
 167.584 283.094 234.051 256.348 300.781 256.348 c 0
 367.512 256.348 433.979 283.094 481.701 329.736 c 0
 529.424 376.379 557.617 442.547 557.617 509.277 c 0
 557.617 576.006 529.424 642.173 481.701 688.818 c 0
 433.979 735.459 367.512 762.207 300.781 762.207 c 0
299.805 499.023 m 1
 346.191 499.023 l 1
 406.738 378.906 l 1
 357.91 378.906 l 1
 299.805 499.023 l 1
208.496 642.578 m 1
 316.895 644.531 l 2
 326.443 644.702 336.074 644.6 345.404 642.559 c 0
 354.734 640.518 363.674 636.704 371.582 631.348 c 0
 381.728 624.478 390.166 615.029 395.508 604.004 c 0
 400.641 593.408 402.906 581.587 403.32 569.824 c 0
 403.73 558.193 402.48 546.455 399.109 535.317 c 0
 395.738 524.18 389.997 513.667 381.836 505.371 c 0
 375.277 498.701 367.258 493.545 358.628 489.937 c 0
 349.998 486.33 340.805 484.216 331.543 482.91 c 0
 309.754 479.838 287.63 480.469 265.625 480.469 c 2
 228.027 480.469 l 1
 228.027 518.066 l 1
 270.02 518.066 l 2
 287.289 518.066 304.684 516.592 321.777 519.043 c 0
 331.381 520.42 340.98 523.73 348.145 530.273 c 0
 352.777 534.502 356.264 539.951 358.288 545.889 c 0
 360.313 551.826 360.935 558.208 360.352 564.453 c 0
 359.655 571.914 357.242 579.238 353.146 585.513 c 0
 349.049 591.782 343.195 596.89 336.426 600.098 c 0
 329.848 603.218 322.553 604.551 315.291 605.073 c 0
 308.029 605.596 300.738 605.469 293.457 605.469 c 2
 253.906 605.469 l 1
 253.906 378.906 l 1
 208.496 378.906 l 1
 208.496 642.578 l 1
EndSplineSet
EndChar

StartChar: paragraph
Encoding: 182 182 106
Width: 653
VWidth: 1023
Flags: HW
HStem: 0 21G<276.94 360 478 561> 665 73<360 478>
VStem: 63 297<448.802 646.908> 277 83<0 336.969> 478 83<0 665>
LayerCount: 4
Fore
SplineSet
298 738 m 2xe8
 561 738 l 1
 561 0 l 1
 478 0 l 1
 478 665 l 1
 360 665 l 1
 360 0 l 1
 277 0 l 1xd8
 276 335 l 1
 213 341 179 349 142 377 c 0
 95 412 63 474 63 553 c 0
 63 644 112 710 189 728 c 0
 218 735 254 738 298 738 c 2xe8
EndSplineSet
Layer: 3
SplineSet
113.281 686.523 m 0
 161.133 733.398 225.586 737.793 297.852 737.793 c 2
 560.547 737.793 l 1
 560.547 0 l 1
 477.539 0 l 1
 477.539 664.551 l 1
 360.352 664.551 l 1
 360.352 0 l 1
 276.855 0 l 1
 276.367 417.48 l 1
 315.918 417.48 l 1
 315.918 332.52 l 1
 250 335.449 219.238 341.309 196.777 348.633 c 0
 88.8672 383.301 63.4766 484.375 63.4766 553.223 c 0
 63.4766 608.398 81.0547 654.785 113.281 686.523 c 0
EndSplineSet
EndChar

StartChar: periodcentered
Encoding: 183 183 107
Width: 288
VWidth: 1023
Flags: HW
HStem: 307 102<93 195>
VStem: 93 102<307 409>
LayerCount: 4
Fore
SplineSet
93 409 m 1
 195 409 l 1
 195 307 l 1
 93 307 l 1
 93 409 l 1
EndSplineSet
Layer: 3
SplineSet
92.7734 409.18 m 1
 195.312 409.18 l 1
 195.312 306.641 l 1
 92.7734 306.641 l 1
 92.7734 409.18 l 1
EndSplineSet
EndChar

StartChar: questiondown
Encoding: 191 191 108
Width: 511
VWidth: 1023
Flags: HW
HStem: -268 70<193.449 385.872>
VStem: 62 81<-150.541 -24.1283> 248 83<163.348 283>
LayerCount: 4
Fore
SplineSet
275 -198 m 0
 203 -198 143 -156 143 -89 c 0
 143 -45 165 -18 192 3 c 2
 222 27 l 2
 249 49 268 68 279 85 c 0
 316 137 331 190 331 283 c 1
 248 283 l 1
 248 162 206 116 136 59 c 0
 123 49 111 38 100 26 c 0
 75 0 62 -33 62 -73 c 0
 62 -157 117 -214 174 -244 c 0
 205 -260 236 -268 268 -268 c 0
 323 -268 380 -254 441 -225 c 1
 416 -165 l 1
 363 -187 316 -198 275 -198 c 0
338 385 m 1
 338 482 l 1
 241 482 l 1
 241 385 l 1
 338 385 l 1
EndSplineSet
Layer: 3
SplineSet
165.527 595.703 m 1
 263.184 595.703 l 1
 263.184 693.359 l 1
 165.527 693.359 l 1
 165.527 595.703 l 1
239.746 -68.8477 m 0
 325.195 -68.8477 441.406 9.27734 441.406 117.676 c 0
 441.406 292.969 255.859 240.234 255.859 482.422 c 1
 172.852 482.422 l 1
 172.852 197.754 360.84 241.699 360.84 109.863 c 0
 360.84 53.7109 314.941 0.976562 227.051 0.976562 c 0
 199.219 0.976562 159.668 4.39453 87.8906 33.6914 c 1
 62.5 -25.8789 l 1
 116.211 -51.2695 166.992 -68.8477 239.746 -68.8477 c 0
EndSplineSet
EndChar

StartChar: uni00B5
Encoding: 181 181 109
Width: 579
VWidth: 1023
Flags: HW
HStem: -13 68<222.462 376.108> 0 21G<426.909 492> 462 20G<93 173 412 492>
VStem: 93 80<-200 26 109.331 482> 412 80<82.1863 482>
LayerCount: 4
Fore
SplineSet
93 482 m 1xb8
 173 482 l 1
 173 221 l 2
 173 171 176 144 194 111 c 0
 213 75 246 55 290 55 c 0
 320 55 361 67 412 92 c 1
 412 482 l 1
 492 482 l 1
 492 0 l 1
 436 0 l 1x78
 421 33 l 1
 373 2 327 -13 283 -13 c 0
 239 -13 202 0 173 26 c 1
 173 -200 l 1
 93 -200 l 1
 93 482 l 1xb8
EndSplineSet
Layer: 3
SplineSet
92.7734 482.422 m 1
 172.852 482.422 l 1
 173.34 220.703 l 2
 173.375 202.155 173.463 183.539 176.059 165.174 c 0
 178.652 146.809 183.833 128.669 192.826 112.447 c 0
 201.819 96.2256 214.66 82.0723 230.287 72.0811 c 0
 245.912 62.0889 264.155 56.3887 282.655 55.0596 c 0
 312.627 52.9062 342.322 61.8242 370.117 73.2422 c 0
 397.735 84.5879 424.396 98.1484 450.684 112.305 c 1
 426.27 253.906 l 1
 491.699 253.906 l 1
 491.699 0 l 1
 435.547 0 l 1
 411.621 56.1523 l 1
 411.621 482.422 l 1
 491.699 482.422 l 1
 491.699 169.922 l 2
 491.699 154.321 491.44 138.621 488.389 123.321 c 0
 485.337 108.022 479.548 93.2529 471.155 80.1025 c 0
 454.369 53.8008 428.093 34.8643 400.391 20.5078 c 0
 362.139 0.68457 319.938 -13.5322 276.855 -13.1836 c 0
 238.992 -12.877 201.097 0.697266 172.852 25.915 c 1
 172.852 -200.195 l 1
 92.7734 -200.195 l 1
 92.7734 482.422 l 1
EndSplineSet
EndChar

StartChar: uni00AD
Encoding: 173 173 110
Width: 524
VWidth: 1023
Flags: HW
HStem: 288 67<107 417>
VStem: 107 310<288 355>
LayerCount: 4
Fore
SplineSet
107 355 m 1
 417 355 l 1
 417 288 l 1
 107 288 l 1
 107 355 l 1
EndSplineSet
Layer: 3
SplineSet
107.422 355.469 m 1
 416.992 355.469 l 1
 416.992 287.598 l 1
 107.422 287.598 l 1
 107.422 355.469 l 1
EndSplineSet
EndChar

StartChar: plusminus
Encoding: 177 177 111
Width: 683
VWidth: 1023
Flags: HW
HStem: 73 67<107 576> 426 67<107 306 377 576> 674 20G<306 377>
VStem: 306 71<225 426 493 694>
LayerCount: 4
Fore
SplineSet
306 694 m 1
 377 694 l 1
 377 493 l 1
 576 493 l 1
 576 426 l 1
 377 426 l 1
 377 225 l 1
 306 225 l 1
 306 426 l 1
 107 426 l 1
 107 493 l 1
 306 493 l 1
 306 694 l 1
107 140 m 1
 576 140 l 1
 576 73 l 1
 107 73 l 1
 107 140 l 1
EndSplineSet
Layer: 3
SplineSet
107.422 140.137 m 1
 576.172 140.137 l 1
 576.172 73.2422 l 1
 107.422 73.2422 l 1
 107.422 140.137 l 1
306.152 693.848 m 5
 377.441 693.848 l 5
 377.441 225.098 l 5
 306.152 225.098 l 5
 306.152 693.848 l 5
107.422 492.676 m 5
 576.172 492.676 l 5
 576.172 425.781 l 5
 107.422 425.781 l 5
 107.422 492.676 l 5
EndSplineSet
EndChar

StartChar: ae
Encoding: 230 230 112
Width: 817
VWidth: 0
Flags: HW
HStem: -10 64<176.808 322.541 521.204 707.97> 213 60<175.146 354 438 677> 422 69<116.073 313.82 500.081 632.365>
VStem: 60 80<87.305 183.143> 354 80<132.791 213 274 347.99> 677 77<273 369.381>
AnchorPoint: "above" 406 482 basechar 0
AnchorPoint: "below" 406 0 basechar 0
AnchorPoint: "cedilla" 406 0 basechar 0
LayerCount: 4
Fore
SplineSet
140 134 m 0
 140 86 198 54 247 54 c 0
 288 54 324 70 354 101 c 1
 354 213 l 1
 346 213 333 214 317 214 c 0
 258 214 214 208 184 196 c 0
 154 184 140 164 140 134 c 0
677 290 m 0
 677 359 640 422 573 422 c 0
 544 422 520 415 500 401 c 0
 462 374 441 331 438 273 c 1
 677 273 l 1
 677 277 677 278 677 290 c 0
408 406 m 1
 445 451 506 491 582 491 c 0
 697 491 754 409 754 245 c 0
 754 230 753 219 753 213 c 1
 434 213 l 1
 434 210 434 210 434 207 c 0
 434 165 451 130 484 100 c 0
 518 70 561 55 612 55 c 0
 639 55 672 60 712 72 c 1
 726 18 l 1
 677 0 629 -9 581 -9 c 0
 502 -9 442 15 401 64 c 1
 364 15 307 -10 231 -10 c 0
 166 -10 113 19 84 58 c 0
 68 80 60 104 60 130 c 0
 60 166 75 197 105 223 c 0
 147 259 226 274 308 274 c 0
 345 274 346 274 354 274 c 1
 354 299 l 2
 354 383 311 425 225 425 c 0
 201 425 163 417 111 403 c 1
 91 461 l 1
 145 481 199 491 253 491 c 0
 329 491 381 463 408 406 c 1
EndSplineSet
Layer: 3
SplineSet
90.8203 460.938 m 5
 151.879 483.717 212.756 491.24 253.418 491.211 c 4
 333.545 491.807 383.973 457.542 408.203 406.25 c 5
 448.877 455.516 512.168 491.372 581.479 491.372 c 4
 719.419 491.372 753.735 374.691 753.906 244.629 c 4
 753.916 226.758 753.735 218.836 753.418 212.891 c 5
 434.082 212.891 l 5
 433.977 210.75 433.926 208.607 433.926 206.466 c 4
 433.926 124.479 507.637 54.498 611.929 54.498 c 4
 650.713 54.498 691.094 65.9941 712.402 72.2656 c 5
 725.586 17.5781 l 5
 671.255 -2.54297 617.261 -9.42871 581.128 -9.42871 c 4
 514.937 -9.42871 444.914 11.1895 400.879 63.9648 c 5
 361.826 12.4678 302.811 -9.84082 230.805 -9.84082 c 4
 141.502 -9.84082 60.1621 49.4004 60.0586 129.678 c 4
 60.0586 199.298 116.904 258.295 235.916 270.159 c 4
 270.887 273.646 306.252 273.926 323.836 273.926 c 4
 330.775 273.926 343.621 273.818 353.516 273.926 c 5
 352.835 280.566 353.825 285.836 353.825 299.307 c 4
 353.825 356.363 329.822 424.835 233.807 424.835 c 4
 209.213 424.835 176.791 421.495 110.84 403.32 c 5
 90.8203 460.938 l 5
676.938 284.405 m 4
 676.938 338.034 655.137 421.885 567.925 421.885 c 4
 486.519 421.885 441.84 351.28 437.988 273.438 c 5
 676.758 273.438 l 5
 676.88 276.438 676.938 281.397 676.938 284.405 c 4
139.648 133.789 m 4
 139.648 89.3555 192.383 54.1992 247.07 54.1992 c 4
 290.039 54.1992 327.637 73.7305 353.516 101.074 c 5
 353.516 213.379 l 5
 340.82 213.867 329.102 213.867 317.383 213.867 c 4
 206.543 213.867 139.648 196.777 139.648 133.789 c 4
EndSplineSet
EndChar

StartChar: germandbls
Encoding: 223 223 113
Width: 615
VWidth: 1023
Flags: HW
HStem: -13 65<258.341 452.648> 0 21G<98.96 180> 626 72<220.017 342.599>
VStem: 99 81<0 584.693> 253 80<315.192 389.989> 382 78<485.075 588.539> 472 85<71.7861 178.974>
AnchorPoint: "above" 262 671 basechar 0
LayerCount: 4
Fore
SplineSet
98 500 m 2x7e
 98 617 172 698 294 698 c 0
 361 698 407 665 433 624 c 0
 451 597 460 568 460 538 c 0
 460 508 452 481 435 460 c 0
 422 444 408 430 393 419 c 0
 368 401 333 381 333 352 c 0
 333 339 336 329 341 322 c 0
 349 310 366 299 391 289 c 2
 426 276 l 2
 478 257 503 247 528 216 c 1
 547 194 557 164 557 127 c 0
 557 81 533 43 510 22 c 1
 483 -1 446 -13 397 -13 c 0
 348 -13 298 -5 246 10 c 1
 261 67 l 1
 312 57 352 52 380 52 c 0xbe
 436 52 472 70 472 126 c 0
 472 181 428 198 381 215 c 2
 345 228 l 1
 301 245 273 269 261 300 c 0
 256 313 253 327 253 343 c 0
 253 408 295 434 332 462 c 0
 341 469 349 474 356 481 c 0
 373 496 382 515 382 538 c 0
 382 585 329 626 282 626 c 0
 253 626 229 616 208 594 c 0
 188 573 179 541 179 499 c 2
 180 0 l 1
 99 0 l 1
 98 500 l 2x7e
EndSplineSet
Layer: 3
SplineSet
291.24 698.335 m 0
 404.465 698.335 460.171 606.987 460.171 537.607 c 0
 460.171 423.117 332.939 410.156 332.939 347.777 c 0
 332.939 255.645 556.665 304.134 556.665 127.277 c 0
 556.665 79.0557 528.623 -12.7109 394.865 -12.7109 c 0
 358.391 -12.7109 302.156 -6.25977 246.094 10.2539 c 1
 261.23 66.8945 l 1
 303.193 58.6133 344.047 51.8105 378.439 51.8105 c 0
 433.477 51.8105 471.968 69.2295 471.968 125.877 c 0
 471.968 245.492 253.318 187.978 253.318 344.416 c 0
 253.318 451.989 381.981 458.496 381.981 532.783 c 0
 381.981 587.759 329.431 626.328 282.188 626.465 c 0
 258.79 626.465 178.486 613.95 178.711 499.023 c 2
 179.688 0 l 1
 98.6328 0 l 1
 97.6562 499.512 l 2
 97.373 644.424 203.02 698.335 291.24 698.335 c 0
EndSplineSet
EndChar

StartChar: multiply
Encoding: 215 215 114
Width: 634
VWidth: 1023
Flags: HW
LayerCount: 4
Fore
SplineSet
141 95 m 1
 89 146 l 1
 262 319 l 1
 93 488 l 1
 144 540 l 1
 320 363 l 1
 493 537 l 1
 544 485 l 1
 372 312 l 1
 541 143 l 1
 490 91 l 1
 313 268 l 1
 141 95 l 1
EndSplineSet
Layer: 3
SplineSet
489.888 91.3086 m 1
 92.916 488.281 l 1
 144.186 539.551 l 1
 541.157 142.578 l 1
 489.888 91.3086 l 1
140.733 94.7617 m 1
 88.9756 146.031 l 1
 283.391 340.445 l 1
 305.487 348.732 l 1
 493.34 536.587 l 1
 544.609 484.828 l 1
 354.93 295.146 l 1
 334.904 288.932 l 1
 140.733 94.7617 l 1
EndSplineSet
EndChar

StartChar: divide
Encoding: 247 247 115
Width: 683
VWidth: 1023
Flags: HW
HStem: 41 95<294 389> 287 68<61 623> 507 95<294 389>
VStem: 294 95<41 136 507 602>
LayerCount: 4
Fore
SplineSet
61 355 m 1
 623 355 l 1
 623 287 l 1
 61 287 l 1
 61 355 l 1
294 136 m 1
 389 136 l 1
 389 41 l 1
 294 41 l 1
 294 136 l 1
294 602 m 1
 389 602 l 1
 389 507 l 1
 294 507 l 1
 294 602 l 1
EndSplineSet
Layer: 3
SplineSet
293.945 602.051 m 1
 389.16 602.051 l 1
 389.16 506.836 l 1
 293.945 506.836 l 1
 293.945 602.051 l 1
293.945 135.742 m 1
 389.16 135.742 l 1
 389.16 40.5273 l 1
 293.945 40.5273 l 1
 293.945 135.742 l 1
61.0352 354.98 m 5
 622.559 354.98 l 5
 622.559 287.109 l 1
 61.0352 287.109 l 1
 61.0352 354.98 l 5
EndSplineSet
EndChar

StartChar: oslash
Encoding: 248 248 116
Width: 574
Flags: W
HStem: -10 65<213.564 361.779> 426 64<212.067 360.238> 466 20G<481.515 521.714>
VStem: 55 83<137.066 343.078> 436 83<137.24 343.792>
AnchorPoint: "above" 285 482 basechar 0
AnchorPoint: "below" 285 0 basechar 0
AnchorPoint: "cedilla" 285 0 basechar 0
LayerCount: 4
Fore
SplineSet
285 -10 m 0x9c
 224 -10 174 7 136 38 c 1
 84 -16 l 1
 38 28 l 1
 94 86 l 1
 68 127 55 179 55 240 c 0
 55 391 140 490 288 490 c 0x6c
 351 490 401 472 439 441 c 1
 492 495 l 1
 538 448 l 1
 482 391 l 1
 506 351 519 300 519 241 c 0
 519 91 433 -10 285 -10 c 0x9c
287 426 m 0x6c
 190 426 138 342 138 240 c 0
 138 206 143 175 154 148 c 1
 386 386 l 1
 361 411 328 426 287 426 c 0x6c
436 240 m 0
 436 272 431 302 421 328 c 1
 190 92 l 1
 214 69 246 55 287 55 c 0x9c
 386 55 436 137 436 240 c 0
EndSplineSet
Layer: 3
SplineSet
508.301 485.84 m 25
 536.621 458.496 l 25
 82.0312 -7.32422 l 25
 53.7109 20.0195 l 25
 508.301 485.84 l 25
EndSplineSet
Refer: 6 111 N 1 0 0 1 0 0 2
EndChar

StartChar: OE
Encoding: 338 338 118
Width: 975
VWidth: 1023
Flags: HW
HStem: 0 73<331.407 513 596 897> 321 73<596 871> 621 73<335.033 513 596 897>
VStem: 105 83<220.33 466.592> 513 83<73 321 394 621>
AnchorPoint: "below" 551 0 basechar 0
AnchorPoint: "above" 551 670 basechar 0
AnchorPoint: "cedilla" 551 0 basechar 0
LayerCount: 4
Fore
SplineSet
188 332 m 0
 188 193 276 96 386 77 c 0
 402 74 424 73 451 73 c 2
 513 73 l 1
 513 621 l 1
 485 621 l 2
 445 621 414 619 393 616 c 0
 260 595 188 493 188 332 c 0
519 694 m 2
 897 694 l 1
 897 621 l 1
 596 621 l 1
 596 394 l 1
 871 394 l 1
 871 321 l 1
 596 321 l 1
 596 73 l 1
 897 73 l 1
 897 0 l 1
 475 0 l 2
 313 0 221 35 159 132 c 0
 123 188 105 258 105 342 c 0
 105 528 188 642 340 679 c 0
 381 689 441 694 519 694 c 2
EndSplineSet
Layer: 3
SplineSet
339.844 679.199 m 0
 398.102 693.218 458.635 693.848 518.555 693.848 c 2
 595.703 693.848 l 1
 595.703 262.207 l 1
 595.703 0 l 1
 475.098 0 l 2
 409.793 0 342.848 2.84863 282.715 28.3203 c 0
 232.266 49.6895 188.267 86.2041 158.691 132.324 c 0
 117.938 195.875 104.24 273.629 104.98 349.121 c 0
 105.421 394.016 110.966 439.083 124.391 481.926 c 0
 137.815 524.771 159.866 565.229 190.918 597.656 c 0
 230.611 639.106 284.044 665.776 339.844 679.199 c 0
306.641 585.938 m 0
 269.555 564.434 239.554 531.421 220.215 493.164 c 0
 198.782 450.764 189.479 402.955 187.988 355.469 c 0
 186.145 296.73 196.578 236.285 227.051 186.035 c 0
 250.188 147.881 284.586 116.694 324.707 97.168 c 0
 344.191 87.6855 365.025 80.9941 386.381 77.3262 c 0
 407.738 73.6582 429.503 73.2422 451.172 73.2422 c 2
 512.695 73.2422 l 1
 512.695 258.301 l 1
 512.695 620.605 l 1
 484.863 620.605 l 2
 454.208 620.605 423.414 620.396 393.137 615.596 c 0
 362.859 610.791 333.16 601.313 306.641 585.938 c 0
545.41 320.801 m 1
 545.41 394.043 l 1
 870.605 394.043 l 1
 870.605 320.801 l 1
 545.41 320.801 l 1
545.41 0 m 1
 545.41 73.2422 l 1
 897.461 73.2422 l 1
 897.461 0 l 1
 545.41 0 l 1
545.41 620.605 m 1
 545.41 693.848 l 1
 897.461 693.848 l 1
 897.461 620.605 l 1
 545.41 620.605 l 1
EndSplineSet
EndChar

StartChar: oe
Encoding: 339 339 119
Width: 880
VWidth: 0
Flags: HW
HStem: -11 69<218.517 360.108 569.415 773.734> 199 60<501 740> 421 68<210.803 350.894 563.176 690.889>
VStem: 63 79<144.189 344.36> 425 74<128.969 199 259 339.304> 740 77<259 369.272>
AnchorPoint: "cedilla" 456 0 basechar 0
AnchorPoint: "below" 456 0 basechar 0
AnchorPoint: "above" 456 482 basechar 0
LayerCount: 4
Fore
SplineSet
278 421 m 0
 191 421 142 336 142 245 c 0
 142 172 169 115 212 83 c 0
 235 66 258 58 282 58 c 0
 334 58 360 75 385 102 c 0
 412 132 425 176 425 235 c 0
 425 338 373 421 278 421 c 0
740 269 m 0
 740 361 710 417 624 417 c 0
 586 417 555 402 534 370 c 0
 513 338 502 301 501 259 c 1
 740 259 l 1
 740 264 740 264 740 269 c 0
63 238 m 0
 63 384 147 489 290 489 c 0
 372 489 432 457 469 393 c 1
 510 456 568 487 645 487 c 0
 739 487 797 427 813 331 c 0
 816 313 817 285 817 246 c 2
 817 199 l 1
 499 199 l 1
 500 153 521 115 561 85 c 0
 590 63 628 53 674 53 c 0
 704 53 738 58 776 70 c 1
 789 16 l 1
 741 -2 693 -11 643 -11 c 0
 557 -11 495 18 458 78 c 1
 417 19 358 -11 281 -11 c 0
 143 -11 63 96 63 238 c 0
EndSplineSet
Layer: 3
SplineSet
644.912 486.862 m 4
 778.203 486.862 806.763 367.51 811.523 337.891 c 4
 816.387 307.614 816.895 276.855 816.895 246.094 c 6
 816.895 198.73 l 5
 499.023 198.73 l 5
 501.016 134.033 554.243 52.7246 673.765 52.7246 c 4
 687.529 52.7246 720.82 53.5557 775.879 70.3125 c 5
 789.062 15.625 l 5
 749.897 0.9375 699.214 -11.2305 642.578 -11.2305 c 4
 536.567 -11.2305 483.745 35.9512 457.5 78.2715 c 5
 418.637 21.4336 357.219 -10.7432 281.424 -10.7432 c 4
 150.846 -10.7432 63.4707 85.6309 63.4707 237.428 c 4
 63.4707 392.067 154.147 489.258 290.162 489.258 c 4
 373.317 489.258 433.723 452.959 468.587 392.845 c 5
 523.213 476.73 607.075 486.862 644.912 486.862 c 4
628.179 417.357 m 4
 543.604 417.357 502.217 338.602 500.977 259.277 c 5
 740.234 259.277 l 5
 740.312 262.523 740.352 265.771 740.352 269.016 c 4
 740.352 375.244 695.483 417.357 628.179 417.357 c 4
425.305 231.59 m 4
 425.305 365.344 349.91 420.898 281.738 420.898 c 4
 197.326 420.646 141.575 345.229 141.575 245.187 c 4
 141.575 141.462 200.98 57.6162 290.088 57.6162 c 4
 362.928 57.6162 425.305 117.328 425.305 231.59 c 4
EndSplineSet
EndChar

StartChar: AE
Encoding: 198 198 120
Width: 935
VWidth: 1023
Flags: HW
HStem: 0 73<555 857> 202 72<249 472> 321 73<555 830> 621 73<383 472 555 857>
VStem: 472 83<73 202 274 321 394 621>
AnchorPoint: "above" 514 670 basechar 0
AnchorPoint: "below" 514 0 basechar 0
AnchorPoint: "cedilla" 514 0 basechar 0
LayerCount: 4
Fore
SplineSet
857 694 m 1
 857 621 l 1
 555 621 l 1
 555 394 l 1
 830 394 l 1
 830 321 l 1
 555 321 l 1
 555 73 l 1
 857 73 l 1
 857 0 l 1
 472 0 l 1
 472 202 l 1
 221 202 l 1
 143 0 l 1
 63 0 l 1
 334 694 l 1
 857 694 l 1
472 274 m 1
 472 621 l 1
 383 621 l 1
 249 274 l 1
 472 274 l 1
EndSplineSet
Layer: 3
SplineSet
334.473 693.848 m 1
 856.934 693.848 l 1
 856.934 620.605 l 1
 555.176 620.605 l 1
 555.176 394.043 l 1
 830.078 394.043 l 1
 830.078 320.801 l 1
 555.176 320.801 l 1
 555.176 73.2422 l 1
 856.934 73.2422 l 1
 856.934 0 l 1
 472.168 0 l 1
 472.168 201.66 l 1
 183.594 202.148 l 1
 226.074 274.414 l 1
 472.168 274.414 l 1
 472.168 620.605 l 1
 382.836 620.605 l 1
 142.578 0 l 1
 63.4766 0 l 1
 334.473 693.848 l 1
EndSplineSet
EndChar

StartChar: onequarter
Encoding: 188 188 121
Width: 864
VWidth: 0
Flags: HW
HStem: 0 21G<175 272.556 691 756> 95 54<573 691 756 808> 674 20G<94.6923 221 564.444 662>
VStem: 156 65<302 630> 691 65<0 95 149 336>
LayerCount: 4
Fore
SplineSet
576 694 m 1
 662 694 l 1
 261 0 l 1
 175 0 l 1
 576 694 l 1
221 694 m 1
 221 302 l 1
 156 302 l 1
 156 630 l 1
 88 611 l 1
 73 668 l 1
 167 694 l 1
 221 694 l 1
756 408 m 1
 756 149 l 1
 808 149 l 1
 808 95 l 1
 756 95 l 1
 756 0 l 1
 691 0 l 1
 691 95 l 1
 500 95 l 1
 500 139 l 1
 679 408 l 1
 756 408 l 1
691 149 m 1
 691 336 l 1
 573 149 l 1
 691 149 l 1
EndSplineSet
Layer: 3
SplineSet
690.918 335.938 m 1
 573.242 148.926 l 1
 690.918 148.926 l 1
 690.918 335.938 l 1
679.199 408.203 m 1
 755.859 408.203 l 1
 755.859 148.926 l 1
 808.105 148.926 l 1
 808.105 95.2148 l 1
 755.859 95.2148 l 1
 755.859 0 l 1
 690.918 0 l 1
 690.918 95.2148 l 1
 500.488 95.2148 l 1
 500.488 138.672 l 1
 679.199 408.203 l 1
166.504 693.848 m 1
 221.191 693.848 l 1
 221.191 301.758 l 1
 156.25 301.758 l 1
 156.25 630.371 l 1
 87.8906 611.328 l 1
 73.2422 668.457 l 1
 166.504 693.848 l 1
576.172 693.848 m 1
 661.621 693.848 l 1
 261.23 0 l 1
 175.293 0 l 1
 576.172 693.848 l 1
EndSplineSet
EndChar

